<svg xmlns="http://www.w3.org/2000/svg" width="400" height="400"><path d="M112.144 341.16c-.64-.546-1.713-1.26-3.344-1.803 1.915-1.001 3.216-2.556 3.897-4.647.522-1.574.492-3.564.481-4.314v-9.325c-.092-2.509-.351-5.372-2.325-7.647-1.73-1.949-4.332-2.942-7.753-2.942l-12.533.016a.954.954 0 0 0-.955.957v61.395c0 .522.42.952.955.952h12.759c1.326 0 5.359 0 8.669-2.847 2.944-2.673 3.262-5.871 3.359-9.505v-10.518c0-3.146 0-7.069-3.21-9.772m-16.272 1.423h3.347c4.383.185 8.119.646 9.479 4.389.425 1.255.481 2.604.481 3.877v8.692c0 4.143-.271 6.086-1.946 7.399-.994.697-2.141 1.127-5.101 1.212h-6.26v-25.569zm11.202-12.817c-.036 1.915-.118 5.459-4.166 6.683-1.091.308-1.616.395-3.905.484H95.78v-20.87h4.407l.279.008c2.599.084 5.292.161 6.222 2.507.138.555.315 1.577.402 3.303v7.338c-.006.152-.011.337-.016.547m29.468 13.606a6.063 6.063 0 0 0 1.334-.505c3.318-1.257 5.625-3.743 6.488-7.01.356-1.429.379-3.705.379-4.146v-9.638a5.918 5.918 0 0 1-.023-.45c-.059-1.787-.192-5.992-3.746-8.763-2.862-2.191-5.976-2.278-9.279-2.365h-11.917c-.525 0-.95.43-.95.957v61.395c0 .522.425.955.95.955h4.266a.952.952 0 0 0 .948-.955v-28.964h5.085l10.979 29.302a.97.97 0 0 0 .901.617h4.552a.958.958 0 0 0 .794-1.487l-10.761-28.943zm1.759-20.089v9.555c0 1.283.01 3.959-3.093 5.019-.604.21-1.674.461-3.339.461h-6.877v-22.255h7.056c1.398 0 2.658.051 3.964.742 2.115 1.203 2.207 3.886 2.289 6.478m32.134-11.038c-2.22-1.619-5.042-2.445-8.377-2.445l-.292-.006c-6.033 0-10.659 3.009-12.362 8.04-.809 2.335-.906 5.016-.965 6.468l-.008.095c-.015.279-.025.484-.041.661v34.686c.09 3.437.179 7.333 2.917 10.762 3.075 3.689 8.232 4.084 10.306 4.084 7.474 0 10.601-4.04 11.599-5.764 1.654-2.681 1.869-5.428 1.961-8.493v-33.921c-.002-4.95-.002-10.567-4.738-14.167m-15.962 11.852c-.015-3.546 1.035-6.04 3.124-7.404 1.229-.764 2.635-1.155 4.184-1.155 1.995 0 3.295.648 3.667.86 1.516.75 2.079 1.895 2.358 2.448 1.155 2.235 1.37 5.098 1.37 9.909v29.91c-.082 3.347-.166 6.812-3.093 8.896-1.137.853-2.561 1.285-4.22 1.285-5.064 0-6.59-3.715-6.739-4.125-.466-1.423-.65-3.226-.65-6.659v-33.965zm46.451-11.852c-2.225-1.619-5.042-2.445-8.377-2.445l-.287-.006c-6.042 0-10.667 3.006-12.372 8.04-.799 2.33-.906 5.014-.962 6.468l-.005.064c-.01.294-.021.509-.036.691v34.681c.074 3.441.171 7.338 2.911 10.765 3.07 3.691 8.232 4.086 10.306 4.086 7.466 0 10.595-4.04 11.594-5.764 1.669-2.681 1.879-5.428 1.966-8.498v-33.916c-.001-4.949-.001-10.566-4.738-14.166m-15.959 11.852c-.021-3.551 1.032-6.04 3.121-7.404 1.227-.764 2.635-1.149 4.184-1.149 2.051 0 3.388.704 3.662.854 1.511.756 2.084 1.895 2.361 2.448 1.157 2.235 1.37 5.09 1.37 9.909v29.91c-.084 3.347-.161 6.809-3.096 8.896-1.137.853-2.555 1.285-4.204 1.285-5.08 0-6.596-3.715-6.75-4.125-.471-1.423-.647-3.221-.647-6.657v-33.967zm37.403 11.484l12.851-24.068a.95.95 0 0 0-.025-.94.943.943 0 0 0-.819-.466h-4.783a.953.953 0 0 0-.853.527l-13.496 26.526v-26.091a.956.956 0 0 0-.96-.963h-4.261a.966.966 0 0 0-.963.963v61.396c0 .521.436.955.963.955h4.182a.96.96 0 0 0 .952-.955v-23.077l3.388-6.386 10.498 29.778c.128.384.494.64.901.64h4.632a.959.959 0 0 0 .801-1.479l-13.008-36.36zm36.889 32.483h-15.051v-56.611a.957.957 0 0 0-.955-.957h-4.25a.963.963 0 0 0-.966.957v61.397c0 .52.431.949.966.949h20.256a.96.96 0 0 0 .955-.949v-3.828a.96.96 0 0 0-.955-.958m22.951-57.568h-4.695a.948.948 0 0 0-.904.65l-8.844 26.19-8.913-26.19a.951.951 0 0 0-.903-.65h-4.524c-.308 0-.6.148-.783.401a.951.951 0 0 0-.113.871l12.029 34.107v26.972c0 .522.43.955.957.955h4.169a.966.966 0 0 0 .963-.955V345.88l12.464-34.104a.97.97 0 0 0-.117-.876.962.962 0 0 0-.786-.404m28.227 0h-4.179c-.251 0-.502.1-.676.281a.968.968 0 0 0-.281.682l.348 44.812c.044 1.162.062 2.281.092 3.641.006.691.016 1.398.033 2.1l-12.676-50.789a.958.958 0 0 0-.922-.727h-6.266a.958.958 0 0 0-.95.957v61.395c0 .522.425.955.95.955h4.089a.922.922 0 0 0 .676-.281.971.971 0 0 0 .279-.684l-.261-43.65V323.4l12.287 49.681a.958.958 0 0 0 .932.722h6.524a.96.96 0 0 0 .952-.955v-61.395a.96.96 0 0 0-.951-.957m21.973-248.578c.025-2.802.025-4.383.025-4.383v-3.443l-3.113-1.565c-2.187-1.109-54.502-27.115-127.139-27.115h-3.372c-72.588 0-124.947 26.006-127.134 27.115l-3.111 1.565v3.443s0 1.576.023 4.21c-.586 30.925 3.206 109.43 51.227 170.432 38.944 49.499 75.441 60.985 79.471 62.127l1.57.45 1.557-.44c1.569-.442 38.75-11.296 78.765-62.137 48.066-61.018 51.845-139.434 51.231-170.259"/><path fill="#FFF" d="M277.728 229.458c47.027-59.717 50.728-136.641 50.118-166.939.036-2.815.036-4.374.036-4.384v-1.138l-1.04-.516c-2.141-1.086-53.359-26.542-124.668-26.542h-3.356c-71.257 0-122.515 25.456-124.666 26.542l-1.032.516v1.138c0 .01 0 1.568.028 4.213-.586 30.396 3.129 107.416 50.128 167.11 37.977 48.274 73.178 59.366 77.067 60.462l.52.148.512-.138c1.511-.419 37.321-10.892 76.353-60.472m-76.87 56.893c-2.968-.837-37.715-11.529-75.046-58.992C76.62 164.874 76.4 83.053 76.771 63.786c-.031-2.706-.031-4.235-.031-4.235s.054-.023.154-.078l-.002-.165 1.106-.51c2.604-1.195 8.429-3.741 16.868-6.772 20.97-7.669 58.506-18.447 103.969-18.447h3.315c45.364 0 82.818 10.718 103.813 18.384 8.523 3.057 14.41 5.634 17.037 6.833l1.099.503v.174c.103.055.156.078.156.078s0 1.529-.031 4.235c.38 19.268.185 101.088-49.037 163.573-37.428 47.554-71.487 58.208-74.329 58.992"/><path fill="#FFF" d="M142.721 50.259a230.28 230.28 0 0 0-8.065 1.744 1.363 1.363 0 0 0-1.06 1.348l.666 59.817c0 3.974.107 7.617.266 10.887a15073.593 15073.593 0 0 0-25.087-63.718 1.374 1.374 0 0 0-1.706-.796c-4.772 1.581-7.087 2.399-11.778 4.171a1.371 1.371 0 0 0-.891 1.283v82.228c0 .451.226.871.592 1.126.233.164.504.241.781.241.164 0 .325-.025.486-.084a236.261 236.261 0 0 1 7.441-2.699c.553-.192.924-.714.919-1.303-.11-19.449-.22-38.901-.325-58.347 0-5.119-.062-7.979-.225-11.602 8.437 21.463 16.646 42.48 24.452 62.58a1.359 1.359 0 0 0 1.608.835c5.006-1.237 7.456-1.785 12.469-2.796a1.37 1.37 0 0 0 1.096-1.342v-82.23a1.366 1.366 0 0 0-1.639-1.343m54.442-5.894a300.412 300.412 0 0 0-42.583 3.75 1.365 1.365 0 0 0-1.157 1.349v82.229c0 .397.176.784.484 1.042a1.353 1.353 0 0 0 1.104.31 298.619 298.619 0 0 1 42.027-3.71 1.37 1.37 0 0 0 1.344-1.37v-5.123c0-.369-.146-.722-.407-.979a1.421 1.421 0 0 0-.983-.394c-13.143.225-20.161.725-32.723 2.353v-32.53c10.424-1.361 15.931-1.807 26.844-2.21a1.373 1.373 0 0 0 1.316-1.369v-5.011c0-.37-.151-.729-.417-.988a1.346 1.346 0 0 0-1.001-.38c-10.674.393-16.428.855-26.572 2.166V54.58c12.787-1.662 19.459-2.129 32.769-2.349a1.371 1.371 0 0 0 1.347-1.371v-5.126c0-.367-.149-.721-.41-.976a1.364 1.364 0 0 0-.982-.393m59.087 4.763a301.295 301.295 0 0 0-50.712-4.903 1.338 1.338 0 0 0-.978.399 1.348 1.348 0 0 0-.407.973v5.241c0 .749.602 1.36 1.354 1.369 7.945.088 12.029.268 19.552.864v75.843c0 .712.542 1.306 1.257 1.365 3.313.269 4.937.428 8.268.791a1.368 1.368 0 0 0 1.065-.343c.292-.256.455-.63.455-1.016V54.137c7.544.844 11.691 1.471 19.646 2.927a1.366 1.366 0 0 0 1.621-1.346v-5.241a1.369 1.369 0 0 0-1.121-1.349m35.207 49.04c-17.496-18.083-19.501-21.009-19.501-28.45 0-7.36 3.224-8.351 6.373-8.351 1.646 0 3.659.338 5.994 1.01 12.648 3.633 12.648 10.533 12.648 15.652v7.34c0 .586.376 1.108.93 1.297a244.909 244.909 0 0 1 7.781 2.764c.422.158.891.098 1.26-.157.366-.257.583-.679.583-1.128v-6.14c.006-7.748.006-20.712-22.616-27.202-15.815-4.539-23.886.314-23.886 14.04 0 11.4 6.99 18.225 18.562 29.531l2.338 2.287c13.737 13.468 16.518 17.918 16.518 26.444 0 3.064-.461 5.205-1.413 6.547-.966 1.359-2.52 1.995-4.886 1.995-1.828 0-4.147-.402-6.9-1.193-6.004-1.728-10.367-4.089-12.963-7.018-3.16-3.559-3.16-6.581-3.16-12.598v-6.519c0-.64-.445-1.198-1.067-1.336a252.16 252.16 0 0 0-8.242-1.736 1.37 1.37 0 0 0-1.634 1.344v11.53c0 10.843 8.869 19.111 25.65 23.899 4.737 1.354 8.834 2.041 12.178 2.041 13.15-.002 13.15-10.6 13.15-15.125 0-11.917-6.068-18.746-17.697-30.768m-39.733 97.569a12.443 12.443 0 0 0 2.232-3.145c4.317-8.288.451-17.58-1.173-20.812-12.003-19.823-34.684-31.488-58.332-29.22 24.484 1.325 48.198 23.23 57.273 53.177m-80.037-24.304c5.907 2.474 13.65 6.631 21.843 11.036 12.935 6.944 26.295 14.134 35.344 16.387 8.058 1.995 14.682 1.812 19.331-.518-.02-.087-.035-.179-.054-.264a16.364 16.364 0 0 0-.225-.988c-3.933-16.481-24.55-52.558-60.271-52.558-1.5 0-3.032.087-4.558.215-13.821 3.997-25.179 12.485-32.876 23.454 1.301-.42 3.011-.791 5.326-.791 4.362 0 9.792 1.354 16.14 4.027m-8.888 49.737c14.508 4.785 22.565 6.316 33.145 6.316 3.858 0 8.252-.22 13.829-.684 15.48-1.334 31.78-6.45 40.55-10.702a76.732 76.732 0 0 0-1.157-12.854c-2.6 1.574-5.533 2.312-9.154 2.312-3.646 0-8.045-.696-15.193-2.406-8.444-2.003-20.509-9.19-31.153-15.529-5.84-3.48-11.363-6.765-15.918-9.016-17.38-8.598-27.256-7.395-29.88-6.826-6.202 10.313-9.325 22.455-8.521 34.958 1.172 1.672 7.104 9.049 23.452 14.431m91.675-7.407c.156-.107.308-.216.445-.312 5.139-3.58 6.468-9.382 6.657-10.337a60.605 60.605 0 0 0-1.858-14.743c-.047-.2-.11-.387-.164-.582-.481 4.522-2.694 8.716-6.632 12.467 1.034 4.516 1.559 9.052 1.552 13.507m1.485 3.341l-.63.456c-.333.248-.671.499-1.042.748a54.11 54.11 0 0 1-2.113 11.447c1.931-.676 2.597.103 2.781.551.025.063.041.128.062.191a60.335 60.335 0 0 0 6.114-20.018c-.976 2.343-2.561 4.794-5.172 6.625m-2.343 15.173c-.054-.243-.105-.254-.236-.254-.184 0-.616.087-1.472.646-.151.107-.317.22-.484.327-.15.098-.294.192-.425.287a54.96 54.96 0 0 1-5.86 11.286 60.936 60.936 0 0 0 8.664-11.809h-.085l-.102-.483zm-62.685 25.779c6.979-.822 12.764-2.586 19.344-5.895.968-.474 1.904-.96 2.847-1.451.799-.415 1.598-.832 2.407-1.234a2382.9 2382.9 0 0 0 18.829-9.993c2.563-1.375 5.111-2.83 7.579-4.24l2.894-1.61c1.121-.6 2.176-1.168 3.233-1.813.098-.062.221-.138.356-.22.922-3.4 1.525-7.082 1.805-10.979-7.126 3.569-17.833 6.708-33.547 9.857-20.107 4.002-39.787 2.202-57.346-5.208-11.806-4.972-17.401-11.859-19.73-15.648a60.547 60.547 0 0 0 1.454 8.105c3.866 15.324 13.281 27.827 25.579 35.929l-.061-.103 1.736 1.024c1.398.834 3.142 1.549 5.182 2.135 3.836 1.15 7.618 1.711 11.568 1.711a50.523 50.523 0 0 0 5.871-.367m55.657-21.664c-.789.559-1.588 1.132-2.459 1.736-2.304 1.603-4.552 2.96-6.938 4.394-1.116.673-2.261 1.359-3.446 2.097-8.188 5.067-17.975 10.68-28.482 13.896-3.052.95-5.863 1.623-8.587 2.056-2.53.377-4.901.559-7.264.559l-.458-.002a50.533 50.533 0 0 1-8.997-.846 61.278 61.278 0 0 0 35.36 1.729 61.159 61.159 0 0 0 19.014-8.326c5.42-4.243 9.807-10.275 12.62-17.55-.123.085-.246.172-.363.257"/><path fill="#FFF" d="M224.608 215.478c0-4.455 0-11.079-5.264-16.215a17 17 0 0 0 1.418-3.254c.886-2.658.958-5.567.911-7.461l-.025-12.265v-.185c-.141-4.562-.834-9.381-4.553-13.565-3.352-3.769-8.385-5.751-14.563-5.751l-16.65.046c-1.81 0-3.615.707-4.937 2.03a6.983 6.983 0 0 0-2.048 4.924l.156 80.556c0 2.402 1.229 4.614 3.272 5.851a7.328 7.328 0 0 0 3.774 1.058l16.935-.025c6.114-.01 11.243-1.757 15.229-5.197l.057-.036c5.584-5.009 6.186-10.913 6.324-16.559v-.069l-.036-13.883z"/><path d="M220.292 216.025c0-4.501 0-10.006-4.693-13.902-.974-.812-2.151-1.521-3.547-2.079 2.177-1.465 3.67-3.478 4.491-6.007.743-2.25.709-5.049.687-6.145l-.041-12.802c-.112-3.543-.505-7.579-3.375-10.849-2.534-2.806-6.375-4.253-11.25-4.235l-17.36.043c-.509 0-1.003.205-1.4.586a1.866 1.866 0 0 0-.571 1.37l.148 84.057c0 .671.358 1.331.947 1.669a2.02 2.02 0 0 0 1.099.317l17.66-.048c1.879 0 7.635-.021 12.426-4.104 4.247-3.854 4.686-8.391 4.811-13.491l-.032-14.38zm-12.265 21.371c-1.239.891-2.755 1.408-6.629 1.541 0 0-6.66.016-7.162.016-.606 0-.84-.358-.84-.93 0-4.903-.069-31.916-.069-32.144 0-.248.069-.592.581-.592.497 0 3.341-.03 3.341-.03 3.523.174 7.216.436 9.612 1.961 1.39.832 2.322 2.022 2.921 3.595.533 1.616.625 3.411.625 5.08l.025 11.911c.002 5.433-.33 7.988-2.405 9.592m-5.85-41.823c-1.429.404-2.118.532-5.229.635l-3.091.01c-.53.021-.673-.235-.673-.645l-.038-25.886c0-.417.156-.666.586-.709h5.169c2.289.08 4.839.151 6.478 1.158.753.463 1.208 1.016 1.482 1.756.232.766.448 2.102.576 4.381l.03 10.029c-.03.167-.03.422-.03.755-.071 2.596-.126 6.98-5.26 8.516"/></svg>