<svg xmlns="http://www.w3.org/2000/svg" viewBox="0 0 174 174"><path fill="#26245C" d="M43.8 79.4h-12v13l-7.2 3.5 7.2 3.8v11.5l8 4.9c2.9-.4 6.6-.9 11-1.3l30.7 17.7 5.6 25.7c0-.1 5.7-25.7 5.7-25.7l30.7-17.7c4.3.5 8.1.9 11 1.3l7.9-4.9V99.7l7.2-3.7-7.2-3.6v-13h-12s1.9-1.8 4.2-5.8c1-1.7 1.9-3.8 3-6.2 8.7-2.6 15.1-8.2 17.9-13.6 7.5-13.6 13.1-30.4 13.1-30.4s-3.2 1.6-7.1 3.5c3.1-9.6 5.1-17.8 5.1-17.8s-34.4 22.8-61.3 44.2l-2.3-1.4c0-.2.1-2.1.1-2.3 0 0 .3-2.2-3.7-3.6-.3-.1-.5-.2-.7-.2 1.9-1.5 5-3.7 7.1-5.2 3.5-2.4 3.1-5.1 3.1-5.1L96.1 45c-9.8-3.2-18 0-18 0l-12.8-9.5s-.4 2.6 3.1 5.1c2.2 1.5 5.3 3.7 7.2 5.2-.2.1-.5.2-.7.2-4 1.4-3.7 3.6-3.7 3.6 0 .2.1 2.1.1 2.3L69 53.1C42.1 31.7 7.7 8.9 7.7 8.9s1.9 8.2 5.1 17.8c-4.2-2-7.1-3.5-7.1-3.5s5.6 16.8 13 30.4c2.7 5.5 9.2 11 17.9 13.6 0 0 1.5 3.4 2.7 5.8 1.6 3.1 4.5 6.4 4.5 6.4z"/><g fill="#0D89A5"><path d="M101.5 59.9c-.1.4-.3.8-.4 1.1 12.1-7.9 33.1-21.6 56.7-36.9 0 0 0 .5 2.1-5.6-24.8 15.1-46.9 32.1-58.4 41.4zm-28.8 0c-11.4-9.3-33.5-26.3-58.5-41.4 2 6 2.1 5.6 2.1 5.6C39.9 39.3 61 53.1 73.1 61c-.2-.3-.3-.7-.4-1.1zm14.4 12.2c-2-.8-7.2-3.4-10.3-10.1 2.5 2.2 5.8 2.9 8.5.4-3.2-1.4-3.6-7.1-4.2-8.6-1.3-3-3.2-4.6-4.8-5.2.8-.3 1.5-.5 2.1-.7 1.5.8 4 2.6 4.8 6.4 0 0 .3-4.2-1.8-7.2 4.1-1 8.2-.9 11.5 0-2.1 3-1.8 7.2-1.8 7.2.8-3.7 3.3-5.6 4.8-6.4.7.2 1.4.5 2.1.7-1.6.7-3.5 2.1-4.8 5.2-.6 1.5-1 7.2-4.2 8.6.8 4.2-.1 8.3-1.9 9.7zm-36.3 8s-5.9-4.2-9.3-12l2.3.7c7.7 2 22.5 4.1 22.5 4.1-7.1.2-13.2.7-16.6 1.1-.7-.9-1.6-2-1.9-2.8 0 0 .3 2.7.9 4.4.9 2.4 2.1 4.5 2.1 4.5zm74.6-4.6c.6-1.7.9-4.4.9-4.4-.3.9-1.2 1.9-1.9 2.8-3.4-.4-9.5-1-16.6-1.1 0 0 14.7-2 22.5-4.1l2.3-.7c-3.3 7.7-9.3 12-9.3 12 .2.1 1.3-2 2.1-4.5zm-56.7 41.2l-15-8.7c-1.1.1-2.1.2-3.1.3l20.9 12.1c-1.1-1.2-2-2.4-2.8-3.7zm36.8 0l15-8.7c1.1.1 2.1.2 3.1.3l-20.9 12.1c1.2-1.2 2.1-2.4 2.8-3.7zm-25.1 2.1c-6.6-1.5-9.4-4.7-9.4-4.7 1.4 2.7 3.4 5.2 5.9 6.8.1 0 2.9-.9 3.5-2.1zm-4-7.2l-1.5-1.5c-2.1.8-3.3 1.6-4 2.1 1.5 1.4 4.3 3.2 9.3 4.3-.5-1.5-2.1-3.1-3.8-4.9z"/><path d="M87 127.3c-2.2 0-3.8.9-4.3 1.1-.6-1.1-1.2-2-1.8-3 1.9.2 3.5-.1 3.5-.1-.8-.3-2.8-1-5.6-2.7.2-.1.5-.2.7-.3.7-.4 1.5-.8 1.9-1.4.7-.7 1.2-1.6 1.2-2.6 0-3.3-2.2-4.4-4.7-6.8-.5-.5-1.1-1-1.6-1.6 2.2-.6 5.4-1.1 9.6-1.2l1 13.9h.1l1.1-13.9c4.2.1 7.3.6 9.6 1.2-.6.5-1.1 1.1-1.6 1.6-2.5 2.4-4.7 3.6-4.7 6.8 0 1.1.5 1.9 1.2 2.6.6.6 1.3 1.1 1.9 1.4.2.1.5.2.7.3-2.7 1.8-4.8 2.4-5.6 2.7 0 0 1.7.4 3.5.1-.6 1-1.3 1.9-1.8 3-.5-.2-2-1.1-4.3-1.1z"/><path d="M97.3 120.9c2.5-1.8 4.6-4.1 5.9-6.8 0 0-2.7 3.3-9.4 4.7.6 1.2 3.5 2.1 3.5 2.1zm-3.4-4.3c5.1-1.1 7.8-2.9 9.3-4.3-.6-.6-1.9-1.4-4-2.1l-1.5 1.5c-1.6 1.7-3.2 3.3-3.8 4.9z"/></g><path fill="#FFF" d="M82.6 62.7s-2.4-1.6-2.8-5.1c0 0-3.2 5.4 2.8 5.1zm9.2 0s2.4-1.6 2.8-5.1c0 0 3.1 5.4-2.8 5.1zM90 132.4c-.4-.5-1.1-1-3-1s-2.4.5-3 .9l3.1 12.4 2.9-12.3zm20.7-54.3v4.5h-1.6v-4.5h-1.3v-1.4h4V78l-1.1.1zm-7.1 0v4.5H102v-4.5h-1.3v-1.4h4.1V78l-1.2.1zm-21.4 2.5h.6v-3.1l-.7-.7h-3.9v5.8h1.5v-2h1.1l.9 2h1.5l-1-2zm-.8-1.4h-1.7V78h1.7v1.2zm38.1-1.1v-1.4h-4.3v5.9h4.3v-1.3h-2.9v-.9h2.9V79h-2.9v-.9zm-31.6 3.2v-4.6h-1.5v5.9H90v-1.3zm8.9-4.6h-3.9v5.2l.7.7h3.9v-5.2l-.7-.7zm-.8 4.6h-1.7v-3.2H96v3.2zm-21.2 1.3v-5.2l-.7-.7h-3.9v5.8h1.5v-1.9h1.7v1.9h1.4zm-3.1-3.2V78h1.7v1.4h-1.7zm-6.1-2.7v2.7h-1.7v-2.7h-1.4v5.9h1.4v-1.9h1.7v1.9H67v-5.9zM153 35.4c2.8-6.6 5-11.4 5-11.4-23.6 15.3-44.6 29-56.7 36.9-.5 1.3-1 2.4-1.6 3.5l47.6-25.9-37.1 26.8 1.8-.3 19.6-1.9s13.3-1.3 20.7-11.2c3.5-5.4 9.4-20.9 9.4-20.9l-8.7 4.4zM39.4 97.5l4.6-1.9v10.3c1.3-.2 2.6-.4 4-.5V82.6h-4v8.2l-4.6 1.9V82.6h-4v11.8s-3.3 1.6-3.3 1.7l3.3 1.7v9.6c1.3-.2 2.6-.5 4-.7v-9.2zm31.3-.1c1 0 1.9-.1 3-.1.8 1.9 1.5 4.1 2.2 6 1.4 0 2.6-.1 4-.1-.8-1.9-1.5-4.1-2.2-6h1.6v-9.4L77.5 86H65.2l1.6 1.9v15.8c1.4-.1 2.6-.1 4-.2v-6.1zm0-7.6h4.6v3.6c-1.6 0-3 0-4.6.1v-3.7zm15.7 0H91v13.4c1.4 0 2.8 0 4.2.1V88l-1.9-1.9H80.8l1.6 1.9v15.3h4.1c-.1-.1-.1-13.5-.1-13.5zm23.9 10.2c-2.6-.1-5.2-.3-7.8-.4v-2.8l7.8.3v-4c-2.6-.1-5.2-.1-7.8-.2v-3h7.8v-3.7H96.8l1.5 1.9v15.4c4.1.1 8.2.3 12.1.6V100zm10.2-10.2h3.5v-3.7h-11.4v3.7h3.5v14.5c1.5.1 2.9.2 4.4.4V89.8zM63.7 88l-1.9-1.9H49.5l1.5 1.8v15l1.6 1.9c3.5-.4 7.3-.7 11.1-.9V88zm-4.1 12.2c-1.6.1-3 .2-4.6.3V89.8h4.6v10.4zm78.9-2.6c1.3-.6 2.5-1.2 3.7-1.8-4-1.9-8-3.5-12.1-5.1v-4.6h4.3v1.7h4.1v-5.3h-13.8l1.6 1.8v9.5l8.3 3.6v5.3s-1.9-.2-4.3-.6v-1.7l-4-.5v5.4c4.4.5 8.5 1.1 12.3 1.8-.1-2.9-.1-7.3-.1-9.5zM57.8 80.7v.6h-1.4v-3.2h1.4v.4h1.4v-1.8h-4.3v5.2l.7.7h3.6v-1.9zM21.3 35.4c-2.9-6.6-5-11.3-5-11.3C39.9 39.4 60.9 53.1 73 61c.5 1.3 1 2.4 1.6 3.5L27.1 38.6l37.1 26.8-1.8-.3-19.6-1.9S29.5 61.9 22.1 52c-3.5-5.4-9.4-20.9-9.4-20.9l8.6 4.3z"/><path fill="#9B9B9F" d="M167.7 30.8c-3.8 10-8.8 20.5-11.3 24.8-4.2 7.2-12.6 11.5-17.5 13.2 0 0-2.4 5.8-4.9 9h10v13.6l9.6 4.6-9.6 4.8v11.5l-9.3 5.7s-7.4-.9-11-1.3l-29.4 17C88.5 160.3 87 168 87 168s-1.4-7.3-7.3-34.3l-29.4-17c-3.6.4-11 1.3-11 1.3l-9.3-5.7v-11.5L20.4 96l9.6-4.6V77.7h10c-2.4-3-4.9-9-4.9-9-2.9-1-5.8-2.3-8.3-3.9-4-2.5-7.2-5.8-9.3-9.2-3.7-7.1-8.5-17.7-11-24.8-1.7-4.3-3.8-10.9-3.8-10.9s5.5 2.6 7.1 3.4C7.2 15.4 4.9 5 4.9 5s37.6 24.8 64 45.9l.4-.3v-1.4c0-.3 0-.8.2-1.5.3-.9 1-1.9 2.5-2.9-1.9-1.5-5.5-3.8-5.8-4.2-2.5-2.2-3-4.7-2.8-5.9l.4-2.8 14.3 10.6c7.8-2.2 13.3-1.2 17.4 0l14.3-10.6.4 2.8c.2 1.3-.2 3.7-2.8 5.9-.3.3-3.8 2.7-5.8 4.2 1.6 1 2.2 2 2.5 2.9.2.7.2 1.2.2 1.5v1.4l.4.3c27-21.6 64-45.9 64-45.9s-1.9 8.6-4.9 18.3c1.5-.7 7.1-3.4 7.1-3.4-1 5.3-3.2 10.9-3.2 10.9zM43.8 79.4h-12v13l-7.2 3.5 7.2 3.8v11.5l8 4.9c2.9-.4 6.6-.9 11-1.3l30.7 17.7 5.6 25.7c0-.1 5.7-25.7 5.7-25.7l30.7-17.7c4.3.5 8.1.9 11 1.3l7.9-4.9V99.7l7.2-3.7-7.2-3.6v-13h-12s1.9-1.8 4.2-5.8c1-1.7 1.9-3.8 3-6.2 8.7-2.6 15.1-8.2 17.9-13.6 7.5-13.6 13.1-30.4 13.1-30.4s-3.2 1.6-7.1 3.5c3.1-9.6 5.1-17.8 5.1-17.8s-34.4 22.8-61.3 44.2l-2.3-1.4c0-.2.1-2.1.1-2.3 0 0 .3-2.2-3.7-3.6-.3-.1-.5-.2-.7-.2 1.9-1.5 5-3.7 7.1-5.2 3.5-2.4 3.1-5.1 3.1-5.1L96.1 45c-9.8-3.2-18 0-18 0l-12.8-9.5s-.4 2.6 3.1 5.1c2.2 1.5 5.3 3.7 7.2 5.2-.2.1-.5.2-.7.2-4 1.4-3.7 3.6-3.7 3.6 0 .2.1 2.1.1 2.3L69 53.1C42.1 31.7 7.7 8.9 7.7 8.9s1.9 8.2 5.1 17.8c-4.2-2-7.1-3.5-7.1-3.5s5.6 16.8 13 30.4c2.7 5.5 9.2 11 17.9 13.6 0 0 1.5 3.4 2.7 5.8 1.6 3.1 4.5 6.4 4.5 6.4z"/></svg>