<svg id="Layer_1" xmlns="http://www.w3.org/2000/svg" viewBox="0 0 400 400"><style>.st0{fill:#ffb81c}.st1{fill:#6f263d}.st2{fill:#041e42}</style><path class="st0" d="M192.3 362.2c-1.1-.6-27.2-15.8-53.3-46.5-24.2-28.4-52.9-76.2-52.9-142.4v-15c.1-13.8.6-40.7 1.7-58.7.2-3.7.5-6.9.7-9.4l.6-5.8 4.6-3.6c4.4-3.4 10-6.9 16.9-10.4 4.8-2.5 10.3-5 16.3-7.6 30.9-14.7 68.1-27.6 68.5-27.7l3.6-1.3 3.6 1.2c.4.1 42.1 14.4 73.9 30.1 7.9 3.5 14.7 7 20.2 10.4 2.9 1.8 5.4 3.5 7.6 5.2l4.6 3.6.6 5.8c.1 1.2.2 2.6.4 4.2 1.3 17.1 2 48.3 2.1 63.9v15.1c0 66.2-28.8 114-52.9 142.4-26.2 30.8-52.2 45.8-53.3 46.5L199 366l-6.7-3.8z"/><path class="st1" d="M199 36.1l1.1.4 1.8.6c.4.1 42.2 14.5 73.6 30 7.9 3.5 14.6 7 20 10.3 2.8 1.7 5.3 3.4 7.5 5.1l2.7 2.1 1.2.9.1 1.5.3 3.4c.1 1.2.2 2.5.4 4.1 1.3 17 2 48.1 2.1 63.8v15c0 65.6-28.5 112.9-52.4 141-25.8 30.4-51.7 45.4-52.7 46l-3.9 2.2-1.7 1-1.7-1-3.9-2.2c-1.1-.6-26.9-15.6-52.7-46-23.9-28.1-52.4-75.5-52.4-141v-15.1c.1-13.8.6-40.7 1.7-58.6.2-3.7.5-6.8.7-9.3L91 87l.2-1.5 1.2-.9 2.7-2.1c4.3-3.3 9.8-6.7 16.5-10.2 4.7-2.4 10.2-5 16.2-7.5 30.8-14.6 67.9-27.5 68.3-27.7l1.8-.6 1.1-.4m0-4.5l-1.4.5-1.1.4-1.8.6c-.3.1-37.9 13.2-68.7 27.8-5.9 2.5-11.5 5.1-16.3 7.6-6.9 3.6-12.7 7.1-17.2 10.6l-2.7 2.1-1.2.9-1.4 1.1L87 85l-.2 1.5-.3 3.4c-.3 2.6-.5 5.8-.7 9.5-1.1 18-1.6 45-1.7 58.8v15c0 66.9 29.1 115.1 53.4 143.8 26.3 31 52.8 46.3 53.9 46.9l3.9 2.2 1.7 1 2.1 1.2 2.1-1.2 1.7-1 3.9-2.2c1.1-.6 27.5-15.9 53.9-46.9 24.4-28.7 53.4-76.9 53.4-143.8v-15c-.1-15.7-.8-47-2.1-64.1-.1-1.6-.3-3-.4-4.2l-.3-3.4-.2-1.5-.2-1.8-1.4-1.1-1.2-.9-2.7-2.1c-2.3-1.8-4.9-3.6-7.8-5.4-5.6-3.4-12.5-7-20.5-10.6-31.3-15.4-72.2-29.5-74-30.1l-1.8-.6-1.1-.4-1.4-.4z"/><path d="M306.2 163.8v9.5c0 64.5-28.1 111.1-51.6 138.8-25.5 30-50.8 44.6-51.8 45.2l-3.9 2.2-3.9-2.2c-1.1-.6-26.4-15.3-51.8-45.2-23.5-27.7-51.6-74.3-51.6-138.8v-14.9c.1-13.7.6-40.6 1.7-58.4.2-3.6.5-6.7.7-9.2l.3-3.4 2.7-2.1c4.1-3.2 9.5-6.5 16-9.9 4.7-2.4 10.1-4.9 16-7.5 30.5-14.5 67.7-27.4 68-27.6l1.8-.6 1.8.6c.4.1 41.9 14.4 73.2 29.8 7.7 3.5 14.4 6.9 19.7 10.1 2.7 1.6 5.1 3.3 7.1 4.9l2.7 2.1.3 3.4c.1 1.2.2 2.6.4 4.1 1.3 16.9 2 47.9 2.1 63.5v5.6h.1z"/><path class="st0" d="M187.3 221c1-1.1 2.2-2.2 3.4-3.3l-.1 14.5-.2 20.5c-12.1 3.7-17.8 4.3-21.9 3.3l-.5-.2c-1.2-.5-1.4-1.5-1.4-1.8-.3-8 13.7-25.4 20.7-33m24.8 3.1c-.2.4 44.5-25.7 44.5-25.7v-8.9l-2.2-2.2c-12-11.4-29.9-11.5-48-6.6V87.6c0-6.1.1-12-.4-17.4-.5-5.5-1.6-10.9-4-15.8l-3-6.2-2.9 6.3c-2.4 5.3-3.5 10.8-4.1 16.4-.5 5.5-.5 11.4-.6 17.5L191 186c-18.7 7.7-35.9 18.9-45 26.5l-10.1 15.6 12.5-3.1c-19.2 24.1-12.4 39.9-11.6 41.6 2 5.7 6.7 10.2 14.1 13.2 5.7 2.3 12.1 2.6 17.7 2.3 6.9-.3 14.2-1.9 21.5-4.2v3.1c-6.3 3.4-11.3 9.4-14 16.6-1 2.8-1.7 5.8-1.8 8.9 0 .5 0 2.2-.2 4.6-.2 2.2-.5 5-1.3 7.7l-.5 1.6-1.6 3.9c.2.7 4.6-.8 6.6-1.6.3-.1.8-.3 1.4-.6 1.1-.6 2.5-1.6 4.2-3.2 1-1 2-2.1 2.7-3.2.8-1 1.4-2 2.1-2.9.9-1.2 1.7-2.4 2.5-3.6l.1 10.4v8.7c-.3.4-.7 1-1.1 1.7-.9 1.7-3.2 7.2-3.4 10.3-.1.7 2.1.6 5.3.5.4 0 1.1-.1 1.8-.2 1.5-.2 3.4-.6 5.4-1.2 3.6-1.1 9.3-3.7 10.1-9.4l.3-2.1-.6-.4c7.6-6.7 9.7-14 9.4-20-.1-2.1-.5-4-.9-5.6l2.7.5 3.2.6.6-3.2c1.9-11-4.3-20.2-16.8-22v-6.4c12.2-5.8 23.7-13.4 32.7-21.3l.4-.4 3.6-18.3-7.1 3.9c-11.4 5-21.8 9-29.7 11.8v-41.4c2.2-1.3 4.4-2.4 6.5-3.3 5.8-2.5 9.6-3.4 11.4-3.2-.5 1.5-1.3 3.4-2.4 5.6.1.2-9.2 18.6-9.6 19.3"/><path class="st2" d="M253.9 197l-.1-5.8-29.3 17.9c-.2.5-4 7.9-4.4 8.3l33.8-20.4zm-110.1 26.1c3.2-.8 6.8-1.7 10.4-2.5 2-2.4 4-4.5 5.8-6.3-3.7.8-7.7 1.8-11.7 2.7-.7 1-4 5.5-4.5 6.1m59.6 41.2c-1.5.7-3.1 1.4-4.6 2.1-1 .4-2 .9-2.9 1.3-.7.3-1.4.5-2 .8-9.3 3.6-18.6 6-27.3 6.4-5.4.2-11.3-.1-16.3-2.1-4.6-1.8-7.9-4.3-10-7 1.6 4.6 5.4 8.6 12.3 11.4 5 2 10.9 2.3 16.3 2.1 8-.4 16.5-2.4 25-5.5.7-.2 1.4-.5 2-.7 1-.4 2-.8 2.9-1.2 1.5-.6 3.1-1.3 4.6-2 12.6-5.8 24.5-13.6 33.9-21.7l1.7-8c-9.3 8.7-22 17.5-35.6 24.1"/><path class="st1" d="M203.4 196.4c14-7.7 32.9-11.7 21.6 10.3l27.4-16.8c-11.8-11.2-30.4-10.4-49-4.6v11.1zm0 55.8c-1.7.6-3.2 1.1-4.6 1.6-1.1.4-2.1.7-2.9 1-.8.3-1.5.5-2 .6-.7.2-1.1.3-1.1.3-51.5 16-35-17.4-11.5-42.5 2-2.2 7.3-7.1 13-11.3l.1-13.5c-18.6 7.3-36.3 18.6-46 26.6 5.9-1.6 11.9-2.9 17.8-4.3-51.1 48.9-21.5 74.7 27.5 55.1.7-.3 1.3-.6 2-.9 1-.4 1.9-.8 2.9-1.3 1.5-.7 3.1-1.4 4.6-2.2 11-5.4 22.6-13 34.3-22.9-13.6 6.3-25.9 10.9-34.1 13.7"/><path class="st2" d="M209.6 195.5c-1.9.8-3.9 1.8-6.2 3.2V87.8c.1-12 .3-22.9-4-31.7-4.4 9.7-4.3 20.6-4.4 32.6l-.5 99.8-.1 13.5v2.6c-4.3 3.2-8.3 6.8-11.5 10.2-6.6 7.1-21.9 25.7-21.6 35.4.1 2.5 1 4.3 2.4 5.5-.1-.4-.1-.8-.1-1.2-.2-9.7 15-28.3 21.7-35.4 2.6-2.8 5.7-5.6 9.1-8.3l-.2 19-.2 22.2c.5-.2 1.2-.4 2-.6l.1-23.2.1-18.8v-8.6l.1-12.8.2-32.9.1-82.5c.5.9 2.3 4.4 2.4 17l-.1 97.5v38.8l-.1 24.5c1.4-.5 2.9-1 4.6-1.6v-44.4c3.2-1.9 5.9-3.4 8.5-4.5 6.1-2.6 11.3-4.2 14.1-3.3.5-6.8-6.9-5.1-16.4-1.1"/><path class="st0" d="M198.8 225.8h.1zm0 0h.1z"/><path class="st2" d="M217.8 296.7c-10.9-3-23.7-.3-29.5 6.7-2.4 2.9-4.6 7.2-8.8 11.5.9-5.3.9-7 1-8.9.7-8.4 5.1-15.5 13.9-19.8 0 .3.1.7.3 1 .4.6 1 1 1.9 1.2.8.1-.5-.2 0 0 .1 0 .3.1.4.1h1.5c.1 0 .3 0 .4-.1h.1c.1 0 .3 0 .4-.1.3-.1.5-.2.8-.3.9-.3 1.7-.8 2-1.4.1-.1.2-.3.2-.4 3.2.7 5.9 2.3 7.1 4.2-5.7-.3-13.9 1.6-20.7 9.5 9.4-7.4 20.1-7.5 27-5.7.2-4.1-5.4-8.5-8.5-10.2 5.6 2 11.6 6.9 10.5 12.7m-8.9 23.1c2.9-6.1 3.7-16.7-2.9-21.5h2.3c6.6 5.4 3.6 19.1.6 21.5m-7.5 5.6c6.1-14.6 1.6-25.5 1.7-25.7 7.5 1.1 10 17.4-1.7 25.7m-3.3 3c0 1.2-2.5 1.2-2.5.3l.1-28.1c.2-.2 1.9-1 2.6-1.1l-.2 28.9zm5.3-47.3v-7.8c-1.5.7-3.1 1.3-4.6 2v8.1c0 1.9-3.1 2.2-3 .8v-7.7c-.7.3-1.4.5-2.1.7l-.1 6.1-.4.3c-6.1 2.9-11.2 8.5-13.7 15.2 0 .1-.1.2-.1.3-.9 2.5-1.5 5.2-1.6 7.9-.1 1 .1 7-1.7 13 0 0 1.6-.2 4.7-3.2 1.7-1.6 3.2-4 4.5-5.6 2.8-3.9 5.1-7.8 8.4-9.5v3.5c0 6.6.1 24.5.1 24.6s-2.8 3.1-3.2 8.2c0 .2 13.9-.8 14.8-8 0 0-2.7-1.8-2.6-1.8 19.5-13.6 8.7-29.8 8.7-29.8 4.7.7 7.4 1.1 8.6 1.4 1.8-10-4.1-18.1-16.7-18.7"/><path d="M301.7 191.3s-86.3-49.1-206.5 0c-.7-10.9 7.2-104 7.2-104h195.5l3.8 104z"/><path d="M264.4 121.9h-12.7c.2 1.1.3 1.7.5 2.8v14c0 9.3 0 18.6.1 28 2.6.2 4 .3 6.6.6.4 0 .6.1.9.1v-18c.8-.5 1.2-.7 2-1.2 1.9 2.9 2.8 4.4 4.7 7.3V168c3 .3 4.5.5 7.5.8v-15.6c-2.1-2.9-4.1-5.8-6.2-8.7 2.5-1.6 3.7-2.4 6.2-4v-11.7c-2.6-2.8-4-4.1-6.6-6.8h-3v-.1zm-4.7 17.9v-10.3h.9c1.9 0 2.8 0 4.7.1.4.4.6.6.9 1v6.8c-2.6 1.8-3.9 2.7-6.6 4.5.1-.9.1-1.3.1-2.1m-10.8-10.5v-7.4h-17.5c.2 1.1.3 1.6.5 2.7 0 13.6.1 27.1.1 40.7 5.7.3 11.3.7 17 1.1V159c-3.8-.2-5.7-.3-9.4-.5v-13.2c3 .1 4.5.2 7.5.3v-6.5c-3-.1-4.5-.1-7.5-.2v-9.6c3.6-.1 5.5-.1 9.3 0m-29.7-7.4c.2 1.1.3 1.6.5 2.7v40.3c3 .1 4.5.1 7.5.3v-40.5c.2-1.1.3-1.6.4-2.7h-8.4v-.1zm-69.8 44.6c-2.2-14.9-4.4-29.7-6.5-44.6h-12.3c.2 1.2.3 1.7.5 2.9-2.1 14.7-4.2 29.4-6.2 44.1 3-.3 4.5-.5 7.5-.8.5-3.7.7-5.5 1.2-9.2 1.4-.1 2.1-.2 3.6-.3 1.4-.1 2.1-.2 3.6-.3.4 3.6.7 5.3 1.1 8.9 3-.4 4.5-.5 7.5-.7M134.6 151c.9-7 1.8-14.1 2.7-21.1.9 6.9 1.7 13.9 2.6 20.8-2.2.1-3.2.2-5.3.3m60.1 13.5c-2.2-14.2-4.4-28.4-6.6-42.7h-12.3c.2 1.1.3 1.6.5 2.7-2.1 13.5-4.1 27.1-6.2 40.6 3-.1 4.5-.2 7.5-.3.5-3.4.7-5.1 1.1-8.5 1.4 0 2.1-.1 3.6-.1 1.4 0 2.1 0 3.6-.1.5 3.4.7 5.1 1.1 8.4 3.2.1 4.7 0 7.7 0m-14.9-15.3c.9-6.6 1.8-13.1 2.6-19.7.9 6.5 1.7 13.1 2.6 19.6-2 0-3.1 0-5.2.1m-15.2-27.3c-1.6 12-3.2 24.1-4.8 36.1-1.6-12-3.1-24.1-4.6-36.1h-7.5c1.8 12.9 3.5 25.9 5.3 38.8 1.7 2.1 2.5 3.2 4.2 5.2 3.3-.2 5-.3 8.3-.5 2.2-14.5 4.4-29 6.7-43.6h-7.6v.1zm-42 11.8v-4.9c-2.6-2.7-3.9-4.1-6.6-6.9h-8c-2.6 2.9-4 4.3-6.6 7.3V172c2.6 2.5 3.9 3.8 6.6 6.2 3.2-.5 4.8-.8 8-1.2 2.6-3.2 3.9-4.8 6.6-7.8v-13.9c-2.5 2.8-5.1 5.7-7.5 8.6v4.2c-.4.4-.6.7-.9 1.1-1.7.2-2.5.3-4.2.6-.4-.4-.6-.5-.9-.9v-37.8c.4-.4.6-.6.9-1 1.7 0 2.5-.1 4.2-.1.4.4.6.6.9 1v11c2.5-2.8 5-5.6 7.5-8.3m175.7 8.9v-13.4c-2.6-3-4-4.4-6.6-7.3h-8.5c-2.6 2.8-3.9 4.2-6.6 6.9V143c4.8 4.3 9.5 8.6 14.1 13.1v12.8c-.4.4-.6.5-.9.9-1.9-.3-2.8-.4-4.7-.6-.4-.5-.6-.7-.9-1.1v-7.2l-7.5-5.6v13.9s4 4.6 6.6 7.8c2.3.3 3.4.5 5.6.9 1.1.2 1.7.3 2.8.5 2.6-2.4 3.9-3.7 6.6-6.2v-19.3c-4.6-4.5-9.3-8.9-14.1-13.3v-8.5c.4-.4.6-.6.9-1 1.9 0 2.8.1 4.7.1.4.4.6.6.9 1v5.9s4.6 3.2 7.6 5.5m-101.7-20.7c.4.9.6 1.3.9 2.2v40.5c5.8 0 11.6.1 17.5.2.6-2.8.8-4.3 1.4-7.1-3.8-.1-7.6-.1-11.3-.2v-33.4c.4-.9.6-1.3.9-2.2h-9.4zm52.9-26l-3.1-3.1h-7.1V114h7.3l2.9-2.9V95.9zm-3.6 14.2l-.4.4h-2.7V96.4h2.6l.4.4v13.3h.1zm-65.8-13.7v-3.5H172l.2 1.3V114h7.9v-3.5h-4.4v-6.4h3.6V101h-3.6v-4.6zm23 17.6v-3.5h-4.4v-6.4h3.5V101h-3.5v-4.6h4.4v-3.5h-8.2l.3 1.3V114zm1.8-11.4V114h8.1l.7-3.5h-5.3V94.2l.2-1.3h-4l.3 1.3v7zm-43.1 0V114h8.2l.6-3.5h-5.3V94.2l.2-1.3h-3.9l.2 1.3v7zm57.1 7.3h3.4l.5 4.2h3.5l-3.1-21.2h-5.7l.2 1.3-2.9 19.9h3.5l.6-4.2zm1.7-13.3l1.2 9.7h-2.5l1.3-9.7zm-35.4-3.7h-3.5l2.5 18.5 2 2.6h3.9l3.1-21.1h-3.6l-2.2 17.4zm46 9.7l3.3 11.4h3.3V92.9h-3.6l.1 10.8-3.4-10.8h-3.5l.2 1.3V114h3.6zm-71-4.5v-2.2l-3.1-3.1h-3.7l-3.1 3.1V111l3.1 3h3.7l3.1-3v-5.7l-3.5 3.6v1.2l-.4.4h-2l-.5-.4V96.8l.5-.4h2l.4.4v4.9z" fill="#fff"/></svg>