<svg xmlns="http://www.w3.org/2000/svg" xmlns:xlink="http://www.w3.org/1999/xlink" width="400" height="400"><path fill="#FFF" d="M363.62 201.814c1.932-4.779 9.341-23.089 9.341-23.089l-31.111 17.396c-.111.064-9.214 5.104-22.429 10.798 6.624-16.563 12.486-33.403 18.263-55.493 10.994-42.01 16.888-88.315 17.137-90.264l2.334-18.67-64.273 17.825C272.064 35.108 240 20.119 206.318 20.119c-33.822 0-65.967 15.08-86.779 40.46a720259.96 720259.96 0 0 0-64.612-18.087l2.421 18.78c.062.477 6.26 47.956 17.793 90.701 5.609 20.797 11.851 37.62 18.346 53.62-14.056-5.945-25.831-11.545-25.979-11.616l-28.867-13.804s6.9 17.385 8.846 22.294c-.375-.149-10.466-4.002-10.466-4.002l9.673 26.035-.017-.052c.655 1.9 4.761 12.973 35.968 97.148l4.293 11.573s6.992-2.224 9.053-2.872c1.721 4.664 6.213 16.823 6.213 16.823l12.586-6.489c9.605-4.929 30.203-13.28 46.868-15.979 19.81 27.181 35.288 41.275 35.955 41.888l8.554 7.702 8.408-7.859c.68-.641 16.316-15.391 35.696-41.717 18.586 2.48 34.475 9.983 42.491 14.413l12.286 6.791 5.363-12.973 1.369-3.326c1.031.356 6.981 2.377 6.981 2.377l4.55-11.578c.869-2.227 20.77-48.964 39.979-93.989l12.809-30.025c.002 0-12.43 5.438-12.479 5.458"/><path fill="#2E2A25" d="M344.371 200.635c-.186.096-14.908 8.27-34.395 15.7 8.794-20.903 15.739-39.562 22.711-66.216 10.998-42.044 16.943-89.132 17.005-89.601l1.372-10.977-10.657 2.953S209.192 88.891 205.346 89.959C201.5 88.881 61.05 49.571 61.05 49.571l1.421 11.042c.06.466 6.187 47.507 17.657 90.016 6.941 25.722 14.963 45.576 22.851 64.434-18.745-7.395-37.462-16.312-37.7-16.427l-16.973-8.117 6.939 17.488c16.685 42.045 25.175 65.118 35.925 94.325l13.858 37.523 7.395-3.818c11.043-5.668 33.904-14.771 51.579-16.942 20.335 28.378 36.372 42.979 37.072 43.608l5.027 4.526 4.943-4.625c.712-.668 17.043-16.076 36.893-43.484 20.604 2.117 38.307 10.452 47.326 15.437l7.223 3.999 3.155-7.635c8.208-19.837 48.753-120.079 49.166-121.091l7.854-19.43-18.29 10.235z"/><path fill="#FFF" d="M359.161 205.534c-.344.145-32.816 13.964-59.37 20.57 10.357-23.914 19.395-45.407 27.737-77.301 10.915-41.716 16.822-88.463 16.879-88.933l.404-3.226-3.134.868-136.46 37.847c-1.154-.321-138.125-38.662-138.125-38.662l.419 3.249c.057.469 6.141 47.158 17.52 89.327 7.454 27.627 16.211 48.501 24.683 68.691 0 0 1.485 3.565 2.793 6.688-22.965-5.814-54.094-16.731-54.425-16.847l-4.383-1.541 1.633 4.349c13.646 36.303 20.631 55.8 28.024 76.439l14.998 41.538 1.975-.62c21.188-6.597 48.572-11.821 65.749-14.019 19.785 28.648 38.204 44.746 38.392 44.911l1.45 1.256 1.423-1.283c.174-.167 17.693-16.145 38.049-44.666 17.65 1.175 50.493 8.604 62.972 13.536l1.983.791.818-1.97c8.193-19.8 50.415-117.154 50.835-118.137l2.175-5.003-5.014 2.148z"/><path fill="#8E9090" d="M292.389 232.273l1.697-3.915c11.467-26.437 20.529-47.318 29.25-80.655 9.188-35.133 14.81-73.88 16.342-85.132a1174753.4 1174753.4 0 0 0-133.883 37.132l-.585.163S78.322 64.345 72.26 62.651c1.583 11.28 7.384 50.003 16.957 85.49 7.379 27.345 16.083 48.09 24.497 68.145l6.082 14.578 48.353 78.461.741 1.089c16.605 24.269 32.286 39.517 36.969 43.854 4.541-4.363 19.638-19.5 36.712-43.606l.691-.972 49.127-77.417z"/><path fill="#2E2A25" d="M224.807 315.35l10.039-2.435-10.287-.975c-.445-.043-9.985-.935-14.711-.905l-4.612-14.179-1.721 4.743c-.106.289-2.232 6.188-3.341 9.492-5.508-.04-12.864.731-13.204.766l-10.727 1.151 10.545 2.272c3.176.687 9.719 2.974 10.398 5.773-.831 3.271-3.073 9.034-3.098 9.092l-2.091 5.354s11.528-8.082 13.117-9.2l12.831 8.996s-4.653-13.292-5.04-14.403c1.007-1.834 6.734-4.282 11.902-5.542"/><path fill="none" stroke="#2E2A25" stroke-width=".161" stroke-linejoin="round" d="M224.807 315.35l10.039-2.435-10.287-.975c-.445-.043-9.985-.935-14.711-.905l-4.612-14.179-1.721 4.743c-.106.289-2.232 6.188-3.341 9.492-5.508-.04-12.864.731-13.204.766l-10.727 1.151 10.545 2.272c3.176.687 9.719 2.974 10.398 5.773-.831 3.271-3.073 9.034-3.098 9.092l-2.091 5.354s11.528-8.082 13.117-9.2l12.831 8.996s-4.653-13.292-5.04-14.403c1.007-1.834 6.734-4.282 11.902-5.542z"/><defs><path id="a" d="M205.795 99.703l-.582.159S78.323 64.345 72.261 62.652c1.581 11.278 7.381 50.004 16.957 85.492 7.376 27.342 16.079 48.087 24.496 68.142l6.083 14.578-4.135-.972c-18.53-4.357-44.481-13.016-54.651-16.489 12.591 33.566 19.332 52.37 26.429 72.189 0 0 12.329 34.146 13.583 37.64 21.683-6.557 49.069-11.692 65.81-13.746l1.312-.161.743 1.09c16.605 24.268 32.289 39.518 36.972 43.854 4.541-4.358 19.638-19.495 36.715-43.604l.688-.975 1.194.064c17.205.914 49.053 7.959 63.506 13.181 8.503-20.333 39.51-91.931 47.932-111.359-10.889 4.433-37.766 14.937-59.353 19.764l-4.152.934 1.695-3.914c11.469-26.439 20.528-47.318 29.252-80.657 9.188-35.133 14.811-73.878 16.34-85.132-6.031 1.668-133.882 37.132-133.882 37.132"/></defs><clipPath id="b"><use xlink:href="#a" overflow="visible"/></clipPath><path clip-path="url(#b)" fill="none" stroke="#2E2A25" stroke-width=".161" d="M311.197 124.837c0-54.894-47.05-99.55-104.879-99.55-57.833 0-104.881 44.657-104.881 99.55a94.558 94.558 0 0 0 5.916 32.98c-.361 15.665 5.568 25.074 6.838 26.894 13.11 38.155 50.079 65.645 93.642 65.645 33.232 0 62.632-15.997 80.528-40.529l-.006.003c.506-.802.76-2.429.76-2.429.021-.534.427-.784.427-.784 1.38-.742 1.852-1.247 1.92-1.326 9.569-14.818 15.108-32.359 15.108-51.159v-.018a94.576 94.576 0 0 0 4.627-29.277z"/><path fill="#003DA6" d="M348.257 214.171c-.663.291-66.964 28.89-142.931 28.56-66.884-.29-142.711-28.958-143.474-29.248l-16.016-6.117 5.7 15.335c.109.416.109.416 35.951 97.094l2.582 6.959 7.077-2.24c15.783-5.015 57.904-16.671 107.9-16.671 46.452 0 87.025 9.578 103.676 15.233l7.037 2.392 2.743-6.984c1.003-2.558 24.492-57.691 40.033-94.126l7.7-18.047-17.978 7.86z"/><path fill="#FFF" d="M348.988 223.55l-6.764 2.474s-14.944 5.464-15.062 5.505c-.702.215-6.127 1.956-10.396 5.535-1.473 1.23-2.968 3.003-4.293 4.838.269-.741.426-1.179.437-1.215l2.015-5.582-5.73 1.528-13.624 3.628v.006c-1.304.281-10.518 2.305-13.31 2.912l-3.139.524-15.941 2.675c-.678.106-6.84 1.187-10.066 4.434a14.4 14.4 0 0 0-1.873 2.353l.906-5.371-4.026.383-12.884 1.216-.426 3.337a6.754 6.754 0 0 0-1.175-1.157c-2.45-1.89-6.496-1.844-7.677-1.785l-18.883.497v.019l-15.251-.098c-.628.017-5.417.215-8.72 3.341a8.891 8.891 0 0 0-1.312 1.594l-.114-2.894-.109-2.72s-15.412-1.396-15.977-1.449l-.003-.008-18.624-2.383.835 4.229.215 1.099c-4.25-4.933-10.892-6.685-11.201-6.763l-19.17-4.342 1.232 4.906.918 3.653c-.553-.979-1.144-1.896-1.763-2.688-2.789-3.556-5.179-6.217-10.539-8.17-4.686-1.703-14.272-3.957-14.679-4.057l-5.433-1.274.013.036c-4.918-2.132-15.746-5.688-19.424-6.883l-6.091-1.972 2.221 6 31.557 85.33s12.395-3.43 13.038-3.612c0 .006.005.025.005.025s12.97-3.101 13.914-3.325c.658-.115 13.602-2.445 13.602-2.445l-.02-.081c3.595-.547 10.857-1.664 11.578-1.771.588-.086 6.875-.985 10.343-1.484v.026s13.09-1.355 13.147-1.362c1.389-.092 5.662-.517 7.928-2.329a10.54 10.54 0 0 0 2.035-2.124l.192 3.587 15.44-.502.107-.009c.475-.049 4.736-.552 7.425-3.162.327-.311.621-.649.887-1l-.16 3.97s11.86.304 12.464.323v.018l14.115.362v-.011l10.192.791 12.961 1.402c.5.05 5.005.455 9.192-1.851.369-.211.729-.434 1.068-.684l-1.063 3.659 13.198 2.242s.015-.046.018-.051c.442.083 9.522 1.731 11.727 2.131l1.452.396c.274.075 6.707 1.787 11.812 1.173 6.07-.733 12.256-5.665 15.061-11.993l13.12-30.329-.054.006c.22-.507 18.606-43.227 18.606-43.227"/><path fill="#2E2A25" d="M232.413 296.907l8.214.627 7.784-46.267-10.406.981zm34.007-42.226l-3.872 16.557 10.271-.27 6.788-24.218-15.754 2.677s-5.764.939-8.376 3.563c-3.556 3.575-4.462 10.263-4.462 10.263l-6.309 34.59 10.281 1.054s4.106.512 7.506-1.235c2.469-1.279 3.994-3.875 4.855-6.363.854-2.488 3.191-12.322 3.191-12.322h-9.705l-2.045 9.834s-.285 1.932-1.717 3.865c-1.427 1.938-4.222 1.788-4.222 1.788l6.72-30.935s1.084-4.189 2.565-6.361c1.761-2.573 4.285-2.487 4.285-2.487m17.684 17.344l8.809-27.999-8.986 1.932-15.871 54.708 7.043 1.137 7.426-23.376 2.122-.054s1.372.469 1.372 1.853c0 1.383-.644 2.896-.644 2.896l-6.272 19.358 8.274 1.547 6.839-20.075s1.077-3.336.856-4.977c-.377-2.789-1.709-4.419-1.709-4.419s1.709 0 3.994-2.218c2.277-2.208 2.277-3.867 2.853-5.529.567-1.653 9.73-26.926 9.73-26.926l-11.863 2.965-7 22.583s-.508 2.294-1.65 3.95c-1.146 1.659-1.91 2.249-2.594 2.375-1.393.277-2.729.269-2.729.269m41.212-27.603l-7.703 20.734 10.559-.553 15.116-35.666-15.116 5.531s-5.379 1.598-9.416 4.974c-3.226 2.698-6.85 8.843-7.702 10.785-.856 1.935-4.281 9.671-4.849 12.163-.572 2.486-5.705 16.31-5.705 16.31h11.983l-5.134 13.55s-.577 3.04-2.574 5.531c-1.997 2.484-4.848 2.765-4.848 2.765l6.845-17.421h-7.413l-8.049 21.695s6.011 1.742 10.575 1.192c4.563-.551 10.021-4.363 12.593-10.169 2.566-5.809 11.121-25.713 11.121-25.713l-14.302.705 4.372-12.697s3.02-7.281 5.082-9.854c1.327-1.648 4.565-3.862 4.565-3.862M67.017 228.387l30.564 82.648 9.039-2.521-22.647-66.861s3.423.277 6.271 5.528c2.854 5.25 4.282 9.126 5.137 12.441.859 3.325 15.266 47.953 15.266 47.953l9.18-2.133-17.6-58.809s2.286 0 4.561 3.865c2.288 3.872 3.147 7.192 3.147 7.192l13.543 46.967 8.858-1.764-11.276-43.543s-2.548-7.667-5.473-11.654c-2.232-3.052-4.86-5.512-9.07-6.954-4.541-1.561-14.367-4.078-14.367-4.078l1.473 4.417s-3.31-3.653-6.275-5.288c-2.687-1.477-20.331-7.406-20.331-7.406m81.965 71.804l7.735-1.033-6.606-34.387s-1.52-7.701-3.443-10.693c-3.412-5.282-10.641-7.134-10.641-7.134l-14.159-2.91 14.656 58.134 8.752-1.459-5.389-21.733 5.04.056 4.055 21.159zm-10.239-26.47l-4.891-21.395s2.917.628 4.627 2.29c1.708 1.659 2.22 6.282 2.22 6.282l2.606 12.822h-4.562zm12.17-24.42l9.706 49.441 10.481-1.106s4.779-.154 6.156-1.245c2.88-2.271 2.855-5.528 2.855-5.528l-1.275-38.389-10.097-.985 3.667 36.336s.243 3.277-1.427 4.979c-1.38 1.397-2.85 1.105-2.85 1.105l-5.189-43.052-12.027-1.556zm33.47 47.388l12.323-.488s3.587-.357 5.583-2.297c1.994-1.928 2.408-5.447 2.408-5.447l.232-6.991-8.274.076.051 6.915s.118 2.284-.968 3.334c-.817.792-3.647.747-3.647.747l.043-13.896h12.826l.278-4.236-13.375.137-.004-12.221s-.08-1.76 1.15-2.688c1.296-.978 3.646-.702 3.646-.702v12.578h8.841l1.102-18.015-14.739-.301s-4.033.093-6.562 2.491c-2.921 2.768-2.569 9.127-2.569 9.127l1.655 31.877zm47.354-42.097c-1.603-1.688-5.624-1.469-5.624-1.469l-16.051.371-1.658 42.556 8.074.214 1.038-17.496s2.585-.867 3.823.927c.814 1.19.703 2.597.703 2.597l-1.065 14.044 7.945.369 1.392-14.136s.437-2.479-.383-4.327c-.721-1.629-2.473-2.029-2.473-2.029s1.145 0 2.855-1.938c1.712-1.935 1.712-4.69 1.712-4.69l.986-9.788c.002-.002.544-3.294-1.274-5.205m-8.27 5.258l-.566 10.832s0 1.384-.574 2.215c-.569.827-1.329.918-1.329.918l-2.946-.091.852-16.08 2.178-.066s1.188-.078 1.861.411c.674.491.524 1.861.524 1.861m1.34 55.5l10.039-2.435-10.287-.975c-.445-.043-9.985-.935-14.711-.905l-4.612-14.179-1.721 4.743c-.106.289-2.232 6.188-3.341 9.492-5.508-.04-12.864.731-13.204.766l-10.727 1.151 10.545 2.272c3.176.687 9.719 2.974 10.398 5.773-.831 3.271-3.073 9.034-3.098 9.092l-2.091 5.354s11.528-8.082 13.117-9.2l12.831 8.996s-4.653-13.292-5.04-14.403c1.007-1.834 6.734-4.282 11.902-5.542"/><path fill="#FFF" d="M210.146 320.577c.705-2.833 5.483-5.002 9.3-6.304-3.745-.314-8.654-.681-10.964-.67l-.648.009s-1.871-5.469-2.835-8.297c-.877 2.455-2.167 6.102-2.704 7.804l-.197.633-.657.009c-2.714.034-6.319.227-9.225.403 3.349 1.289 7.235 3.471 7.676 6.736l.023.169-.039.163c-.455 1.979-1.48 4.936-2.272 7.107 2.668-1.875 7.513-5.275 7.513-5.275s4.977 3.493 7.614 5.341a16586.61 16586.61 0 0 1-2.648-7.562l.063-.266z"/><path fill="#2E2A25" d="M101.438 124.837c0 54.889 47.047 99.547 104.88 99.547 57.829 0 104.876-44.658 104.876-99.547 0-54.894-47.047-99.55-104.876-99.55-57.832 0-104.88 44.656-104.88 99.55"/><path fill="#FFF" d="M106.643 124.837c0-52.024 44.71-94.348 99.673-94.348s99.677 42.324 99.677 94.348c0 52.021-44.714 94.341-99.677 94.341-54.963 0-99.673-42.321-99.673-94.341"/><path fill="#2E2A25" d="M145.788 61.557l.209-.166c1.229-.99 2.297-1.19 3.055-.247.708.882.156 1.946-.961 2.847l-.208.168-2.095-2.602zm.359 7.313l4.252-3.421c2.705-2.177 3.625-5 2.015-6.999-1.985-2.467-5.156-1.538-8.254.952l-3.415 2.75 5.402 6.718zm24.68-19.173l-.263-2.734.144-.057c.211.308.426.626.681.919l1.038 1.218-1.6.654zm.06 2.185l3.012-1.231.771.851 4.222-1.721-7.176-6.392-4.408 1.804-.558 9.539 4.222-1.721-.085-1.129zm20.781-13.786l4.284-.483.654 5.819 3.593-.407.311 2.75-7.874.889zm24.54-.494l4.266.62-.84 5.793 3.573.516-.395 2.743-7.841-1.138zm26.024 12.471l1.767-2.097.144.065c-.072.365-.152.743-.18 1.13l-.152 1.593-1.579-.691zm-1.529 1.572l2.986 1.298-.07 1.145 4.179 1.821-.433-9.592-4.364-1.903-7.225 6.259 4.184 1.82.743-.848zm21.454 9.925l.091.24c.314.823.803 1.689 1.568 2.319.328.269.929.606 1.176.306.248-.3-.167-.69-.436-.985l-.592-.635c-1.16-1.242-1.789-2.696-.929-3.737 1.298-1.579 4.007-.827 5.996.816 1.04.86 1.848 1.837 2.415 2.97l-2.304.964c-.339-.753-.794-1.508-1.514-2.094-.289-.243-.777-.513-1.007-.243-.203.25.184.626.397.883l.652.742c1.215 1.389 1.785 2.781.849 3.908-1.312 1.583-3.947.729-5.922-.903-1.148-.952-2.295-2.283-3.011-3.514l2.571-1.037zm27.697 38.99c-.577-.599-1.938-1.393-1.938-1.393-.496-.193-.595-.657-.595-.657-.271-1.682-.639-2.296-.639-2.296-8.577-11.072-19.559-20.278-32.183-26.891-2.249-1.019-4.278-1.123-4.278-1.123a.803.803 0 0 1-.68-.345c-.743-1.055-2.981-2.196-3.827-2.597-11.663-4.73-24.456-7.35-37.884-7.35-4.067 0-8.082.24-12.021.712l5.189-6.957c-20.715-.62-35.574 15.56-35.574 15.56l.006.015a99.791 99.791 0 0 0-14.201 8.072l.016-.019c-10.803 3.875-13.92 12.576-13.92 12.576-2.738 2.288-8.15 9.49-8.15 9.49-1.545.892-3.163 2.371-3.654 2.834-2.497 2.583-7.041 8.415-9.469 18.463-.066.165-.143.328-.208.494a69.748 69.748 0 0 0-.298 1.827 56.925 56.925 0 0 0-.603 3.712l.093-.137c-.034.267-.061.428-.061.428-.258.176-1.806 6.374-1.806 6.374l-3.074 9.259-.019-.019c-.001.019-.006.035-.009.052-7.414 25.934 2.443 41.657 4.125 44.071 13.108 38.152 50.078 65.643 93.638 65.643 33.232 0 62.635-15.997 80.531-40.529l-.006.003c.506-.803.76-2.432.76-2.432.023-.531.425-.784.425-.784 1.382-.736 1.854-1.241 1.923-1.323 9.563-14.818 15.104-32.355 15.104-51.157 0-19.834-6.159-38.265-16.713-53.576"/><path fill="#FFF" d="M166.392 81.921c.259-.27.486-.51.699-.733.333-.346.46-.436.501-.413.035-.037.068-.062.068-.062.094-4.941 1.2-8.898 1.2-8.898 8.983-12.548 23.796-15.866 23.796-15.866 1.837-.527.647.286.647.286-9.327 10.443-8.352 19.079-8.352 19.079l8.895 32.474s-7.214-2.542-12.778-13.947c-2.556 22.757 18.903 41.214 18.903 41.214.937.798-.537-.064-.537-.064-5.365-2.686-11.562-8.347-13.248-9.935.446 1.763 10.895 54.28 10.929 54.443.046.25.197.749.3 1.09l3.627-8.997 2.983 26.525c-13.607 12.666-28.102 7.646-29.002 7.322.365.566.628.979.633.979 0 0 11.765 23.115 59.714 20.663 0 0 1.155 0 .979.139.014.043-.044.103-.268.182-.896.321-2.313.544-2.313.544-57.876 15.472-87.869-33.86-89.169-36.059-.371-.51-3.177-4.461-4.738-8.449-.057-.118-.123-.503.152-.208 0 0 6.141 6.405 23.53 7.989.124-.019.192-.023.192-.023-13.43-14.982-19.151-25.838-19.992-27.498h-.009s-1.62-2.434-3.529-9.313c0 0 .046-.349.214 0 .652 1.366 5.107 7.929 10.509 9.394l.017-.005c-4.593-7.403-7.448-19.124-7.813-20.838 6.252 8.754 17.343 9.386 17.343 9.386a1.139 1.139 0 0 1-.067-.083l.038.063c-18.234-18.19-14.301-37.996-6.905-52.286 4.356-8.434 9.927-14.956 12.851-18.095"/><path fill="#8E9090" d="M213.417 175.761l6.155-31.935c.639-3.126.276.044.276.044l-3.507 33.291 7.671 26.454-14.885 11.421c-1.528 1.184-.354-.233-.354-.233l11.938-12.554-7.294-26.488z"/><path fill="none" stroke="#2E2A25" stroke-width=".161" d="M213.417 175.761l6.155-31.935c.639-3.126.276.044.276.044l-3.507 33.291 7.671 26.454-14.885 11.421c-1.528 1.184-.354-.233-.354-.233l11.938-12.554-7.294-26.488z"/><path fill="#8E9090" d="M217.294 138.688c-1.315.632-.061-.251-.061-.251 6.399-4.268 7.49-23.447 7.622-26.65.015-.366.186 0 .186 0 6.904 21.445-7.747 26.901-7.747 26.901"/><path fill="none" stroke="#2E2A25" stroke-width=".161" d="M217.294 138.688c-1.315.632-.061-.251-.061-.251 6.399-4.268 7.49-23.447 7.622-26.65.015-.366.186 0 .186 0 6.904 21.445-7.747 26.901-7.747 26.901z"/><path fill="#8E9090" d="M223.412 84.801s-1.43-4.78-2.752-6.4c0 0 7.625-4.25 17.76-.86 0 0 .299.125-.035.112-1.892-.012-10.325-.341-14.973 7.148"/><path fill="none" stroke="#2E2A25" stroke-width=".161" d="M223.412 84.801s-1.43-4.78-2.752-6.4c0 0 7.625-4.25 17.76-.86 0 0 .299.125-.035.112-1.892-.012-10.325-.341-14.973 7.148z"/><path fill="#8E9090" d="M213.001 100.951s4.144-4.922 5.307-15.841c0 0 6.929 23.214-5.485 49.827-.079.154-.17.195-.11-.052 0 0 5.884-20.034 5.458-37.139 0 0-3.606 11.484-5.801 13.675 0 0-4.067-14.186-10.006-18.779 0 0 6.416 23.945 5.378 40.425 0 0-.094.604-.167-.032-.547-4.724-3.66-26.5-17.05-55.411-.001-.001 13.93 7.56 22.476 23.327"/><path fill="none" stroke="#2E2A25" stroke-width=".161" stroke-linejoin="round" d="M213.001 100.951s4.144-4.922 5.307-15.841c0 0 6.929 23.214-5.485 49.827-.079.154-.17.195-.11-.052 0 0 5.884-20.034 5.458-37.139 0 0-3.606 11.484-5.801 13.675 0 0-4.067-14.186-10.006-18.779 0 0 6.416 23.945 5.378 40.425 0 0-.094.604-.167-.032-.547-4.724-3.66-26.5-17.05-55.411-.001-.001 13.93 7.56 22.476 23.327z"/><path fill="#8E9090" d="M265.39 224.721s-41.04 34.833-93.986 9.884c0 0-28.958-11.023-42.606-39.763-11.294-17.519-13.179-31.118-12.99-44.197 0 0-.064-3.252.296-.625 0 0 2.397 15.653 8.216 24.552 0 0 1.661 3.283.455-.255 0 0-3.893-14.674-3.921-24.705 0 0-6.996-26.805 8.289-42.035 0 0-3.992 8.955-4.152 16.646 0 0-.267 2.897.401.083 0 0 3.175-12.527 13.324-24.03 0 0 3.598-11.468 9.366-15.866 0 0-2.761 4.827-2.795 8.287 0 0 10.049-12.67 16.588-14.552 0 0-28.881 25.173-23.153 68.632 0 0-6.922-11.022-2.67-33.176 0 0-21.518 25.715 11.273 66.595 0 0-10.605-1.977-18.854-17.957 0 0 .676 43.302 48.333 68.298 0 0 39.041 22.492 87.994-6.234.002 0 5.055-3.258.592.418"/><path fill="none" stroke="#2E2A25" stroke-width=".161" stroke-linejoin="round" d="M265.39 224.721s-41.04 34.833-93.986 9.884c0 0-28.958-11.023-42.606-39.763-11.294-17.519-13.179-31.118-12.99-44.197 0 0-.064-3.252.296-.625 0 0 2.397 15.653 8.216 24.552 0 0 1.661 3.283.455-.255 0 0-3.893-14.674-3.921-24.705 0 0-6.996-26.805 8.289-42.035 0 0-3.992 8.955-4.152 16.646 0 0-.267 2.897.401.083 0 0 3.175-12.527 13.324-24.03 0 0 3.598-11.468 9.366-15.866 0 0-2.761 4.827-2.795 8.287 0 0 10.049-12.67 16.588-14.552 0 0-28.881 25.173-23.153 68.632 0 0-6.922-11.022-2.67-33.176 0 0-21.518 25.715 11.273 66.595 0 0-10.605-1.977-18.854-17.957 0 0 .676 43.302 48.333 68.298 0 0 39.041 22.492 87.994-6.234.002 0 5.055-3.258.592.418z"/><path fill="#003DA6" d="M210.105 65.988c43.646.003 66.86 31.194 66.86 31.194 1.881 2.183-3.452 2.779-3.452 2.779-30.632 4.274-45.351-9.144-45.351-9.144 2.491-6.769 15.676-12.883 15.676-12.883-13.05-7.551-24.937-1.955-24.937-1.955-3.801-4.748-9.86-9.403-9.86-9.403-1.305-.78 1.064-.588 1.064-.588"/><path fill="none" stroke="#003DA6" stroke-width=".161" d="M210.105 65.988c43.646.003 66.86 31.194 66.86 31.194 1.881 2.183-3.452 2.779-3.452 2.779-30.632 4.274-45.351-9.144-45.351-9.144 2.491-6.769 15.676-12.883 15.676-12.883-13.05-7.551-24.937-1.955-24.937-1.955-3.801-4.748-9.86-9.403-9.86-9.403-1.305-.78 1.064-.588 1.064-.588z"/><path fill="#003DA6" d="M229.895 141.001c29.181 27.638 19.328 73.852 19.328 73.852-.521 1.579-2.206 2.005-2.206 2.005-20.438 4.533-33.858.276-33.858.276l14.793-11.89-7.472-27.715 2.055-18.49c6.351 1.909 6.351 17.86 6.351 17.86 11.914-24.996 1.009-35.898 1.009-35.898"/><path fill="none" stroke="#003DA6" stroke-width=".161" stroke-linejoin="round" d="M229.895 141.001c29.181 27.638 19.328 73.852 19.328 73.852-.521 1.579-2.206 2.005-2.206 2.005-20.438 4.533-33.858.276-33.858.276l14.793-11.89-7.472-27.715 2.055-18.49c6.351 1.909 6.351 17.86 6.351 17.86 11.914-24.996 1.009-35.898 1.009-35.898z"/><path fill="#003DA6" d="M283.715 195.7s-11.142 14.167-27.646 19.521c0 0-2.629 1-2.001-1.736 0 0 12.317-47.723-20.335-79.496 0 0-1.504-1.005.4-.503 0 0 5.336 1.623 8.739 5.833 0 0-.549-9.375-6.907-16.688 0 0-1.798-1.899.1-.474 0 0 47.604 22.526 49.224 68.444-.001-.001.354 3.496-1.574 5.099"/><path fill="none" stroke="#003DA6" stroke-width=".161" d="M283.715 195.7s-11.142 14.167-27.646 19.521c0 0-2.629 1-2.001-1.736 0 0 12.317-47.723-20.335-79.496 0 0-1.504-1.005.4-.503 0 0 5.336 1.623 8.739 5.833 0 0-.549-9.375-6.907-16.688 0 0-1.798-1.899.1-.474 0 0 47.604 22.526 49.224 68.444-.001-.001.354 3.496-1.574 5.099z"/><path fill="#003DA6" d="M289.247 181.902c-1.236-50.245-63.889-79.086-63.889-79.086 7.56-.057 11.599 5.47 11.599 5.47.172-2.491-.912-5.47-.912-5.47 14.861 5.658 42.054.185 42.054.185 3.21-.272 3.946 1.555 3.946 1.555 5.966 6.632 13.408 22.136 14.648 40.748 1.754 26.349-7.259 44.135-7.446 36.598"/><path fill="none" stroke="#003DA6" stroke-width=".161" stroke-miterlimit="5" d="M289.247 181.902c-1.236-50.245-63.889-79.086-63.889-79.086 7.56-.057 11.599 5.47 11.599 5.47.172-2.491-.912-5.47-.912-5.47 14.861 5.658 42.054.185 42.054.185 3.21-.272 3.946 1.555 3.946 1.555 5.966 6.632 13.408 22.136 14.648 40.748 1.754 26.349-7.259 44.135-7.446 36.598z"/><path fill="#2E2A25" d="M187.023 60.522c.034-.037.054-.072.089-.114 0 0-.01.007-.025.007-.532.15-10.095 2.97-12.93 17.563 0 0-.015.267.134.016.859-1.416 3.855-5.943 6.604-4.596 0 0 .006-.112.03-.298.151-1.238 1.052-6.308 6.098-12.578m-7.327 131.868c-2.066-4.16-15.349-33.162-15.349-33.162-4.132 1.313-9.265-2.048-9.265-2.048.005.002.005.009.005.012 6.531 17.35 21.916 32.529 24.371 35.284.009.013.02.027.031.038.419.458.415.294.415.294-.046-.088-.117-.239-.208-.418"/><path fill="#8E9090" d="M196.784 199.482c.208-1.387 2.771-17.767-5.491-20.058 0 0-5.69-1.452-5.322 10.406 7.737-17.763 10.813 9.552 10.813 9.652"/><path fill="#2E2A25" d="M185.969 189.831l2.83 6.199s1.609-16.643 7.988 3.421c0 .001-2.866-28.42-10.818-9.62m-19.446-91.913c-11.987 27.401 14.996 38.695 15.345 38.842h.011l-1.428-6.309-.817-3.609a23.272 23.272 0 0 1-1.916-.738c-.21-.094-.405-.193-.613-.286-.251-.125-.503-.244-.738-.37-11.791-6.265-10.644-21.268-9.923-26.148.01-.034.01-.063.018-.093.018-.151.043-.289.063-.413.077-.458.14-.771.168-.93l.029-.13v-.018c.018-.365-.136.056-.199.202"/><path fill="#2E2A25" d="M172.705 113.383s1.6 5.3 8.529 5.599c0 0-.285-.413-.721-1.177-1.286-2.258-4.584-9.271-5.04-16.571.001-.042-5.969 5.223-2.768 12.149"/><path fill="#8E9090" d="M184.277 175.052l-1.938-34.432 11.562 38.392c-.001 0-3.787-9.077-9.624-3.96m-8.692-82.318c-.334 5.746-.102 8.587-.102 8.587s-6.915 5.303-1.625 14.173c-7.507-8.068-1.23-18.402 1.727-22.76m9.392-16.672l2.561 20.588s1.252 5.624-6.47-2.81c0 0 3.756 9.428 11.48 13.465.438.229.88.438 1.338.63.051.019.094.04.137.057l-8.748-31.972s-.164-.438-.258-.47c-.057-.014-.082.097-.04.512"/><defs><path id="c" d="M186.149 188.003c-.015.569-.085 1.055-.181 1.831 7.734-17.767 10.815 9.547 10.815 9.648.045-.617.011-2.517.116-5.163.23-5.439-.048-13.355-5.604-14.892 0 0-.215-.059-.554-.059-1.285.001-4.392.817-4.592 8.635"/></defs><clipPath id="d"><use xlink:href="#c" overflow="visible"/></clipPath><path clip-path="url(#d)" fill="none" stroke="#2E2A25" stroke-width=".161" d="M185.969 189.831l2.83 6.199s1.609-16.643 7.988 3.421c0 .001-2.866-28.42-10.818-9.62z"/><defs><path id="e" d="M171.876 112.447c.542 1.042 1.056 1.822 1.982 3.045-5.295-8.867 1.625-14.173 1.625-14.173s-.338-.622-.354-1.863c-.024-1.429.276-3.666.451-6.722-2.592 3.821-7.558 12.253-3.704 19.713"/></defs><clipPath id="f"><use xlink:href="#e" overflow="visible"/></clipPath><path clip-path="url(#f)" fill="none" stroke="#2E2A25" stroke-width=".161" stroke-linecap="square" d="M175.483 101.32s-6.917 5.305-1.627 14.175"/><g><defs><path id="g" d="M185.097 76.444l2.443 20.202s.956 4.596-3.978.02c-.704-.656-2.009-2.122-2.496-2.825 0 0 3.753 9.428 11.478 13.465.44.229.886.44 1.344.63.048.016.091.039.134.054l-8.748-31.969s-.167-.441-.258-.47c.021.385.046.699.081.893"/></defs><clipPath id="h"><use xlink:href="#g" overflow="visible"/></clipPath><path clip-path="url(#h)" fill="none" stroke="#2E2A25" stroke-width=".161" stroke-linejoin="round" d="M181.067 93.84s3.756 9.429 11.478 13.465c.44.228.886.44 1.344.63l.137.057-8.751-31.972s-.167-.438-.258-.467"/></g><g><defs><path id="i" d="M204.395 296.224c-2.687 2.607-6.956 3.109-7.425 3.159l-.112.008-15.441.503-.187-3.589a10.486 10.486 0 0 1-2.035 2.132c-2.269 1.807-6.536 2.231-7.928 2.323-.031.004-4.25.435-7.897.817l4.773 7.748.743 1.09c16.605 24.268 32.289 39.518 36.972 43.854 4.541-4.358 19.638-19.495 36.715-43.604l.688-.975 5.265-8.301-6.634-.716-10.191-.791-.001.011-14.112-.365v-.015l-12.468-.323.155-3.972a7.916 7.916 0 0 1-.88 1.006m1.4-196.521l-.582.159S78.323 64.345 72.261 62.652c1.581 11.278 7.381 50.004 16.957 85.492 7.376 27.342 16.079 48.087 24.496 68.142l6.083 14.578 6.827 11.077c4.961 1.125 10.149 2.298 10.192 2.312.309.078 6.951 1.826 11.204 6.758l-.217-1.097-.835-4.228 18.624 2.384v.006c.568.054 15.978 1.449 15.978 1.449l.11 2.719s.046 1.091.114 2.896a8.69 8.69 0 0 1 1.312-1.595c3.306-3.125 8.092-3.325 8.72-3.343l12.001.081-.015-8.707h11.938l-.015 8.481c4.959-.129 10.209-.271 10.224-.271 1.18-.062 5.227-.103 7.68 1.783.457.354.846.75 1.172 1.158l.426-3.334 12.884-1.219 4.024-.382-.904 5.367a14.207 14.207 0 0 1 1.876-2.347c3.224-3.246 9.386-4.332 10.058-4.436l15.947-2.676 3.134-.526c.821-.174 2.177-.473 3.731-.807l6.402-10.097 1.695-3.914c11.469-26.439 20.528-47.318 29.252-80.657 9.188-35.133 14.811-73.878 16.34-85.132L205.795 99.703"/></defs><clipPath id="j"><use xlink:href="#i" overflow="visible"/></clipPath><path clip-path="url(#j)" fill="none" stroke="#003DA6" stroke-width=".161" d="M348.257 214.171c-.517.228-40.79 17.6-94.441 25.134-13.729 7.059-29.378 11.054-45.988 11.054-16.736 0-32.5-4.06-46.315-11.227-52.364-7.769-99.066-25.424-99.66-25.649l-16.016-6.117 5.7 15.335c.109.416.109.416 35.951 97.094l2.582 6.959 7.077-2.24c15.387-4.886 55.8-16.084 104.136-16.646a680.516 680.516 0 0 1 2.232-6.265l1.716-4.746 3.584 11.009c44.868.493 83.711 9.706 99.907 15.21l7.037 2.392 2.743-6.984c1.003-2.558 24.492-57.691 40.033-94.126l7.7-18.047-17.978 7.86z"/></g></svg>