<svg xmlns="http://www.w3.org/2000/svg" width="400" height="400"><path fill="#FFF" d="M378.8 186s-8.2 2.7-9 3c-8.6-6.5-19-5.9-19.4-5.8h-10.2c.1-.3.6-1.2.6-1.2s-6.4-8-8.2-10.4c2.9 0 13.9-.1 13.9-.1l-1.8-1.7c-47.4-44.8-77.4-48.2-78.6-48.3h-.5s-.8.9-1.2 1.5c-1.5-1.2-55.7-47.1-55.7-47.1s-57 46.8-58.6 48.1c-.4-.5-1.1-1.6-1.1-1.6l-.6.1c-42.6 8.3-79.6 46.9-79.9 47.3l-1.6 1.7h11.8c-1.9 2-6 6.5-6 6.5s2.7 4.4 3.9 6.3H21.2v30.1h1c1.1-.1 1.9.2 2.4.7.6.6.6 1.5.6 1.7v.1c0 .5.4 72.5.4 72.5v.7c0 2.6-.8 3.3-.9 3.4-.3.1-3.3 1-3.3 1V324H51s1.4-.7 2.3-1.2c.1.2.4 1.3.4 1.3h22s10-5.8 11.1-6.5c8.1 7.2 17.6 6.6 18 6.6 7.3-.1 13.4-3.9 13.6-4.1 0 0 9.3-6.1 12-7.8 8.4 12.6 22.2 11.8 22.4 11.8 8.5 0 13.6-3.7 13.8-3.9 0 0 9.5-6.2 12.3-8 7.7 11.8 21.4 11.8 22 11.8 9.6.5 16.6-4.9 18.8-6.9 1 1.3 5.4 6.9 5.4 6.9h49.2v-6.7c2.3 1.7 8.8 6.7 8.8 6.7h35.4v-7l9.9 5.4s3.9-3.1 4.8-3.8c7.1 5.5 16.8 5.5 17.2 5.5 19.1 0 25.1-13.5 25.1-13.6 2.9-5.2 3.1-12.4 3.1-12.7v-25.1c0-15.1-8.7-22.4-9.1-22.7-1.6-1.6-6.2-4.9-9.3-6.9h18.4V186zm-1 56.2h-20.7s9.5 6.3 11.9 8.7c0 0 8.7 7.2 8.7 22v25s-.1 7.1-3 12.3c0 0 0 .1-.1.2-.7 1.4-6.7 12.8-24.2 12.8 0 0-10.3.1-17.2-5.8l-4.9 3.8-10.8-5.9v7.6h-34.1l-10.2-7.7v7.7h-47.7l-5.8-7.4s-7.7 8-19 7.4c0 0-14.3.2-21.7-12.1l-13.1 8.5s-5 3.7-13.3 3.7c0 0-13.9 1-22.1-12.2 0 0-9.2 6.1-12.7 8.3 0 0-6 3.8-13.2 3.9 0 0-9.8.7-17.8-6.8l-11.4 6.7h-21l-.5-1.7-3.1 1.6H22.5V295l2.7-.8h.1c.3-.2 1.5-1.3 1.3-5l-.4-72.5s.3-3.7-4-3.5v-28.1h56l-4.4-7.2 7.1-7.6h-12s36.7-38.7 79.4-47l1.3 1.9 58.8-48.3 55.9 47.2 1.5-1.8s30.3 2.9 78 48l-13.4.1 9.1 11.5-1 2h11.9s10.8-.9 19.2 5.9l8.1-2.7v55.1z"/><path fill="#4D90CD" d="M347 234.8v-1c-.1.3-.1.6 0 1m-172.9 69.7c-.2.5-.5.9-.8 1.4.3-.5.6-1 .8-1.4m-55.2 8.5l-.6.6c.1-.2.3-.4.6-.6M94.6 204.6l-.1-.1c.1 0 .1 0 .1.1m252.3 28.7v-.1.1"/><path fill="#4D90CD" d="M350.5 184.2h-11.9l1-2.1-9.1-11.5 13.4-.1c-47.7-45.1-78-48-78-48l-1.5 1.8-55.9-47.2-58.8 48.3-1.3-1.9c-42.7 8.3-79.4 47-79.4 47h11.8l-7.1 7.6 4.4 7.2h-56v28.1c4.3-.2 4 3.5 4 3.5l.4 72.5c.2 3.7-1 4.8-1.3 5h-.1l-2.7.8V323h28.4l3.1-1.6.5 1.7h21l11.4-6.7c8 7.5 17.8 6.8 17.8 6.8 7.2-.1 13.2-3.9 13.2-3.9 3.5-2.2 12.7-8.3 12.7-8.3 8.1 13.2 22.1 12.2 22.1 12.2 8.3 0 13.3-3.7 13.3-3.7L179 311c7.4 12.3 21.7 12.1 21.7 12.1 11.3.6 19-7.4 19-7.4l5.8 7.3h47.7v-7.7l10.2 7.7h34.1v-7.6l10.8 5.9 4.9-3.8c7 5.9 17.2 5.8 17.2 5.8 17.5 0 23.5-11.4 24.2-12.9 0-.1.1-.1.1-.1 2.9-5.1 3-12.3 3-12.3v-25.1c0-14.8-8.7-22-8.7-22-2.4-2.4-11.9-8.7-11.9-8.7h20.7v-54.8l-8.1 2.7c-8.4-6.8-19.2-5.9-19.2-5.9m23.2 8.9v44.8h-18.9s-7.1-2.3-7.9-2.6v-.3c0 .8.2 1.7.4 2.6.4 1.6 1.1 3.3 2.4 4.2.1 0 6.5 4.5 15.9 11.3.3.3 8.2 6.5 8 20V299c0 .3 0 8.1-5.9 14-4.1 4.1-10.1 6.2-17.7 6.1-.4 0-9.1.5-17-7.2l-4.2 3.5-.7.6-.3.3s-11.8-6.2-14.4-7.6V319h-29.2s-12-8.9-14.7-11v11H227s-6.3-7.3-7.7-9c-7.7 9.2-17.1 9.1-17.2 9.1-7.5-.3-13.3-2.6-17.3-7.1-2-2.2-3.3-4.6-4.2-6.9-2.1 1.3-11.5 7.2-14.2 8.8-.2.2-.5.4-.7.6-6.3 4.7-12.3 4.5-12.3 4.5-6.9 0-12.4-2.1-16.3-6.2-2.4-2.4-3.9-5.3-4.9-8-2.2 1.4-12.8 8.2-15.2 9.7-.9.7-1.7 1.3-2.6 1.8-5 2.9-9.8 2.8-10.1 2.8-6.4-.1-11.5-2.2-15.2-6.2-.5-.5-.9-1-1.3-1.6-2.9 1.7-13.2 7.5-13.2 7.5h-17l-.1-.5-.4-1.9c-1.9.7-7.3 2.4-7.3 2.4H26.5v-20.4l.3-.2c.1-.1 3.8-2.2 3.7-8.3l-.1-70.9c0-.1.2-7.7-3.7-9.6l-.4-.2v-.4l.1-19.3v-.7H56v.6-.7h28.9c0-.1-.1-.1-.1-.2-3.2-5.1-5.9-9.3-5.9-9.3l-.5-.8.6-.4c.1-.2 3.2-4 11.1-11h-12l2.6-2.4c1.3-1.2 33.3-30.3 65-36.8l.9-.2.5.7s1.2 1.7 1.9 2.7l59.1-48.7 56.5 47.9c.8-1 2.2-2.8 2.2-2.8l.5-.7.8.2c26.7 4.9 59.7 34.1 63.4 37.4l2.7 2.4H321c7.6 7.7 13 14.1 13.6 14.8l.2.2s-.7 1.2-.8 1.2l-3.7 5.9c6.1 0 15.9-.6 18.9-.6h-.1c.5-.1.9-.1 1.4-.1.5 0 11.4-.4 18.3 6.6l4-1.4.9-.2z"/><path fill="#4D90CD" d="M172.6 307.1s0 .1-.1.1l.1-.1m174.3-73.4v-.4.4m-171.7 68.4c-.3.7-.6 1.4-1 2.1.4-.7.7-1.4 1-2.1"/><path fill="#041E41" d="M354.8 218.4s.1-3.3-1.6-5c-.7-.7-1.5-1-2.7-1-.1 0-3.5.1-3.6 6.7v16.3c.8.3 7.8 2.6 7.8 2.6l-.1-.7v-18.9zM44.7 290c0 .1.6 6.3 4.8 8.4l.4.2v20.3s5.4-1.7 7.3-2.4l-12.5-61.1V290"/><path fill="#FFC627" d="M94.5 204.5l.1.1c.3.5.5.8.5.8l.7 1.1 1.1-.6c51.4-26.4 109.7-24.9 112.1-24.8 63.2 2.8 106.4 27.7 106.8 28l1.2.7 13.3-20.9 3.7-5.9.8-1.2-.2-.2c-.6-.7-6-7.2-13.6-14.8h13.4l-2.7-2.4c-3.7-3.3-36.7-32.5-63.4-37.4l-.8-.2-.5.7s-1.4 1.8-2.2 2.8l.2.2 1.6 1.3 1.8-2.3.2.1c10.1 5.4 29.7 20.5 29.9 20.6 12.1 8.4 24.4 21.5 30.7 28.5l-.3.4c-5.2-2.6-10.6-5.2-16.1-7.5-3-1.3-5.9-2.5-8.8-3.6-55.7-21.6-102.3-19.2-102.8-19.2-7.3.2-14.6.7-21.8 1.3-7.7.7-15.4 1.7-23 3-14.9 2.5-29.1 6-42.5 10.4-1.8.6-3.6 1.2-5.3 1.8-10.2 3.6-17.8 7.1-22.3 9.3l-.3-.4c7.4-7.2 25.1-22.6 60-43.8l.2-.1 1.5 2.1 1.6-1.3.2-.2c-.7-1-1.9-2.7-1.9-2.7l-.5-.7-.9.2c-31.7 6.4-63.7 35.5-65 36.8l-2.6 2.4h12c-8 7-11 10.8-11.1 11l-.6.8.5.8s2.7 4.3 5.9 9.3c0 .1.1.1.1.2 3.2 6 7.6 13 9.1 15.5m204.9-55.8c-.1-.1-13.1-10.1-23.7-16.9l.2-.4c21.2 7.3 45 26.8 51.8 32.7l.5.4h-.7l-9.7-.1c-6.7-6.6-12.9-11.9-18.4-15.7m-215.3 16l.5-.4c6.6-5.7 29.9-24.9 54.4-32.3l.2.4c-18.4 11.5-33.7 22.3-45.7 32.3h-9.4zm-2.7 14.5l.2-.1c7.8-4.4 50.4-26.5 119.4-28.5 2.6-.1 64.5-2.8 130.3 31.9l.2.1-15.3 24.1-.2-.1c-7.6-4.2-48.3-25.2-106.9-27.8-.6 0-59.5-2.2-112.4 24.6l-.2.1-15.1-24.3z"/><path fill="#4D90CD" d="M328.3 164.5l-.5-.4c-6.8-5.8-30.6-25.3-51.8-32.7l-.2.4c10.5 6.8 23.5 16.8 23.6 16.9 5.5 3.8 11.7 9.1 18.5 15.7l9.7.1h.7zm-189.1-32.1l-.2-.4c-24.5 7.5-47.8 26.7-54.4 32.3l-.5.4h9.4c12-10 27.3-20.9 45.7-32.3m170 50.8s.9-2-2.6-3.2l-7.3-2.8-1.5 3.8 8 3.2s2.6 1.3 3.4-1m-190.4 1.6s5.1-2 3.5-7.4c0 0-1.4-4.6-7.6-2.9l-6.6 2.5 3.8 10.3 6.9-2.5z"/><path fill="#4D90CD" d="M96.9 203.4c52.9-26.8 111.8-24.6 112.4-24.6 58.6 2.6 99.3 23.6 106.9 27.8l.2.1 15.3-24.1-.2-.1c-65.9-34.7-127.7-32-130.3-31.9-69 2-111.6 24.1-119.4 28.5l-.2.1 15.3 24.3v-.1zm189.9-14.9c.6.2.8-.3.8-.3l6.6-16.7c0-.3-.5-.4-.5-.4l.2-.4 17.7 7c7.1 3.3 4.3 8.4 4.3 8.4-2.1 4.2-8.2 3.2-8.2 3.2l2.9 8.3c.3.1.4.4.4.4l-.1.2-8.2-3.1.1-.3c.7.2 1-.5 1-.5-.2-.6-2.9-7.8-2.9-7.8l-4.4-1.7-2.3 6c-.3.6.3.8.3.8l-.2.4-7.6-3 .1-.5zm-33.3-9.6c.6.2.7-.4.7-.4l4.3-17.5c0-.3-.5-.4-.5-.4l.1-.4 21.7 5.2s1 .4 1.3-.5h.3l-1.4 5.9-.2-.1s0-.7-.5-1.1l-14.9-3.5-.8 3.2 8.9 2.1s.9.2 1.3-.5h.4l-1.3 5.3-.3-.1s0-.4-.4-.8l-9.4-2.3-.8 3.6 14.7 3.4s.6.2 1-.7l.3.1-1.4 5.9-.3-.1s-.3-.9-.8-.9l-22-5.3v-.1zm-36.8-23.6l9.1.7-.1.5c-.3 0-.6.1-.5.4 0 .3.1.5 1.1 2.4l4.5 9.4 6.6-9.4c.3-.5.6-.8.6-1.2 0-.3 0-.5-.3-.5l.1-.5 7.7.7v.5c-.7 0-.9.3-1.4 1.1l-9.8 15.4c-.2.3-.4.5-.4.9s.1.4.3.5v.4l-8.8-.9.1-.4c.5 0 .2-.6.2-.6l-.2-.7-7.2-16.7c-.3-1-.5-1.1-1.3-1.4l-.3-.6zm-29.6.2v.4s-.8 0-.6.5c.2.4.5.8.5.8l11.4 9-.6-10.2s-.1-.6-.7-.5v-.4l7.7-.3v.4c-.6 0-.6.6-.6.6l.8 17.7c.1.3.7.2.7.2l.1.4-7.9.6v-.3s.7 0 .6-.5c-.1-.4-.5-.8-.5-.8l.4.2-14.1-10.9.7 11.9s.1.6.7.5v.4l-7.5.3-.1-.4c.6 0 .7-.6.7-.6l-.8-17.7c-.1-.3-.7-.2-.7-.2l-.1-.4 9.9-.7zm-27.2 2.6s1.1 0 1-1l.3-.1 1.3 5.9-.2.1s-.3-.6-.9-.8l-15 3.3.7 3.2 8.9-2s.9-.3 1-1l.4-.1 1.1 5.4h-.5s-.2-.4-.7-.5l-9.4 2 .8 3.6 14.8-3.2s.6-.1.7-1.1l.3-.1 1.3 5.9h-.3s-.7-.7-1.1-.5l-22.1 4.7-.1-.4c.6-.1.5-.7.5-.7l-3.7-17.6c-.2-.3-.6-.1-.6-.1l-.1-.4 21.6-4.5zM115 169.9c11.6-2.7 13.5 5.1 13.5 5.1 2.8 8.8-6.2 12.8-6.2 12.8l-16 6.1-.2-.4c.6-.2.5-.8.5-.8l-6-16.6c-.2-.2-.8 0-.8 0l-.2-.4 15.4-5.8z"/><path fill="#4D90CD" d="M147.5 133.1l.2-.1-.3-.4-1.5-2.1-.2.1c-34.9 21.2-52.6 36.6-60 43.8l.3.4c4.6-2.3 12.1-5.7 22.3-9.3 1.8-.6 3.5-1.2 5.3-1.8-1.8.5-3.5 1.1-5.1 1.6 3-2.6 39-32.2 39-32.2m164.6 38.1c-2.8-1.1-5.6-2.2-8.4-3.2 2.9 1.1 5.9 2.3 8.8 3.6 5.5 2.4 11 4.9 16.1 7.5l.3-.4c-6.3-7-18.6-20.1-30.7-28.5-.1-.1-19.8-15.2-29.9-20.6l-.2-.1-1.8 2.3-.3.4 46.1 39z"/><path fill="#FFF" d="M100.6 176.1l6 16.6s.2.6-.5.8l.2.4 16-6.1s9-4 6.2-12.8c0 0-1.9-7.8-13.5-5.1l-15.4 5.8.2.4c.1 0 .6-.2.8 0m14.1-1.5c6.3-1.8 7.6 2.9 7.6 2.9 1.7 5.3-3.5 7.3-3.5 7.3l-6.9 2.6-3.8-10.3 6.6-2.5zm24.1-11.3l3.7 17.6s.2.6-.5.7l.1.4 22.1-4.7c.4-.2 1.1.5 1.1.5h.3l-1.3-5.9-.3.1c-.1 1-.7 1.1-.7 1.1l-14.8 3.2-.8-3.6 9.4-2c.6.1.7.5.7.5l.3-.1-1.1-5.4-.4.1c0 .8-1 1-1 1l-8.9 2-.7-3.2 15-3.3c.6.2.9.8.9.8l.2-.1-1.3-5.9-.3.1c.1 1-1 1-1 1l-21.8 4.7.1.4c.4-.1.9-.3 1 0m39.2-6.4l.8 17.7s0 .6-.7.6l.1.4 7.5-.3v-.4c-.6.1-.7-.5-.7-.5l-.7-11.9 14.1 10.9-.4-.2s.4.4.5.8c.2.5-.6.5-.6.5v.3l7.9-.6-.1-.4s-.6.1-.7-.2l-.8-17.7s0-.6.6-.6v-.4l-7.7.3v.4c.6-.1.7.5.7.5l.6 10.2-11.4-9s-.4-.4-.5-.8c-.2-.5.6-.5.6-.5v-.4l-9.9.8.1.4c-.1-.2.5-.2.7.1m98.2 28.6l.3.1 1.4-5.9-.3-.1c-.5.9-1 .7-1 .7l-14.7-3.4.8-3.6 9.4 2.3c.4.4.4.8.4.8l.3.1 1.3-5.3h-.4c-.4.7-1.3.5-1.3.5l-8.9-2.1.8-3.2 14.9 3.5c.5.4.5 1.1.5 1.1l.2.1 1.4-5.9h-.3c-.3.9-1.3.5-1.3.5l-21.7-5.2-.1.4s.5.1.5.4l-4.3 17.5s-.1.6-.7.4l-.1.4 22 5.3c.6-.3.9.6.9.6m18.1 6s-.6-.2-.3-.8l2.3-6 4.4 1.7s2.7 7.3 2.9 7.8c0 0-.3.7-1 .5l-.1.3 8.2 3.1.1-.2s-.1-.2-.4-.4l-2.9-8.3s6.1 1.1 8.2-3.2c0 0 2.7-5.1-4.3-8.4l-17.7-7-.2.4s.5.1.5.4l-6.6 16.7s-.2.6-.8.3l-.1.4 7.6 3 .2-.3zm5-14.3l7.3 2.8c3.5 1.2 2.6 3.2 2.6 3.2-.8 2.3-3.5 1-3.5 1l-8-3.2 1.6-3.8zM218 157.1l7.2 16.7.2.7s.3.6-.2.6l-.1.5 8.8.9v-.4c-.2 0-.3-.1-.3-.5s.3-.6.4-.9l9.8-15.4c.5-.8.6-1.2 1.4-1.1v-.5l-7.7-.7-.1.5c.3 0 .4.3.3.5 0 .4-.3.7-.6 1.2l-6.6 9.4-4.5-9.4c-1-1.8-1-2.1-1.1-2.4 0-.3.2-.5.5-.4l.1-.5-9.1-.7-.1.4c1.2.4 1.4.5 1.7 1.5m-143.3 61c.2-7.5 3.3-7.9 3.3-7.9l.6-.1v-21H56.2v20.4l.4.2c3.8 1.5 3.6 8.5 3.6 8.5s.1 24.5.1 36.7L47 189.6l-.1-.5H26.6v.7l-.1 19.3v.4l.4.2c3.9 1.9 3.7 9.5 3.7 9.6l.1 70.9c.1 6.1-3.5 8.2-3.7 8.3l-.3.2v20.4H50v-20.5l-.4-.2c-4.2-2.2-4.8-8.3-4.8-8.4v-34.6l12.5 61.1.4 1.9.1.5h16.9V218.1zm-1.3 0s-.1 90.9-.1 99.5H58.8l-14-68.9-1.3.1v41.3c0 .3.7 6.7 5.2 9.3v18.2H27.9v-18.2c1-.7 4.1-3.4 4-9.3l-.1-70.8c0-.3.2-8-4.1-10.6l.1-18.3h17.9l14.6 71.2 1.3-.1-.1-43.3c0-.3.2-7.4-4-9.6v-18.1h19.8V209c-1.2.4-3.7 2.1-3.9 9.1m151.1 83.6v-53.4h-23v16.6h3.2v18.6c.1 1.6.1 5.8-1.5 7.5-.4.5-1 .7-1.6.7 0 0-.6 0-1.3-.6-.8-.9-1.7-2.8-1.5-7.4v-64.8c-.1-1.4.1-5.1 1.5-6.6.4-.4.9-.6 1.4-.6 0 0 .6 0 1.3.7.7.7 1.5 2.3 1.5 5.8v20.7h20.2V192l-1 .4-3.5 1.6c-1.6-1.9-8.3-9.4-17.8-9.4-.3 0-9.3-.5-16.1 5.7-4.5 4.1-7 10-7.4 17.7v86.5c0 .3-.2 5.2 1.9 10.6.9 2.3 2.2 4.7 4.2 6.9 4.1 4.4 9.9 6.8 17.3 7.1.1 0 9.5.1 17.2-9.1 1.8-2.2 3.5-4.9 5-8.2v-.1zm-1.3-.3c-7.4 16.5-20.7 16.4-20.9 16.4-7.1-.2-12.6-2.5-16.4-6.6-6.2-6.8-5.7-16.5-5.7-16.6V208c.4-7.3 2.7-12.9 6.9-16.8 6.4-5.8 15.1-5.4 15.2-5.4 10 0 17.1 9.2 17.1 9.3l.3.4.5-.2 3.1-1.4v43.4H206V218c0-3.2-.6-5.5-1.9-6.8-1-1-2.1-1-2.2-1-.9 0-1.8.3-2.4 1-2.1 2.2-1.9 7.4-1.9 7.6v64.7c-.2 4.1.4 6.9 1.9 8.4 1 1 2.1 1 2.2 1 1 0 1.9-.4 2.5-1.2 2.2-2.5 1.8-8.3 1.8-8.5v-19.9h-3.2v-13.8h20.3v51.9zm31-28.8v.7c.4 15.1-2.1 19.4-3.6 20.6-.4.3-.7.4-.9.5v-29.5h10.5v-16.7h-10.5v-33.1c3.6 1.7 4.8 14.7 4.6 23v.7h15.1v-44.3l-.5-.2c-20.1-6.6-41-7.8-41.2-7.8h-.7v21.4l.3.2c3 2 3 6.4 3 6.4v74.7c.5 7.7-2.6 8.6-2.6 8.6l-.5.1v21h42.5v-46.4h-15.5zm14.1 45h-39.8v-18.7c1.1-.6 3.6-2.7 3.1-9.8v-74.6c0-.2-.1-4.8-3.3-7.3v-19.3c3.8.3 22 1.8 39.7 7.5v42h-12.4c0-4.4-.2-23.5-6.6-23.9h-.7v36.1h10.5v13.9h-10.5v32l.5.1c.1 0 1.2.3 2.5-.6 2.1-1.6 4.5-6.6 4.2-21.1h12.8v43.7zm44.9-19.7c-4.9-1.9-4.6-11-4.6-11.1v-59.3c1.5 1.6 2.8 6.8 3.2 10.5l.1.6h12.7v-20.8l-.3-.2c-26.8-15.4-50.2-21.8-50.5-21.9l-.9-.2v43.3h13.3v-.7c.5-11.5 2.3-14 3.1-14.5v63.3c.1 9.3-4.3 11-4.5 11.1l-.4.2V319h29.2v-21l-.4-.1zm-.9 19.7h-26.5V299c1.3-.7 5-3.4 4.9-12.2v-64.4l-.4-.2c-.1 0-.7-.3-1.6.1-2.1 1.2-3.4 6.3-3.8 15h-10.7v-40.2c4.4 1.3 25.4 7.8 49 21.3v18.7H313c-.4-2.8-1.8-11-5-11.6l-.8-.1v61.2c0 .4-.2 9.5 5.1 12.1v18.9z"/><path fill="#FFC627" d="M77.3 209v-18.5H57.6v18.1c4.3 2.2 4.1 9.3 4 9.6l.1 43.3-1.3.1-14.6-71.2H27.9l-.1 18.3c4.3 2.5 4.1 10.3 4 10.6l.1 70.8c.1 5.9-3 8.5-4 9.3v18.2h20.7v-18.2c-4.5-2.6-5.1-9-5.2-9.3v-41.3l1.3-.1 14 68.9h14.5c0-8.7.1-99.5.1-99.5.3-7 2.8-8.7 4-9.1m125.6 54.5h3.2v19.9c0 .2.5 6-1.8 8.5-.7.8-1.6 1.2-2.6 1.2-.1 0-1.2 0-2.2-1-1.5-1.5-2.1-4.3-1.9-8.4V219c0-.2-.3-5.4 1.9-7.6.7-.7 1.5-1.1 2.4-1 .1 0 1.2 0 2.2 1 1.3 1.3 1.9 3.6 1.9 6.8v19.3h17.3V194l-3.1 1.4-.5.2-.3-.4c-.1-.1-7.2-9.3-17.1-9.3-.1 0-8.8-.4-15.2 5.4-4.2 3.8-6.5 9.5-6.9 16.8v86.5c0 .1-.5 9.8 5.7 16.6 3.8 4.2 9.3 6.4 16.4 6.6.1 0 13.5.1 20.9-16.4v-51.7h-20.3v13.8zm48.4 31.5c-1.3 1-2.4.7-2.5.6l-.5-.1v-32h10.5v-13.9h-10.5v-36.1h.7c6.4.3 6.6 19.4 6.6 23.9H268v-42c-17.7-5.8-35.9-7.3-39.7-7.5v19.3c3.3 2.5 3.3 7.1 3.3 7.3v74.6c.5 7.1-2 9.2-3.1 9.8v18.8h39.8V274h-12.8c.3 14.4-2.1 19.4-4.2 21m55.9-8.2v-61.2l.8.1c3.3.6 4.6 8.8 5 11.6h10.2v-18.7c-23.6-13.6-44.6-20.1-49-21.3v40.2h10.7c.4-8.8 1.7-13.8 3.8-15 .9-.5 1.5-.2 1.6-.1l.4.2v64.5c.1 8.7-3.6 11.5-4.9 12.2v18.6h26.5v-18.7c-5.3-2.9-5.1-12-5.1-12.4"/><path fill="#041E41" d="M327.9 276.9v-.7h18.8v11.6s-.1 4.3 1.8 6.2c.6.6 1.3.9 2.2.8 0 0 .9 0 1.8-.8 1.2-1 1.9-3.1 2-6v-11.4c0-.1.5-7.1-3.9-9.7 0 0-14.7-10.3-14.6-10.3-.3-.2-8.5-5.5-8.8-20.1V212c0-.2-.5-19 18.3-23.1 1.1-.2 2.3-.4 3.6-.6h.1c-3 0-12.8.6-18.9.6L317 209.8l-1.2-.7c-.4-.3-43.5-25.2-106.8-28-2.5-.1-60.7-1.6-112.1 24.8l-1.1.6-.7-1.1s-.2-.3-.5-.8l-.1-.1c-1.6-2.5-5.9-9.4-9.6-15.3h-6.2v21l-.6.1s-3.1.4-3.3 7.9l-.1 100.2v.6s10.3-5.8 13.2-7.5c-6.3-8.5-5.3-20.8-5.3-21.3v-46.5c0-1.6-.4-2.8-1-3.3-.7-.5-1.7-.2-1.7-.2l-.9.3v-20.4l.3-.2c8.3-5.9 22.7-12.1 22.9-12.2l.9-.4v20.4l-.2.2c-1.2 1.2-1.5 6.8-1.3 10v46.4c-.2 4.9.9 6.6 1.6 7.2.6.5 1.1.4 1.1.4h.2c.3 0 .5-.1.7-.3 1.3-1.3 1.5-5.6 1.5-7.2l.1-53.9c0-2.1-.4-2.9-.7-3.2-.3-.2-.5-.2-.5-.2l-.8.2v-20.8l.4-.2c15.2-7.2 23.5-9.2 23.6-9.2l.8-.2v21.4l-.3.2c-3.8 2.3-3.5 8.2-3.5 8.3v64.9c.3 9.4-2 16.7-6.8 21.5l-.6.6c-.4.4-.8.7-1.2 1 2.5-1.5 13-8.2 15.2-9.7-1.9-5.1-1.8-9.6-1.8-9.9v-79.9c1.3-24.4 22.8-24.7 23-24.7 10-.4 16.6 7 18.1 8.9l2.8-1.3 1-.4v41.1h-19.7V224c0-3.4-.7-4.9-1.4-5.6-.6-.6-1.2-.6-1.2-.6-.6 0-1 .2-1.4.6-1.4 1.5-1.5 5.2-1.5 6.5V284c-.3 4.5.6 6.4 1.4 7.2.6.6 1.2.6 1.2.6.6 0 1.1-.2 1.6-.7 1.5-1.7 1.5-5.9 1.4-7.4v-18.6h-3.2v-16.6h22.6V302l-.1.1c-.3.7-.6 1.4-1 2.1-.1.1-.1.2-.2.3-.2.5-.5.9-.8 1.4-.2.4-.5.8-.8 1.2 0 0 0 .1-.1.1-1.9 2.9-3.9 5.1-6 6.8 2.7-1.6 12.1-7.5 14.2-8.8-2.1-5.4-1.9-10.4-1.9-10.6V208c.4-7.7 2.8-13.7 7.4-17.7 6.8-6.2 15.8-5.7 16.1-5.7 9.5 0 16.3 7.5 17.8 9.4l3.5-1.6.9-.4v46.8h-19.6v-20.7c0-3.5-.8-5.1-1.5-5.8-.6-.6-1.2-.7-1.3-.7-.6 0-1 .2-1.4.6-1.4 1.5-1.6 5.3-1.5 6.6v64.8c-.3 4.6.6 6.5 1.4 7.4.6.6 1.2.6 1.3.6.6 0 1.2-.2 1.6-.7 1.5-1.7 1.6-6 1.5-7.5v-18.6h-3.2v-16.5h23v53.3l-.1.1c-1.5 3.3-3.2 6-5 8.2 1.4 1.7 7.7 9 7.7 9v-21l.5-.1s3.2-.9 2.6-8.6v-74.7s0-4.4-3-6.4l-.3-.2v-21.4h.7c.2 0 21.1 1.2 41.2 7.8l.5.2v44.3h-15.1v-.7c.1-8.3-1-21.3-4.6-23v33.1h10.5v16.7h-10.5v29.5c.2 0 .5-.2.9-.5 1.5-1.2 4-5.5 3.6-20.6v-.7h15.5V308c2.7 2.1 14.7 11 14.7 11v-20.8l.4-.2c.2-.1 4.6-1.8 4.5-11.1v-63.3c-.8.5-2.6 3-3.1 14.5v.7h-13.3v-43.3l.9.2c.2.1 23.7 6.5 50.5 21.9l.3.2v20.9h-12.7l-.1-.6c-.4-3.7-1.7-8.9-3.2-10.5v59.3c0 .1-.2 9.1 4.6 11.1l.4.2v10.5c2.5 1.4 14.4 7.6 14.4 7.6v-39.4zM60.4 254.8c0-12.2-.1-36.7-.1-36.7 0-.1.2-7-3.6-8.5l-.4-.2v-20.3h-9.4l.1.5 13.4 65.2zm-13.6-65.7h-.5.5z"/><path fill="#FFF" d="M350.5 188.1c-.5 0-1 .1-1.4.1-1.3.1-2.4.3-3.6.6-18.8 4.1-18.3 22.9-18.3 23.1v24.7c.3 14.5 8.5 19.8 8.8 20.1l14.6 10.3c4.4 2.6 3.9 9.6 3.9 9.7v11.4c-.1 2.8-.8 4.9-2 6-.9.8-1.8.8-1.8.8-.9 0-1.6-.3-2.2-.8-1.9-1.9-1.8-6.2-1.8-6.2v-11.6h-18.8v40.1l.3-.3.7-.6 4.2-3.5c7.8 7.6 16.6 7.2 17 7.2 7.6.1 13.5-2 17.7-6.1 5.9-5.8 5.9-13.6 5.9-14v-25.9c.2-13.5-7.7-19.8-8-20-9.4-6.8-15.8-11.3-15.9-11.3-1.4-.9-2.1-2.6-2.4-4.2-.2-.9-.3-1.9-.4-2.6v-16c.1-6.6 3.5-6.7 3.6-6.7 1.1 0 2 .3 2.7 1 1.7 1.7 1.6 5 1.6 5v18.9l.1.7h18.9v-44.9l-.9.3-4 1.4c-7.1-7.1-18-6.7-18.5-6.7m21.9 6.9v41.6h-16.2v-18.2c0-.1.1-3.9-2-6-.9-1-2.2-1.4-3.6-1.4-.2 0-4.9 0-5 8v14.1c0 .3-.4 7.3 3.4 9.8 0 0 6.5 4.5 15.8 11.3.1 0 7.7 6.1 7.5 18.9V299c0 .1 0 7.6-5.5 13-3.9 3.9-9.5 5.8-16.8 5.7-.1 0-8.9.5-16.4-7.2l-.4-.4-.5.4-3.6 2.9v-35.9h16.1v10.2c0 .2-.1 4.9 2.2 7.2.9.9 1.9 1.3 3.2 1.2h-.1c.1 0 1.4.1 2.8-1 1.5-1.3 2.4-3.7 2.5-7v-11.3c0-.3.6-7.9-4.5-10.9.1 0-14.6-10.3-14.6-10.3-.1-.1-7.9-5.2-8.2-19v-24.7c0-.9-.6-20.9 22-22.4.1 0 11.1-.4 17.5 6.5l.3.3.4-.1 3.7-1.2z"/><path fill="#FFC627" d="M368.1 196c-6.4-6.9-17.4-6.5-17.5-6.5-22.5 1.6-22 21.6-22 22.4v24.7c.3 13.8 8.1 18.9 8.2 19 0 0 14.7 10.3 14.6 10.3 5.1 3 4.5 10.6 4.5 10.9v11.3c-.1 3.3-1 5.7-2.5 7-1.3 1.2-2.7 1-2.8 1h.1c-1.2 0-2.3-.4-3.2-1.2-2.3-2.3-2.2-7-2.2-7.2v-10.2h-16.1v35.9l3.6-2.9.5-.4.4.4c7.5 7.6 16.3 7.2 16.4 7.2 7.2.1 12.9-1.9 16.8-5.7 5.5-5.4 5.5-12.9 5.5-13v-25.9c.2-12.8-7.4-18.9-7.5-18.9-9.4-6.8-15.8-11.3-15.8-11.3-3.8-2.5-3.5-9.5-3.4-9.8V219c.1-8 4.8-8 5-8 1.5 0 2.7.4 3.6 1.4 2.1 2.1 2 5.9 2 6v18.2h16.2V195l-3.6 1.2-.4.1-.4-.3z"/><path fill="#FFF" d="M172.5 307.2s0-.1.1-.1c.3-.4.5-.8.8-1.2.3-.5.5-.9.8-1.4 0-.1.1-.2.2-.3.3-.7.7-1.3 1-2.1l.1-.1v-53.5h-22.6v16.6h3.2v18.6c.1 1.5.1 5.7-1.4 7.4-.4.5-.9.7-1.6.7 0 0-.6 0-1.2-.6-.8-.8-1.7-2.8-1.4-7.2v-59.1c-.1-1.3.1-5 1.5-6.5.4-.4.8-.6 1.4-.6 0 0 .6 0 1.2.6.7.7 1.5 2.2 1.4 5.6v14.9h19.7v-41.1l-1 .4-2.8 1.3c-1.5-1.9-8.1-9.3-18.1-8.9-.2 0-21.6.3-23 24.7V295c0 .3-.1 4.8 1.8 9.9 1 2.7 2.5 5.5 4.9 8 4 4.1 9.5 6.2 16.4 6.2.1 0 6.1.2 12.3-4.5.2-.2.5-.4.7-.6 1.7-1.7 3.8-3.9 5.6-6.8m-19 10.5c-6.5 0-11.7-2-15.4-5.8-6.5-6.7-6.3-16.9-6.3-17v-79.8c1.3-23.1 20.8-23.4 21.7-23.4 10.5-.4 17.3 8.7 17.3 8.8l.3.4.5-.2 2.4-1.1v37.7h-16.9v-13.5c.1-3.1-.6-5.4-1.9-6.7-1-1-2.1-1-2.2-1-.9 0-1.7.3-2.4 1-2.1 2.2-1.8 7.2-1.8 7.4v59c-.2 4 .4 6.8 1.9 8.3 1 1 2.1 1 2.2 1 1 0 1.8-.4 2.5-1.2 2.2-2.5 1.8-8.1 1.8-8.3v-19.9H154v-13.8h19.9v51.9c-7.2 16.7-19.8 16.3-20.4 16.2"/><path fill="#FFC627" d="M173.9 301.7v-51.9H154v13.8h3.2v19.9c0 .2.5 5.9-1.8 8.3-.7.7-1.5 1.1-2.5 1.2-.1 0-1.2 0-2.2-1-1.5-1.5-2.1-4.3-1.9-8.3v-59c0-.2-.2-5.3 1.8-7.4.6-.7 1.4-1 2.4-1 .1 0 1.2 0 2.2 1 1.3 1.3 1.9 3.5 1.9 6.7v13.5H174v-37.7l-2.4 1.1-.5.2-.3-.4c-.1-.1-6.8-9.2-17.3-8.8-.8 0-20.4.3-21.7 23.4V295c0 .1-.2 10.3 6.3 17 3.7 3.8 8.9 5.8 15.4 5.8.6 0 13.2.4 20.4-16.1"/><path fill="#FFF" d="M118.9 313c4.8-4.9 7.1-12.1 6.8-21.6v-64.9c0-.1-.3-6 3.5-8.3l.3-.2v-21.4l-.8.2c-.1 0-8.3 2-23.6 9.2l-.4.2V227l.8-.2s.2 0 .5.2c.3.3.8 1 .7 3.2l-.1 53.9c0 1.6-.2 6-1.5 7.2-.2.2-.5.3-.7.3h-.2s-.6.1-1.1-.4c-.7-.6-1.7-2.3-1.6-7.2v-46.4c-.2-3.2.1-8.8 1.3-10l.2-.2V207l-.9.4c-.1.1-14.6 6.3-22.9 12.2l-.3.2v20.4l.9-.3s1-.3 1.7.2 1 1.6 1 3.3v46.5c0 .5-1 12.8 5.3 21.3.4.5.8 1 1.3 1.5 3.7 4.1 8.8 6.2 15.2 6.2.3 0 5.1 0 10.1-2.8.9-.5 1.7-1.1 2.6-1.8.4-.3.8-.6 1.2-1 .2.1.5-.1.7-.3m-14.5 4.8c-6 0-10.8-2-14.3-5.8-7.3-8-6.2-21.8-6.2-21.9v-46.5c0-2.1-.5-3.6-1.6-4.4-.7-.5-1.5-.6-2-.6v-18.1c7-4.9 18.1-10 21.4-11.5v18c-1.8 2.4-1.5 9.9-1.5 10.8v46.3c-.1 4.2.6 7 2.1 8.3 1 .8 2 .7 2.2.7.6 0 1.2-.2 1.6-.7 2-1.9 1.9-7.6 1.9-8.2l.1-53.8c0-2.1-.4-3.5-1.2-4.2-.3-.2-.5-.4-.8-.4v-18.6c12.2-5.7 19.7-8.1 22.1-8.7v18.9c-4.2 2.8-3.9 9-3.8 9.3v64.8c.3 9.1-1.9 16-6.4 20.6-5.8 5.8-13.5 5.7-13.6 5.7"/><path fill="#FFC627" d="M124.3 291.4v-64.8c0-.3-.4-6.5 3.8-9.3v-18.9c-2.4.7-9.9 3-22.1 8.7v18.6c.2.1.5.2.8.4.9.7 1.3 2.2 1.2 4.2l-.1 53.8c0 .6.1 6.3-1.9 8.2-.5.4-1 .7-1.6.7-.2 0-1.2.1-2.2-.7-1.5-1.3-2.2-4.1-2.1-8.2v-46.3c0-.9-.3-8.4 1.5-10.8v-17.8c-3.3 1.4-14.4 6.5-21.4 11.5v18.1c.6 0 1.3.1 2 .6 1.1.8 1.6 2.2 1.6 4.4v46.5c0 .1-1.1 13.9 6.2 21.9 3.4 3.8 8.2 5.7 14.3 5.8.1 0 7.8 0 13.5-5.8 4.6-4.8 6.8-11.7 6.5-20.8"/><path fill="#041E41" d="M149 131.2l-1.6 1.3.3.4-.2.1s-36 29.6-39 32.1c1.7-.5 3.3-1.1 5.1-1.6 13.4-4.4 27.6-7.9 42.5-10.4 7.6-1.3 15.4-2.3 23-3 7.2-.7 14.5-1.1 21.8-1.3.5 0 47.1-2.4 102.8 19.2 2.8 1 5.6 2.1 8.4 3.2l-45.9-39 .3-.4-1.6-1.3-.2-.2-56.5-48-59.1 48.7-.1.2zm59.4-43.1l50.9 43 3.1 2.6-6.1-2.6-26.6-11.1v14.4l-3.2-3.1-9.8-9.6-3.5 9.7-3.8 10.5-4.6-10.4-4.6-10.5-11.1 9.2-3.5-11.3-29.3 11.7 52.1-42.5z"/><path fill="#FFF" d="M189.1 130.3l11.1-9.2 4.6 10.5 4.6 10.4 3.8-10.5 3.5-9.7 9.7 9.6 3.2 3.1v-14.4l26.6 11 6.2 2.6-3.1-2.6-50.9-43-52.2 42.6 29.4-11.8z"/></svg>