<svg id="Layer_1" xmlns="http://www.w3.org/2000/svg" viewBox="0 0 400 400"><style>.st3{fill:#fff}</style><path d="M347 199.6c0 81.5-66.1 147.6-147.6 147.6S51.8 281.1 51.8 199.6C51.7 118.1 117.8 52 199.4 52 280.9 52 347 118.1 347 199.6" fill="#b3b2b1"/><path d="M342.8 199.6c0 79.2-64.2 143.4-143.4 143.4S56 278.8 56 199.6 120.2 56.2 199.4 56.2s143.4 64.2 143.4 143.4" fill="#003da6"/><path d="M321.6 199.6c0 67.5-54.7 122.3-122.3 122.3-67.5 0-122.3-54.7-122.3-122.3 0-67.5 54.7-122.3 122.3-122.3s122.3 54.8 122.3 122.3" fill="#dd0031"/><path class="st3" d="M199.4 77.3c-67.4 0-122.3 54.9-122.3 122.3S132 321.9 199.4 321.9 321.7 267 321.7 199.6c-.1-67.4-54.9-122.3-122.3-122.3M84.2 203.2h22.5V196H84.2c.1-2.7.2-5.4.5-8.1 8-40.2 56.3-71.1 114.7-71.1 58.3 0 106.7 31 114.7 71.1.3 2.7.4 5.4.5 8.1H292v7.2h22.5c-.1 2.7-.2 5.4-.5 8.1-8 40.1-56.4 71.1-114.7 71.1-58.3 0-106.7-31-114.7-71.1-.2-2.7-.3-5.4-.4-8.1M199.4 84.4c48.8 0 90.7 30.5 107.4 73.5-20.5-28-60.9-47.2-107.4-47.2-46.5 0-86.9 19.1-107.4 47.2 16.7-43 58.5-73.5 107.4-73.5m0 230.5c-48.8 0-90.7-30.5-107.4-73.5 20.5 28 60.9 47.2 107.4 47.2 46.5 0 86.9-19.1 107.4-47.2-16.8 42.9-58.6 73.5-107.4 73.5"/><path class="st3" d="M147.7 202.8h8.6v38.8h-8.6zm33.1 0h-.3c-2.4 0-11.3-.1-13 0h-.4c-2.6 0-4.3 1.2-4.7 3.5-.1.4-.1.6-.1.6 0 .1-.6 7.4.1 9.4 1.2 3.3 3.9 4.6 6.3 5.3.1 0 .2.1.3.1.2 0 .3.1.5.2.3.1.5.3.6.4v14H163v5.2h9.4c3.3-.1 5.5-1.6 6.3-4 .2-1.9.3-14.9.1-17.6-.1-1-.5-1.9-1.5-2.6-.4-.3-.8-.6-1.4-.9-.5-.3-1.1-.5-1.6-.8-2-1-4.3-2.1-4.3-4.7v-2.2h6.8c1.4 0 2.5-.7 3.2-2 .5-1 .7-2 .7-2 .1-.6 0-1.2 0-1.6l.1-.3zm39.6 0c-1.9 0-4 .1-5.6.5-4.2 1-6.3 3.8-6.3 8.7v23.1c0 5.9 4.2 7.1 10.6 7.1 7.7 0 12.1-2.7 12.1-7.5v-24.1c0-7.8-5-7.8-10.8-7.8m-2.9 8.8c0-1 .1-1.8.3-2.4l.2-.1c.4-.1.8-.1 1.2-.1h.2c2.9 0 3 .9 3 6.2v17.6c0 .5-.1.9-.2 1.3l-.2.2c-.5.1-1 .1-1.5.1-1.1 0-1.8-.2-2.3-.7-.7-.7-.7-1.9-.7-3.3v-18.8m33.7 7.7c-4.1-15-10.8-16.6-13.5-16.6-.7 0-1.1.1-1.2.1l-.2.1v38.8h8.8v-15.6l6.1 15.6h8.9v-38.8h-8.9v16.4zm-114-16.5h-22.1v.3s-.2 4.6 4.9 5.7v32.9h9v-16.5h7.5c4 0 6.3-2.6 6.3-7.2v-1.4c-.1-11-.5-13.2-5.6-13.8m-3.5 17.3h-4.9v-11.3s2.6-.1 3 0c1 .1 1.8.5 1.8 1.7.1.3.1 9.6.1 9.6m72.1-17.2h-20.2v6.1h5.8v32.8h8.9V209h.3c1.6 0 2.9-.5 3.8-1.4 1.6-1.7 1.5-4.3 1.5-4.4l-.1-.3zm77.9-.1h-.3c-2.4 0-11.3-.1-13 0h-.4c-2.6 0-4.3 1.2-4.7 3.5-.1.4-.1.6-.1.6 0 .1-.6 7.4.1 9.4 1.2 3.3 3.9 4.6 6.3 5.3.1 0 .2.1.3.1.2 0 .3.1.5.2.3.1.5.3.6.4v14h-7.1v5.2h9.4c3.3-.1 5.5-1.6 6.3-4 .2-1.9.3-14.9.1-17.6-.1-1-.5-1.9-1.5-2.6-.4-.3-.8-.6-1.4-.9-.5-.3-1.1-.5-1.6-.8-2-1-4.3-2.1-4.3-4.7v-2.2h6.8c1.4 0 2.5-.7 3.2-2 .5-1 .7-2 .7-2 .1-.6 0-1.2 0-1.6l.1-.3zm-79.4-24h1.5c1.4 0 3.9.5 3.9 3.1 0 1.2.1 5.1.2 6.6v.6c0 .2.1 2.1.2 2.5.6 2.3 2.4 3.6 5.1 3.9h2.5v-13.8c0-1.2-.6-2.8-1.6-4l-.2-.2c1.4-1.6 1.9-3.1 1.9-5.5v-1.4c0-10.7-.4-12.9-5.4-13.4h-16.8v37.9h8.6v-16.3zm0-15.8h1.7c2.3 0 3.1 0 3 4 0 3.2 0 3.4-.1 4.9v.3c0 .5-.2 1-.5 1.3-.2.2-.4.3-.7.3h-3.5V163zm53.6-6h-8.4v37.9h8.4zM177 195h8.7v-32h.3c1.6 0 2.8-.5 3.7-1.4 1.6-1.7 1.5-4.1 1.5-4.3v-.3h-19.8v6h5.6v32zm91 0h8.7v-32h.3c1.6 0 2.8-.5 3.7-1.4 1.6-1.7 1.5-4.1 1.5-4.3v-.3h-19.8v6h5.6v32zm-101.2-6.1h-9.1v-9.3h6.2v-8.2h-6.2v-8.5h9.1V157h-17.5l-.1 37.9h17.6zM138.3 157h-21.6v.2c0 .1-.3 2.3 1.1 3.9.9 1.1 2.2 1.6 4 1.8v31.9h16.1c3.7 0 6.1-3.1 6.1-7.8v-17.6c0-9.6 0-12.2-5.7-12.4m-3 31.9h-4.8V163c3-.1 3.6.1 3.7.2 1.1.4 1.1 2.5 1.1 2.6.2 2.9 0 20.7 0 23.1m98.8-31.9c-1.9 0-3.9.1-5.6.5-4.2 1-6.2 3.8-6.2 8.5v22.6c0 5.8 4.2 7 10.5 7 7.6 0 12-2.7 12-7.3v-23.6c.1-7.7-4.9-7.7-10.7-7.7m-2.8 8.6c0-1 .1-1.8.3-2.4l.2-.1c.4-.1.8-.1 1.2-.1h.2c2.9 0 3 .9 3 6.1v17.3c0 .5-.1.9-.2 1.3l-.2.1c-.5.1-1 .1-1.5.1-1.1 0-1.8-.2-2.3-.7-.7-.7-.7-1.9-.7-3.2v-18.4"/></svg>