<svg xmlns="http://www.w3.org/2000/svg" width="400" height="400"><path fill="#2E2A25" d="M238.814 163.637c-.028.301-.076.603-.094.9l-.153 27.783 4.289-2.367-.088-14.617c2.938.109 7.495.667 7.43 3.08l.147 11.537 4.073 2.374-.1-14.725c-.013-4.312-6.373-2.793-6.373-2.793s7.95-1.841 7.513-8.382c-.263-3.928-4.516-5.884-12.081-5.095-.342.034-.677.078-1.012.119-.321-2.043-.84-3.958-1.654-6.033-.765 2.205-1.354 4.398-1.694 6.551-4.562.839-7.771 1.964-7.771 1.964s3.512-.343 7.568-.296m12.159 3.958c.666 5.33-4.87 6.987-8.204 7.505l-.065-10.563c-.015-.247-.038-.485-.061-.723 4.205.361 8.025 1.364 8.33 3.781m21.201-5.499h-5.264s-5.648 0-5.648 5.356v17.318c0 5.429 5.648 5.352 5.648 5.352h5.264s5.648.077 5.648-5.352v-17.318c0-5.356-5.648-5.356-5.648-5.356m1.244 22.004c0 2.465-1.481 4.137-3.875 4.137-2.354 0-3.872-1.202-3.872-4.137v-15.911c0-2.938 1.621-4.139 3.872-4.139 2.342 0 3.875 1.67 3.875 4.139V184.1zm21.413-22.004h-5.265s-5.651 0-5.651 5.356v17.318c0 5.427 5.651 5.354 5.651 5.354h5.265s5.649.073 5.649-5.354v-2.191h-4.409v1.52c0 2.468-1.479 4.138-3.871 4.138-2.357 0-3.874-1.202-3.874-4.138v-15.911c0-2.937 1.622-4.137 3.874-4.137 2.341 0 3.871 1.671 3.871 4.137v1.526h4.409v-2.262c0-5.356-5.649-5.356-5.649-5.356m84.343 11.383c-3.589 0-4.768-.133-4.768-3.19l-.016-2.752c0-2.256.472-3.56 4.037-3.56 3.653 0 4.125 1.813 4.138 4.03l-.013 1.474 3.977-2.077v-.516c0-4.867-4.728-4.868-4.728-4.868h-6.203s-5.341.023-5.341 4.468v4.278c0 3.816.156 5.067 5.586 5.067 4.148 0 6.709.095 6.709 3.692v4.035c0 3.172-.472 4.584-3.915 4.584-3.775 0-4.247-1.829-4.247-5.053l-.018-1.995-3.97 1.697.011 3.043c0 4.287 5.181 4.283 5.181 4.283h6.204s4.884 0 4.884-5.512v-6.014c.001-4.78-2.304-5.114-7.508-5.114m-46.217 10.391l-.03-6.688 1.519.006c3.364-.212 6.48-.657 9.989-1.969-2.747-1.112-6.22-1.621-9.989-1.885l-1.511-.004.022-4.632c-.082-.765.572-2.189.896-2.683 1.224-1.315 3.191-1.23 3.191-1.23l7.488-.017c-.569-3.007-5.608-2.488-5.608-2.488h-4.6s-5.972-.027-5.972 5.579l.035 7.9-.026 8.973c-.035 5.461 5.963 5.407 5.963 5.407h4.6s5.105.529 5.619-2.548l-7.605.043c0-.001-3.981.243-3.981-3.764m14.739-21.643v3.637h6.777l-.014 23.19 4.207 2.806.007-25.997h1.557c3.417-.182 5.613-.711 8.1-1.817-2.486-1.185-4.683-1.589-8.098-1.813l-12.536-.006zm-24.404.004h-4.1l-8.63 12.287v-12.459l-4.303-2.782v32.569l4.303-2.777V175.06l9.142 14.501h4.704l-9.773-15.478zm-275.144-.149h-5.269s-5.653 0-5.653 5.365v17.333c0 5.436 5.653 5.361 5.653 5.361h5.269s5.656.075 5.656-5.361v-17.333c0-5.365-5.656-5.365-5.656-5.365m1.246 22.029c0 2.47-1.481 4.142-3.88 4.142-2.354 0-3.875-1.203-3.875-4.142v-15.929c0-2.939 1.624-4.139 3.875-4.139 2.349 0 3.88 1.672 3.88 4.139v15.929zm22.383-19.409l-.028 10.655-.022 8.75c0 4.131-3.347 4.104-3.347 4.104h-1.24s-3.165-.35-3.149-4.104v-8.825l.054-10.548-4.441-2.678v13.375l-.018 9.541c0 4.92 5.286 5.167 5.286 5.167h5.504s5.783-.215 5.783-5.185l.005-10.351s-.078-12.401-.076-12.54l-4.311 2.639zm74.864 27.351l3.72-2.721.041-15.818L163 190.213l-.032-20.988c-.218-4.402-.901-7.258-1.825-10.467-1.089 4.098-1.718 6.536-1.896 10.469l.01 9.333-12.633-16.468.017 29.961zm-56.069-18.584c-3.592 0-4.768-.135-4.768-3.191l-.016-2.755c0-2.26.471-3.563 4.041-3.563 3.658 0 4.127 1.813 4.141 4.032l-.014 1.478 3.981-2.082v-.517c0-4.871-4.731-4.874-4.731-4.874h-6.213s-5.344.022-5.344 4.473v4.287c0 3.815.156 5.069 5.59 5.069 4.156 0 6.717.094 6.717 3.697v4.039c0 3.175-.469 4.59-3.917 4.59-3.78 0-4.251-1.833-4.251-5.06l-.019-1.996-3.975 1.701.01 3.047c0 4.292 5.184 4.29 5.184 4.29h6.214s4.893 0 4.893-5.52v-6.021c-.001-4.785-2.311-5.124-7.523-5.124m10.542-10.591v3.575h6.666l-.014 22.81 4.137 2.757.008-25.567h1.529c3.363-.178 5.521-.697 7.971-1.784-2.45-1.167-4.608-1.564-7.969-1.785l-12.328-.006zm33.58 27.268s5.653.075 5.653-5.36v-17.333c0-5.363-5.653-5.363-5.653-5.363h-5.271s-5.656 0-5.656 5.363v17.333c0 5.435 5.656 5.36 5.656 5.36h5.271zm-6.515-6.03v-15.924c0-2.943 1.627-4.143 3.881-4.143 2.345 0 3.876 1.671 3.876 4.143v15.924c0 2.471-1.479 4.144-3.876 4.144-2.358 0-3.881-1.205-3.881-4.144m-98.811-25.704c-1.119 2.853-1.643 5.369-1.843 8.45l-.046 7.499h-9.2l-.046-7.499c-.201-3.081-.727-5.597-1.844-8.45-.998 2.866-1.686 5.701-1.845 8.45l-.145 25.749 3.979-2.195-.081-13.08h9.163l-.079 13.08 3.977 2.195-.143-25.749c-.163-2.75-.848-5.585-1.847-8.45"/><path fill="#2E2A25" d="M226.092 198.966l.211-17.881c-.025-11.098-15.259-9.985-20.324-9.307 5.905-1.064 25.936-6.015 24.702-24.314-.822-12.123-15.985-18.162-41.123-15.726-.415.041-.826.085-1.241.127-1.179-8.96-3.008-17.645-5.801-25.66-3.497 10.84-5.523 19.386-6.658 27.354-15.581 2.602-26.597 6.204-26.597 6.204s12.131-1.099 25.96-.902c-1.56 15.953.072 31.099-.022 60.13-26.424-.922-49.361 4.208-49.087 12.023.241 6.836 20.554 13.116 49.1 15.513l1.214 38.765 2.001-26.287c.066-3.268 2.548-2.957 2.544-.159l.89 34.625 2.128-28.184c-.033-3.798 2.633-3.62 2.539-.218l.978 36.092 1.747-53.804a316.504 316.504 0 0 0 21.875.019l1.723 54.767 1.472-28.663c.021-3.652 2.497-3.467 2.488-.231l1.482 40.2 1.503-34.729c.109-3.412 2.841-3.263 2.907 0l1.236 46.027 1.829-78.158v-.055c28.864-2.39 49.816-8.672 49.816-15.521-.346-7.503-22.912-13.297-49.492-12.047m-11.306-47.897c2.044 15.168-13.428 20.154-24.54 21.788.118-10.893-.06-22.212-1.072-33.285 13.129 1.255 24.659 4.4 25.612 11.497m-73.835 57.681c0-4.631 17.11-7.086 34.249-9.656a792.433 792.433 0 0 1-.278 18.133l.076 2.508c-20.253-1.832-34.047-5.865-34.047-10.985m48.52 11.867l.144-4.448c-.346-11.63.41-26.302.616-41.936 9.361.964 21.425 3.508 21.225 10.241l-.338 36.157a316.963 316.963 0 0 1-21.647-.014m36.376-.864l.245-20.623c18.863 2.432 34.388 5.134 34.388 9.62-.001 5.139-14.136 9.18-34.633 11.003"/><path fill="#C3002F" d="M239.827 162.625c-.03.301-.076.602-.095.9l-.153 27.785 4.29-2.369-.088-14.617c2.936.111 7.494.667 7.427 3.08l.148 11.539 4.07 2.371-.098-14.724c-.012-4.314-6.37-2.794-6.37-2.794s7.947-1.84 7.511-8.379c-.263-3.929-4.515-5.887-12.084-5.098-.337.037-.675.079-1.008.12-.321-2.041-.841-3.957-1.654-6.033-.769 2.207-1.354 4.397-1.696 6.55-4.56.839-7.766 1.966-7.766 1.966s3.508-.341 7.566-.297m12.157 3.958c.665 5.33-4.871 6.989-8.207 7.504l-.062-10.562a40.91 40.91 0 0 0-.062-.726c4.204.364 8.026 1.367 8.331 3.784m21.203-5.499h-5.263s-5.652 0-5.652 5.355v17.317c0 5.43 5.652 5.354 5.652 5.354h5.263s5.647.076 5.647-5.354v-17.317c0-5.355-5.647-5.355-5.647-5.355m1.24 22.004c0 2.468-1.478 4.138-3.873 4.138-2.354 0-3.871-1.199-3.871-4.138v-15.913c0-2.932 1.62-4.137 3.871-4.137 2.342 0 3.873 1.672 3.873 4.137v15.913zm21.415-22.004h-5.266s-5.65 0-5.65 5.357v17.317c0 5.428 5.653 5.354 5.653 5.354h5.263s5.65.073 5.65-5.354v-2.191h-4.407v1.522c0 2.468-1.48 4.137-3.875 4.137-2.354 0-3.873-1.2-3.873-4.137v-15.914c0-2.934 1.622-4.137 3.873-4.137 2.343 0 3.875 1.672 3.875 4.137v1.526h4.407v-2.261c0-5.356-5.65-5.356-5.65-5.356m84.343 11.383c-3.589 0-4.766-.135-4.766-3.188l-.017-2.754c0-2.254.469-3.561 4.037-3.561 3.654 0 4.125 1.815 4.138 4.03l-.013 1.476 3.976-2.078v-.515c0-4.868-4.726-4.87-4.726-4.87h-6.205s-5.337.023-5.337 4.468v4.28c0 3.814.153 5.066 5.582 5.066 4.151 0 6.71.096 6.71 3.693v4.034c0 3.171-.471 4.584-3.917 4.584-3.776 0-4.245-1.829-4.245-5.05l-.02-2-3.97 1.701.013 3.043c0 4.288 5.18 4.283 5.18 4.283h6.205s4.888 0 4.888-5.512v-6.013c0-4.781-2.309-5.117-7.513-5.117m-46.214 10.391l-.032-6.688 1.518.005c3.364-.212 6.482-.656 9.986-1.969-2.744-1.111-6.217-1.62-9.986-1.885l-1.514-.005.024-4.633c-.084-.764.573-2.188.896-2.681 1.225-1.315 3.192-1.229 3.192-1.229l7.49-.019c-.569-3.007-5.61-2.487-5.61-2.487h-4.6s-5.972-.026-5.972 5.579l.035 7.902-.023 8.97c-.036 5.461 5.96 5.407 5.96 5.407h4.6s5.108.529 5.62-2.547l-7.607.044c-.001.001-3.977.244-3.977-3.764m14.734-21.642v3.635h6.781l-.017 23.192 4.205 2.805.009-25.997h1.558c3.421-.182 5.614-.711 8.101-1.816-2.486-1.185-4.68-1.589-8.099-1.813l-12.538-.006zm-24.4.003h-4.102l-8.63 12.291v-12.463l-4.304-2.78v32.567l4.304-2.777v-14.011l9.144 14.503h4.703l-9.774-15.477zm-275.143-.147h-5.273s-5.652 0-5.652 5.363v17.333c0 5.435 5.652 5.359 5.652 5.359h5.273s5.655.075 5.655-5.359v-17.333c0-5.363-5.655-5.363-5.655-5.363m1.242 22.027c0 2.47-1.479 4.144-3.878 4.144-2.356 0-3.876-1.205-3.876-4.144v-15.927c0-2.941 1.625-4.141 3.876-4.141 2.346 0 3.878 1.671 3.878 4.141v15.927zm22.385-19.408l-.028 10.658-.022 8.748c0 4.131-3.345 4.104-3.345 4.104H68.15s-3.163-.351-3.151-4.104l.004-8.677v-.148l.052-10.548-4.442-2.678v13.374l-.019 9.542c0 4.917 5.29 5.166 5.29 5.166h5.503s5.783-.215 5.783-5.184l.006-10.351-.082-12.542-4.305 2.64zm74.862 27.349l3.718-2.72.041-15.816 12.602 16.695-.035-20.984c-.216-4.403-.899-7.262-1.823-10.467-1.091 4.097-1.718 6.534-1.894 10.467l.008 9.334-12.632-16.469.015 29.96zm-56.068-18.582c-3.59 0-4.769-.133-4.769-3.191l-.016-2.755c0-2.26.471-3.564 4.041-3.564 3.659 0 4.127 1.813 4.141 4.033l-.013 1.478 3.984-2.08v-.52c0-4.87-4.734-4.872-4.734-4.872h-6.211s-5.346.021-5.346 4.475v4.285c0 3.815.158 5.069 5.59 5.069 4.158 0 6.717.094 6.717 3.697v4.041c0 3.173-.469 4.59-3.921 4.59-3.775 0-4.247-1.835-4.247-5.061l-.018-1.998-3.976 1.7.013 3.049c0 4.291 5.186 4.287 5.186 4.287h6.209s4.896 0 4.896-5.516v-6.021c-.002-4.789-2.314-5.126-7.526-5.126m10.543-10.591v3.576h6.666l-.014 22.809 4.135 2.756.01-25.565h1.531c3.36-.178 5.52-.7 7.967-1.785-2.447-1.167-4.607-1.564-7.965-1.785l-12.33-.006zm33.578 27.269s5.655.074 5.655-5.361v-17.333c0-5.363-5.655-5.363-5.655-5.363h-5.269s-5.657 0-5.657 5.363v17.333c0 5.436 5.657 5.361 5.657 5.361h5.269zm-6.513-6.031v-15.924c0-2.943 1.625-4.145 3.878-4.145 2.347 0 3.876 1.673 3.876 4.145v15.924c0 2.47-1.479 4.142-3.876 4.142-2.358.001-3.878-1.203-3.878-4.142m-98.81-25.706c-1.117 2.852-1.645 5.371-1.846 8.453l-.045 7.496h-9.198l-.047-7.496c-.2-3.082-.727-5.601-1.845-8.453-.999 2.866-1.682 5.702-1.846 8.453l-.143 25.746 3.975-2.195-.076-13.077h9.161l-.079 13.077 3.976 2.195-.142-25.746c-.164-2.751-.849-5.587-1.845-8.453"/><path fill="#C3002F" d="M227.33 197.728l.213-17.882c-.028-11.095-15.259-9.986-20.324-9.31 5.908-1.061 25.934-6.013 24.698-24.311-.82-12.123-15.982-18.162-41.118-15.727-.417.042-.829.085-1.242.129-1.18-8.961-3.007-17.645-5.803-25.661-3.497 10.839-5.523 19.385-6.656 27.352-15.583 2.602-26.598 6.208-26.598 6.208s12.131-1.1 25.961-.903c-1.562 15.952.071 31.098-.023 60.13-26.424-.924-49.363 4.205-49.087 12.021.242 6.836 20.555 13.118 49.098 15.516l1.217 38.761 1.999-26.286c.067-3.265 2.549-2.954 2.545-.159l.89 34.625 2.13-28.183c-.035-3.797 2.629-3.619 2.536-.218l.98 36.093 1.743-53.804c3.661.13 7.411.197 11.23.197 3.61 0 7.161-.063 10.646-.178l1.723 54.765 1.471-28.664c.022-3.647 2.496-3.467 2.489-.229l1.479 40.198 1.507-34.728c.107-3.414 2.839-3.263 2.903 0l1.237 46.027 1.832-78.159.002-.052c28.859-2.391 49.813-8.675 49.813-15.523-.343-7.501-22.913-13.294-49.491-12.045m-51.094 20.767c-20.25-1.833-34.045-5.86-34.045-10.985 0-4.63 17.108-7.082 34.248-9.655a798.137 798.137 0 0 1-.279 18.133l.076 2.507zm14.177-80.16c13.129 1.254 24.658 4.398 25.612 11.494 2.042 15.17-13.429 20.156-24.54 21.787.118-10.89-.057-22.209-1.072-33.281m21.941 81.058a311.76 311.76 0 0 1-21.643-.014l.143-4.45c-.347-11.628.409-26.299.617-41.933 9.36.966 21.422 3.508 21.224 10.241l-.341 36.156zm14.731-.879l.243-20.623c18.864 2.432 34.39 5.134 34.39 9.619 0 5.139-14.136 9.18-34.633 11.004"/></svg>