<svg xmlns="http://www.w3.org/2000/svg" width="400" height="400"><path d="M23.341 178.375c-3.52 3.212-5.281 7.39-5.275 12.456v91.746c.002 5.169 1.757 9.388 5.275 12.602 3.508 3.223 7.846 4.563 12.979 4.13 8.208-.688 16.424-1.328 24.649-1.912v-17.342c-8.225.419-16.441.873-24.649 1.367v-89.434c8.208.494 16.424.949 24.649 1.368v-17.342a1958.969 1958.969 0 0 1-24.649-1.912c-5.131-.435-9.464.959-12.979 4.273m59.614-.92a1966.75 1966.75 0 0 1-18.323-1.184V297.14a1953.57 1953.57 0 0 1 40.024-2.366v-16.592c-7.238.256-14.473.534-21.701.843v-101.57zm25.376 117.144c6.227-.292 12.459-.556 18.693-.789V179.602c-6.234-.234-12.466-.498-18.693-.791v115.788zm53.233-114.009a1970.93 1970.93 0 0 1-30.865-.857v113.942c6.127-.219 12.257-.407 18.386-.569v-48.345c4.161-.016 8.317-.027 12.479-.042 5.082-.014 9.392-1.567 12.938-4.646 3.635-3.078 5.471-6.858 5.465-11.346v-31.905c0-4.4-1.83-8.151-5.465-11.276-3.544-3.201-7.861-4.856-12.938-4.956m0 48.098c-4.161-.013-8.321-.025-12.479-.042v-32.23c4.161.079 8.317.146 12.479.208v32.064zm162.155 11.604c3.627-3.265 5.438-7.321 5.441-12.142v-34.217c.002-4.726-1.811-8.653-5.441-11.712-3.533-3.169-7.824-4.571-12.892-4.292a1939.693 1939.693 0 0 1-30.817 1.474v114.601c6.125.244 12.248.52 18.367.819v-49.321a6319.841 6319.841 0 0 1 15.246 50.133c6.114.35 12.226.729 18.331 1.134a5415.476 5415.476 0 0 0-16.011-52.326c2.895-.726 5.508-2.056 7.776-4.151m-25.342-45.101c4.151-.146 8.304-.304 12.45-.465-.002 11.191-.002 22.389 0 33.583-4.146.033-8.299.064-12.45.092v-33.21zm-83.837-14.255c-10.3.07-20.596.059-30.894-.03v111.599c6.136-.054 12.27-.081 18.406-.076v-47.764c4.163 0 8.324.002 12.487.008 5.079.003 9.392-1.523 12.94-4.599 3.646-3.073 5.461-6.865 5.461-11.366V196.72c0-4.416-1.822-8.14-5.461-11.171-3.549-3.123-7.858-4.651-12.939-4.613m0 47.802c-4.163.002-8.322.006-12.487.006v-31.843c4.163-.002 8.324-.009 12.487-.032v31.869zm22.081 64.01c13.389.242 26.771.616 40.141 1.131v-16.335c-7.243-.202-14.491-.37-21.743-.512v-32.261c4.158.018 11.58.034 15.732.052.002-5.412.002-10.826 0-16.239-4.152.021-11.574.038-15.732.055v-32.261c7.254-.142 14.5-.312 21.743-.511v-16.336c-13.369.512-26.754.889-40.141 1.131v112.086m147.314-83.566v-18.351c-.003-5.07-1.806-9.244-5.417-12.444-3.515-3.317-7.796-4.706-12.834-4.285-5.14.429-10.279.841-15.425 1.231-5.149.391-9.484 2.432-13.011 6.073-3.53 3.548-5.293 7.664-5.295 12.395v34.323c0 4.83 1.767 8.877 5.295 12.223 3.526 3.343 7.867 5.069 13.011 5.123 5.146.056 10.287.117 15.425.177v35.774a2464.2 2464.2 0 0 0-15.425-.88v-17.535a5000.98 5000.98 0 0 0-18.306-.561v17.162c0 4.829 1.767 8.981 5.295 12.532 3.526 3.553 7.867 5.544 13.011 5.934 5.146.392 10.287.802 15.425 1.234 5.045.424 9.322-.92 12.834-4.144 3.609-3.204 5.417-7.418 5.417-12.587V245.88c-.003-5.07-1.806-9.388-5.417-12.872-3.515-3.59-7.796-5.307-12.834-5.246-5.14.063-10.279.12-15.425.177V192.87c5.146-.281 10.287-.574 15.425-.88v17.885c6.089-.222 12.171-.452 18.251-.693"/><path d="M37.327 176.135c7.226.608 14.769 1.196 22.418 1.751v-.735a1947.03 1947.03 0 0 1-23.528-1.831 19.073 19.073 0 0 0-1.683-.075c-4.1 0-7.487 1.315-10.354 4.018-3.253 2.969-4.896 6.858-4.893 11.567v91.746c.002 3.879 1.069 7.189 3.182 9.876-1.57-2.493-2.364-5.438-2.367-8.788v-91.746c-.005-4.787 1.668-8.744 4.979-11.768 2.92-2.751 6.367-4.09 10.541-4.09.554.001 1.127.027 1.705.075m44.405 3.218v-.747c-5.296-.321-10.638-.666-15.879-1.025v118.25l.816-.055v-117.4l.146.012c4.815.329 9.833.654 14.917.965m44.07 2.196v-.772c-5.324-.203-10.789-.431-16.249-.685v113.225l.815-.034V180.895l.142.006c4.956.229 10.1.447 15.292.648m36.83 1.078c3.699.075 7.003 1.028 9.859 2.842-3.085-2.344-6.76-3.574-10.951-3.657-9.834-.197-19.799-.469-29.62-.813v111.414l.817-.029V181.805l.139.004c9.863.347 19.874.622 29.756.818m150.529-2.694c3.318 0 6.207.782 8.76 2.384-2.805-2.152-6.039-3.2-9.846-3.2-.389 0-.783.011-1.181.033-9.728.543-19.704 1.023-29.661 1.428v112.253l.815.035V181.405l.131-.005c10.044-.408 20.066-.892 29.785-1.435.408-.022.808-.032 1.197-.032m-111.052 3.086c4.514 0 9.065-.015 13.524-.045h.166c3.774 0 7.034.88 9.887 2.684-3.095-2.353-6.697-3.5-10.974-3.5h-.165a1988.375 1988.375 0 0 1-29.677-.019v109.132l.815-.004V182.952l.136.002c5.418.044 10.899.065 16.288.065m73.43-2.218c-12.463.471-25.146.826-37.696 1.062V291.55l.816.015V182.683l.134-.002c12.143-.227 24.506-.572 36.746-1.027v-.853zm91.31-4.665c.55-.045 1.102-.07 1.638-.07 3 0 5.637.717 7.985 2.178-2.607-2.013-5.591-2.994-9.073-2.994-.523 0-1.067.021-1.613.067-5.116.43-10.309.846-15.433 1.234-4.797.362-8.91 2.282-12.226 5.704-3.332 3.348-4.95 7.122-4.95 11.547v34.322c0 3.601 1.034 6.702 3.148 9.405-1.567-2.45-2.334-5.195-2.334-8.318v-34.324c0-4.496 1.647-8.336 5.026-11.735 3.365-3.47 7.536-5.417 12.402-5.783 5.105-.388 10.297-.802 15.43-1.233" fill="#BDBFC1"/><path fill="#006BB5" d="M18.065 319.177c121.202-15.13 244.668-15.13 365.869 0v-6.354c-121.201-14.011-244.667-14.011-365.869 0v6.354z"/><path fill="#EC174C" d="M62.213 336.079c91.625-23.738 185.953-23.738 277.574 0v-5.995c-91.625-23.093-185.949-23.097-277.574 0 .003 1.999.003 3.995 0 5.995"/><path fill="#006BB5" d="M164.668 162.955a1476.5 1476.5 0 0 1-146.603-10.896v6.352c51.68 5.975 103.771 9.391 155.921 10.271a60.984 60.984 0 0 1-9.318-5.727m72.664 0a60.938 60.938 0 0 1-9.317 5.726c52.148-.879 104.24-4.295 155.92-10.271v-6.352a1475.9 1475.9 0 0 1-146.603 10.897"/><path fill="#EC174C" d="M152.467 150.782c-30.247-2.693-60.393-7.892-90.253-15.626.002 2.002.002 3.997 0 5.997 31.564 7.956 63.448 13.168 95.434 15.642a60.926 60.926 0 0 1-5.181-6.013m97.064.002a60.9 60.9 0 0 1-5.18 6.01c31.985-2.473 63.872-7.687 95.436-15.642v-5.996c-29.86 7.736-60.009 12.935-90.256 15.628"/><path fill="#FFF" d="M144.605 114.317c0-31.147 25.249-56.396 56.396-56.396 31.145 0 56.393 25.249 56.393 56.396s-25.248 56.396-56.393 56.396c-31.147 0-56.396-25.249-56.396-56.396"/><path d="M200.999 57.923c-31.094 0-56.393 25.299-56.393 56.396 0 31.094 25.299 56.393 56.393 56.393 31.098 0 56.396-25.299 56.396-56.393 0-31.097-25.298-56.396-56.396-56.396m40.767 25.061c6.451 8.371 10.114 18.333 10.617 28.862h-21.251c.499-10.517 4.172-20.482 10.634-28.862m-81.53 0c6.461 8.379 10.131 18.344 10.632 28.862h-21.25c.5-10.528 4.166-20.491 10.618-28.862m0 62.666c-6.453-8.371-10.118-18.333-10.617-28.861h21.25c-.502 10.519-4.174 20.482-10.633 28.861m43.236 20.049v-14.736h-4.943v14.736c-13.387-.637-25.801-6.378-35.02-16.195 7.534-9.406 11.784-20.707 12.305-32.715v-4.943c-.521-12.009-4.771-23.308-12.305-32.715 9.219-9.816 21.632-15.558 35.02-16.194v14.602h4.943V62.937c13.387.636 25.802 6.375 35.021 16.194-7.535 9.407-11.784 20.707-12.305 32.715v4.943c.521 12.008 4.77 23.309 12.305 32.715-9.22 9.819-21.635 15.559-35.021 16.195m38.294-20.049c-6.462-8.379-10.135-18.344-10.634-28.861h21.251c-.503 10.528-4.166 20.491-10.617 28.861"/><path fill="#EC174C" d="M188.437 90.697v47.05h25.136v-6.469h-18.409V90.697z"/><path fill="#006BB5" d="M222.12 106.46V87.072c0-2.904-1.17-4.088-4.035-4.088h-34.218c-2.831 0-3.986 1.184-3.986 4.088v54.49c0 2.905 1.156 4.088 3.986 4.088h34.218c2.865 0 4.035-1.184 4.035-4.088v-19.409h-6.78V139.7h-28.73V88.935h28.73v17.526h6.78z"/><path fill="#EC174C" d="M213.563 129.457l.01-38.76h-16.332l-.16 38.76h6.542l.105-12.081h3.325l-.048 12.081h6.558zm-6.555-18.529h-3.277V97.165h3.277v13.763z"/></svg>