<svg xmlns="http://www.w3.org/2000/svg" width="400" height="400"><path d="M329.945 105.188c-9.937-10.963-31.87-19.863-60.122-25.244.124-3.244 2.104-4.62 5.62-7.054 1.832-1.269 3.92-2.709 6.003-4.693 9.115-8.659-1.581-21.921-2.039-22.48l-5.89-7.181 1.411 9.182c.968 6.294-1.341 8.521-8.181 13.292a13.44 13.44 0 0 0-2.274 1.988c.292-4.202.491-8.883-.929-14.749-1.418-5.869-4.303-8.247-4.303-8.247l-.746 8.512c-.003.052-.66 6.651-9.476 14.631a26.71 26.71 0 0 0 2.104-2.664c4.316-6.282 3.066-13.429 1.622-21.706l-.303-1.742c-1.48-8.632.826-14.011 2.312-14.894 1.445-1.763 4.316-4.693 4.316-4.693s-1.526-.676-5.764-.125c-5.513.76-14.772 4.059-14.523 11.598.104 3.317 1.17 6.462 2.115 9.24 1.01 2.976 1.968 5.789 1.113 7.234-.672 1.14-2.717 2.054-5.916 2.633-12.977 2.368-22.926 8.442-28.003 17.106a27.319 27.319 0 0 0-3.367 9.161c-32.207.1-62.696 4.112-86.339 11.428C91.89 93.918 77.281 105.082 76.141 118c-.604 6.797 2.467 16.597 19.479 26.028l-.117.119 4.828 2.308c.003.005.012.005.014.012l2.541 1.214.029-.029c7.845 3.499 17.047 6.528 27.289 9.024-3.651 2.063-7.009 4.427-10.028 7.115C103.697 177.32 94.2 197.378 94.2 218.759c0 19.019 7.404 36.904 20.858 50.355 13.451 13.45 31.33 20.857 50.355 20.857 33.666 0 62.963-23.862 69.744-56.779 5.745-17.192 5.082-35.646 4.831-42.604-.576-15.808 7.19-24.556 12.13-28.499 22.494-2.849 42.398-7.775 57.226-14.383l.024.029 2.391-1.14c.007-.003.013-.003.021-.009l5.127-2.445-.135-.133c11.929-6.662 18.591-14.492 19.326-22.839.494-5.557-1.574-10.933-6.153-15.981m-23.107 13.822c2.026 2.226 1.895 3.665 1.854 4.139-.225 2.568-3.441 5.664-8.825 8.497l-.015.005c-11.317 5.948-30.774 10.444-53.936 12.817a20.084 20.084 0 0 1 3.326-1.722l.381-.152c6.654-2.704 14.202-5.768 14.559-16.77.055-1.75.14-7.123 1.11-9.042 1.244-2.467 4.422-6.282 7.22-7.296.046-.015-4.68-.937-4.68-.937-.248-.028-.49-.034-.73-.042a12.512 12.512 0 0 0 3.545-3.964c18.811 3.912 31.46 9.244 36.191 14.467m-203.286 2.728c.804-9.083 33.543-21.083 86.462-22.957-4.908 3.685-10.73 10.116-12.168 20.464l-.541 3.917c-.348 2.413-.777 4.875-1.709 7.31-2.038 5.349-7.778 9.754-13.931 13.116-21.308-2.682-39.114-7.171-49.52-12.803l-.012-.002c-5.691-3.085-8.815-6.378-8.581-9.045m36.817 216.983l9.083-37.122h-15.005l-9.129 37.122zm32.87-27.993l.889 15.155h-7.822l7.921 12.84h13.69l-2.134-37.124h-22.582s-18.508 37.124-18.409 37.124h14.471l13.89-27.995h.086zm-34.87 62.072l-3.057 12.687h14.082l9.134-37.107h-14.085l-3.464 14.374-10.583.013 3.46-14.387h-14.088l-9.128 37.107h14.08l3.059-12.677zm33.683 4.33l1.024-5.049h17.443l2.227-8.204H175.23l1.122-5.449h17.528l2.683-10.048h-31.812l-9.131 37.107h31.573l2.262-8.353zm90.563-38.409l9.085-37.122h-15.011l-9.127 37.122zm24.908-8.461c1.987 2.772 4.179 8.188-5.104 12.396-10.768 4.882.047 17.333-14.722 17.333h-6.067l-6.112 25.499h-15.06l6.145-25.492-10.163-.007 3.194-11.608h26.083c15.461 0 4.614-10.728 12.491-12.166 5.381-.986 8.705-1.962 9.315-5.955m-188.089-9.54l-2.394-19.121H78.482l-9.128 37.124h13.697l5.051-19.4h.085l2.732 19.4h8.061l11.183-19.4h.088l-4.373 19.4h12.92l9.131-37.124h-17.873L99.519 320.72zm122.436 0l-2.393-19.121h-18.553l-9.131 37.124h13.697l5.051-19.4h.081l2.736 19.4h8.062l11.185-19.4h.083l-4.367 19.4h12.909l9.138-37.124h-17.877l-10.539 19.121zm-2.28 36.787l.889 15.156h-7.818l7.918 12.824h13.694l-2.137-37.107h-22.585s-18.505 37.107-18.412 37.107h14.474l13.896-27.98h.081z"/><path fill="#8B2332" d="M96.943 223.792c1.868 9.37 7.229 20.598 17.879 28.082 3.212 2.26 6.723 4.093 10.435 5.511-2.296-3.932-4.978-7.88-7.705-11.905-5.092-7.512-10.361-15.284-13.702-23.637-3.455-8.638-4.402-17.675-2.891-26.77a68.448 68.448 0 0 0-4.218 23.686c.001 1.695.083 3.373.202 5.033"/><path fill="#8B2332" d="M108.416 220.01c3.15 7.866 8.265 15.412 13.21 22.708 3.824 5.644 7.559 11.15 10.403 16.733a58.771 58.771 0 0 0 9.678 1.397c-3.415-4.876-6.378-10.415-8.93-16.754-9.888-24.563-8.453-54.93 3.809-72.505 6.325-9.066 13.895-15.226 23.646-20.542 8.395-4.579 13.638-5.95 18.966-9.131 5.802-3.46 8.907-9.239 5.089-22.213-1.116-3.799-1.314-6.792-1.084-9.118-1.324 2.566-2.353 5.546-2.838 9.01l.029-.033c-.596 3.669-.85 7.707-2.419 11.817-5.13 13.436-29.963 20.891-33.243 21.885-9.426 2.85-16.979 7.189-22.865 12.427-17.009 15.129-20.045 37.836-13.451 54.319"/><path fill="#8B2332" d="M212.037 98.6c.252.833.45 1.652.561 2.455.649 4.692-.774 8.485-6.531 9.413-5.925.952-7.947-4.208-8.41-8.411a19.718 19.718 0 0 1 .188-3.476c-1 .016-1.985.036-2.97.063a31.362 31.362 0 0 0-6.754 5.195c-1.178 2.539-2.599 6.061-.41 14.296 3.867 14.527 2.224 23.306-9.45 28.325-14.871 6.398-24.382 10.153-37.132 26.198-6.068 7.629-9.386 20.28-9.938 33.005-.526 12.357 2.014 25.552 6.367 36.379 2.911 7.23 6.313 13.523 10.317 18.869a67.946 67.946 0 0 0 12.044-1.555c-4.427-5.186-6.979-11.508-7.438-18.589-1.517-23.568 11.171-33.479 30.708-49.14l8.733-7.33c34.871-29.618 24.698-59.737 28.533-85.459a416.763 416.763 0 0 0-8.418-.238"/><path fill="#8B2332" d="M226.008 99.095c-1.068 5.136-1.546 10.496-1.887 16.045-1.383 22.403-.714 47.763-29.066 72.958l-8.576 6.937c-18.981 15.221-29.831 24.727-29.085 45.417.246 6.827 3.125 12.808 7.936 17.502a75.877 75.877 0 0 0 15.6-6.692c24.661-13.996 40.177-34.923 46.115-61.77 3.753-16.971 3.671-30.78 3.611-41.877-.029-5.606.697-16.616.697-16.616.783-6.946 1.91-16.685 9.97-29.447.26-.413.534-.829.81-1.249a356.906 356.906 0 0 0-16.125-1.208"/><path fill="#8B2332" d="M234.307 171.113l.01-.083a.997.997 0 0 0-.019.12c-.766 4.016-.974 8.533-1.461 13.035a331.61 331.61 0 0 1-.713 5.006 36.82 36.82 0 0 1-.281 1.368c-6.228 28.268-22.34 50.271-48.268 64.984-4.455 2.528-8.971 4.604-13.516 6.217 7.6 5.045 16.462 6.597 22.553 5.683 23.29-3.496 34.63-18.687 40.09-34.929 5.603-16.675 5.007-34.464 4.738-41.832-.886-24.608 18.147-33.687 18.147-33.687-14.798-.799-19.647 5.652-21.28 14.118"/><path fill="#8B2332" d="M218.763 261.874c-9.52 7.959-19.785 9.701-24.447 10.415-9.164 1.408-20.019-.768-29.618-8.343-.158-.122-.304-.257-.456-.386-4.115 1.099-8.23 1.833-12.34 2.172 9.397 10.092 21.763 15.821 38.348 16.943.073.007.146.007.216.012h.018a68.752 68.752 0 0 0 28.576-21.076c-.096.09-.195.178-.297.263m-86.632 16.944c.187-5.191-1.274-10.289-3.662-15.387-5.691-1.643-11.268-4.089-16.64-7.352-3.022-1.841-5.746-4.644-8.155-7.263a.397.397 0 0 0-.029-.029 68.827 68.827 0 0 0 28.486 30.033v-.002zm47.472 7.067c-9.28-2.146-17.225-5.436-24.19-10.714a63.24 63.24 0 0 1-9.759-9.214 64.784 64.784 0 0 1-11.189-1.104c2.057 5.296 3.086 10.697 2.432 16.365v.009a68.438 68.438 0 0 0 28.516 6.203c4.905 0 9.68-.527 14.293-1.504-.031-.011-.071-.029-.103-.041m79.779-168.641c-1.595 5.348-6.869 4.716-8.394 1.834-2.422-4.561-1.503-8.093 1.02-10.499 2.52-2.41 6.649-3.698 10.653-5.508.018-.012.036-.018.054-.026a276.792 276.792 0 0 0-14.767-2.117c-.068.084-.141.163-.214.243-.459.527-.927 1.054-1.371 1.602-8.277 12.447-9.318 21.678-10.123 28.78l-.253 2.182c-.468 3.724-.438 8.417-.409 13.851.006.745.012 1.519.012 2.299a376.025 376.025 0 0 1-.217 5.597l.118.033c.058-.76.093-1.053.087-.664 2.341-7.459 6.641-11.997 12.706-14.463 6.567-2.665 13.047-5.112 13.352-14.648.132-3.984.424-7.968 1.335-10.002 1.652-3.683 4.616-4.658 4.616-4.658-3.184-.307-6.667 1.024-8.205 6.164"/><path fill="#F9A01B" d="M267.326 79.474c.482-6.378 6.524-7.569 12.37-13.121 7.506-7.129-2.254-19.023-2.254-19.023 1.228 7.997-2.476 11.05-9.243 15.767-2.15 1.497-3.708 3.597-3.924 6.25-.24 2.962-.431 6.166-1.079 9.413 1.394.229 2.765.468 4.13.714"/><path fill="none" stroke="#F9A01B" stroke-width=".174" d="M267.326 79.474c.482-6.378 6.524-7.569 12.37-13.121 7.506-7.129-2.254-19.023-2.254-19.023 1.228 7.997-2.476 11.05-9.243 15.767-2.15 1.497-3.708 3.597-3.924 6.25-.24 2.962-.431 6.166-1.079 9.413 1.394.229 2.765.468 4.13.714z"/><path fill="#F9A01B" d="M246.668 68.359a74.346 74.346 0 0 0-5.075 4.137 165.607 165.607 0 0 0-3.235 3.173c6.6.572 13.011 1.314 19.186 2.214 3.949-7.188 5.825-15.336 3.494-29.221-.001 0-.557 9.404-14.37 19.697"/><path fill="none" stroke="#F9A01B" stroke-width=".174" d="M246.668 68.359a74.346 74.346 0 0 0-5.075 4.137 165.607 165.607 0 0 0-3.235 3.173c6.6.572 13.011 1.314 19.186 2.214 3.949-7.188 5.825-15.336 3.494-29.221-.001 0-.557 9.404-14.37 19.697z"/><path fill="#F9A01B" d="M209.818 74.304c7.544.071 14.944.374 22.153.871.24-.243.467-.488.718-.722 4.841-5.195 12.335-9.585 16.34-15.414 4.004-5.826 2.385-12.946.908-21.576-2.552-14.87 3.715-17.622 3.715-17.622s-12.568 1.729-12.328 8.997c.322 9.753 10.376 18.937-4.77 21.69-16.623 3.025-26.955 12.02-29.229 23.77.83.003 1.66-.002 2.493.006"/><path fill="none" stroke="#F9A01B" stroke-width=".174" d="M209.818 74.304c7.544.071 14.944.374 22.153.871.24-.243.467-.488.718-.722 4.841-5.195 12.335-9.585 16.34-15.414 4.004-5.826 2.385-12.946.908-21.576-2.552-14.87 3.715-17.622 3.715-17.622s-12.568 1.729-12.328 8.997c.322 9.753 10.376 18.937-4.77 21.69-16.623 3.025-26.955 12.02-29.229 23.77.83.003 1.66-.002 2.493.006z"/><path fill="#FFF" d="M209.78 78.199c-69.64-.689-127.741 17.288-129.763 40.146-.807 9.107 7.412 17.615 21.997 24.601 9.008 4.316 20.449 8.045 33.684 10.979a70.815 70.815 0 0 1 8.336-3.107 106.01 106.01 0 0 0 11.256-4.13c-19.503-2.847-35.288-7.22-44.998-12.472-7.167-3.883-11.025-8.245-10.616-12.817 1.355-15.351 50.113-27.323 108.904-26.746 58.787.577 105.352 13.493 103.992 28.839-.371 4.181-4.255 8.114-10.909 11.607-12.274 6.452-33.972 11.412-60.321 13.726a21.282 21.282 0 0 0-2.37 4.198c11.982-4.546 25.794 2.174 25.794 2.174s.927.359 1.572.796c17.484-3.116 32.501-7.554 43.762-12.918 13.314-6.342 21.391-13.974 22.121-22.244 2.021-22.86-52.793-41.95-122.441-42.632"/></svg>