<svg xmlns="http://www.w3.org/2000/svg" width="400" height="400"><path fill="#EDE0C5" d="M201 372.648c-80.418 0-145.842-65.424-145.842-145.842 0-39.31 15.473-76.197 43.57-103.866a4.59 4.59 0 0 1 .723-.579c-9.69-14.6-15.114-31.676-10.993-52.359 7.592-38.098 38.381-49.583 39.688-50.054a4.502 4.502 0 0 1 5.943 5.097c10.076-8.47 19.665-12.185 23.706-13.481a4.502 4.502 0 0 1 3.703 8.14c-9.177 5.547-17.177 13.069-23.231 21.734 7.255-1.677 12.134-1.854 13.845-1.854.601 0 .909.02.909.02a4.518 4.518 0 0 1 4.22 4.098 4.491 4.491 0 0 1-3.405 4.772c-.115.028-12.162 3.078-25.465 12.622a76.232 76.232 0 0 0-3.782 23.778c0 15.424 4.938 31.256 13.544 43.437 1.987 2.812 3.947 5.279 6.001 7.526-.757-15.9 3.919-40.487 32.456-51.937a4.5 4.5 0 0 1 5.7 2.161 4.501 4.501 0 0 1-1.681 5.861l-.211.129a37.634 37.634 0 0 0-10.771 10.611c2.996-.898 5.579-1.205 7.332-1.413l.34-.041a4.503 4.503 0 0 1 2.941 8.276s-.271.171-.333.208c-9.141 5.271-14.225 11.403-15.111 18.226-.961 7.396 3.086 14.376 6.043 18.36 7.651-8.913 12.631-24.032 14.028-29.749a4.501 4.501 0 0 1 8.875 1.042c.114 18.676-4.882 31.458-10.025 39.648 7.661 3.848 15.144 4.072 16.768 4.072.185 0 .447-.007.505-.007a18.52 18.52 0 0 0 .526.007c1.624 0 9.107-.224 16.769-4.072-5.146-8.19-10.141-20.972-10.026-39.648a4.503 4.503 0 0 1 8.875-1.042c1.397 5.716 6.377 20.836 14.028 29.749 2.954-3.98 7.004-10.962 6.043-18.36-.887-6.822-5.971-12.955-15.111-18.226-.063-.037-.272-.169-.272-.169-1.778-1.123-2.572-3.351-1.868-5.333.646-1.813 2.335-3.014 4.216-3.014.177 0 .353.01.532.032l.341.041c1.753.208 4.336.514 7.333 1.413a37.663 37.663 0 0 0-10.772-10.611l-.212-.129a4.501 4.501 0 1 1 4.019-8.022c28.537 11.449 33.213 36.036 32.456 51.937 2.054-2.247 4.016-4.714 6.003-7.526 8.606-12.181 13.542-28.013 13.542-43.437a76.26 76.26 0 0 0-3.78-23.778c-13.392-9.61-25.344-12.592-25.467-12.621a4.49 4.49 0 0 1-3.405-4.772c.196-2.218 2-3.96 4.223-4.098 0 0 .307-.02.906-.02 1.713 0 6.589.177 13.846 1.854-6.055-8.666-14.055-16.187-23.231-21.734a4.501 4.501 0 0 1 3.703-8.14c4.041 1.296 13.63 5.011 23.705 13.481a4.49 4.49 0 0 1 .45-2.984 4.5 4.5 0 0 1 5.495-2.113c1.306.47 32.096 11.956 39.688 50.054 4.119 20.683-1.303 37.759-10.995 52.359.26.167.5.359.726.578 28.095 27.669 43.568 64.557 43.568 103.866-.002 80.419-65.426 145.842-145.844 145.842z"/><path fill="#00471A" d="M300.113 126.148l-3.146 3.775c24.95 24.716 40.414 58.99 40.414 96.884 0 75.321-61.061 136.381-136.381 136.381-75.321 0-136.381-61.06-136.381-136.381 0-37.895 15.46-72.171 40.411-96.886l-3.143-3.772C75.839 151.8 59.66 187.446 59.66 226.807c0 77.936 63.405 141.339 141.34 141.339s141.34-63.403 141.34-141.339c0-39.361-16.179-75.007-42.227-100.659zM112.14 136.674c-22.894 22.898-37.602 55.271-37.602 90.132 0 8.055.766 15.933 2.212 23.571l38.135-10.297c6.302 41.573 42.28 73.538 85.585 73.538 43.468 0 79.549-32.205 85.651-74.007l39.129 10.764a126.707 126.707 0 0 0 2.212-23.569c0-34.861-14.475-66.798-37.369-89.696l3.35-3.619c24.146 23.842 38.978 56.782 38.978 93.315 0 72.466-58.956 131.422-131.421 131.422-72.466 0-131.422-58.956-131.422-131.422 0-36.533 14.989-69.628 39.134-93.47l3.428 3.338zM92.874 70.882c7.182-36.041 36.797-46.697 36.797-46.697-10.843 8.012-21.912 23.074-26.486 44.225 4.453-5.526 8.582-9.673 13.433-12.977 12.008-25.868 32.499-36.356 42.552-39.581-13.041 7.883-23.947 19.617-30.576 33.131 15.08-5.384 24.178-4.882 24.178-4.882s-13.479 3.276-28.21 14.2a80.765 80.765 0 0 0-4.476 26.573c0 16.378 5.276 33.167 14.369 46.035 5.117 7.241 10.058 12.248 16.209 16.808-2.034-5.118-9.777-44.641 27.602-59.639l-.266.161a42.213 42.213 0 0 0-17.977 25.108c6.826-6.534 14.028-7.214 17.811-7.669l-.178.115c-34.699 20.011-7.108 47.118-7.108 47.118 10.941-9.169 17.318-29.697 18.692-35.311.133 21.691-7.082 34.68-11.984 41.028 11.184 7.674 23.728 7.16 23.733 7.16h.022c.005 0 12.548.514 23.733-7.16-4.903-6.348-12.117-19.336-11.984-41.028 1.372 5.614 7.75 26.142 18.69 35.311 0 0 27.593-27.107-7.107-47.118-.06-.037-.121-.078-.179-.115 3.784.455 10.985 1.135 17.812 7.669a42.213 42.213 0 0 0-17.978-25.108l-.265-.161c37.379 14.998 29.636 54.521 27.602 59.639 6.15-4.56 11.092-9.567 16.21-16.808 9.092-12.868 14.367-29.657 14.367-46.035a80.74 80.74 0 0 0-4.476-26.573c-14.73-10.924-28.21-14.2-28.21-14.2s9.099-.501 24.179 4.882c-6.628-13.515-17.534-25.248-30.575-33.131 10.054 3.224 30.545 13.713 42.551 39.581 4.853 3.304 8.981 7.45 13.433 12.977-4.572-21.151-15.64-36.212-26.484-44.225 0 0 29.615 10.656 36.796 46.697 8.359 41.948-25.143 68.143-52.156 90.584l20.623-8.411c1.397-.593 2.365.754 2.108 2.361l-.604 5.093c-.334 2.802-2.39 16.994-10.185 21.297-1.685.931-4.588 1.996-13.141 2.628l-15.482.996 2.571 8.706-15.199 24.344 7.786-8.204 15.889 56.515-43.599 35.872 13.604-61.71L201 265.697l-20.341-24.743 13.605 61.71-43.599-35.872 15.889-56.515 7.785 8.204-15.198-24.344 2.571-8.706-15.482-.996c-8.552-.633-11.457-1.697-13.142-2.628-7.792-4.303-9.851-18.496-10.184-21.297l-.604-5.093c-.257-1.607.711-2.954 2.108-2.361l20.624 8.411c-27.014-22.442-60.516-48.637-52.158-90.585zm195.468 45.077s17.074-26.995 5.418-42.081c-1.197-1.547-2.491-2.962-3.765-4.339 4.783 17.257-1.653 46.42-1.653 46.42zm-174.684 0s-6.436-29.163-1.651-46.42c-1.275 1.377-2.569 2.792-3.765 4.339-11.659 15.087 5.416 42.081 5.416 42.081z"/><path fill="#FFF" d="M156.058 311.297l.866-1.357.082-.129-13.002-8.258-.062.097-16.418 25.711 3.982 2.542 7.22-11.305 5.017 3.205-7.219 11.304 3.982 2.543 13.881-21.737 1.671-2.616zm-9.697 6.403l-5.017-3.204 4.022-6.298 5.038 3.171-4.043 6.331zm-4.622-17.863l-23.447 19.931-3.231-3.189 5.653-8.528-8.433 5.784-3.229-3.188 19.634-23.698 3.151 3.111-7.933 9.994 10.766-7.197 1.085 1.071-7.059 10.856 9.866-8.086 3.177 3.139zm-23.093-28.434l-27.191 14.163-2.2-4.224 27.191-14.162 2.2 4.223zm-4.283-8.202l-28.995 9.962-1.547-4.505 18.194-6.25-8.397-.263 6.462-5.367-18.194 6.251-1.547-4.505 28.995-9.961 1.547 4.504-6.463 5.368 8.397.262 1.548 4.504zm-11.769 31.179l5.849 8.169-3.988 2.856-8.622-12.041 24.926-17.852 2.772 3.874-20.937 14.994zm71.344 22.454l-10.953 28.472-3.089-1.19-8.161-3.139-3.334-1.282 11.127-28.404 4.445 1.71-9.205 23.929 5.556 2.138 9.206-23.929 4.408 1.695zm125.73-20.624l2.667 2.126-7.496 9.395-2.112 2.646-21.117-16.852-2.726-2.175 9.607-12.039 2.726 2.175 4.553 3.633-2.947 3.692-3.444-2.748-3.713 4.654 16.205 12.931 3.713-4.653-3.473-2.774 2.945-3.692 4.612 3.681zm-5.024-20.973l19.495 2.583-2.336 4.404-14.187-1.792 11.817 6.262-2.229 4.21-27.09-14.355 2.229-4.21 7.518 3.983-5.602-7.599 2.354-4.438 8.031 10.952zm27.016-18.873l-4.422 14.755-3.267-.979-4.919-1.475 1.355-4.527 3.524 1.056 1.709-5.701-8.15-2.442-3.137 10.207-3.275-.982-13.062-3.913.973-3.245 3.45-11.511 3.313.992 4.836 1.451-1.356 4.526-3.488-1.045-1.707 5.702 7.048 2.111 3.102-10.217 3.269.979 10.937 3.279 3.267.979zm-55.308 37.599l19.651 23.332-2.534 2.133-6.687 5.631-2.732 2.303-19.507-23.453 3.642-3.067 16.516 19.608 4.553-3.834-16.514-19.61 3.612-3.043zm-34.835 48.474l.937 4.775-14.457 2.839-5.878-29.934 14.457-2.839.938 4.775-9.821 1.929 1.418 7.22 9.821-1.929.931 4.738-9.821 1.929 1.654 8.424 9.821-1.927zm-22.396 3.53l.081 4.867-14.732.244-.504-30.502 14.732-.243.081 4.867-10.008.165.122 7.357 10.008-.166.08 4.828-10.009.166.143 8.583 10.006-.166zm48.016-25.539l.507-3.004-4.652-8.594-4.408-1.246-10.577 5.707 14.506 26.802 10.577-5.707 1.32-4.46-4.505-8.322-2.768-1.176zm-12.751-5.038l5.266-2.835 3.479 6.471-5.264 2.831-3.481-6.467zm9.825 18.251l-4.063-7.546 5.269-2.816 4.059 7.548-5.265 2.814zm-63.337-13.618l-7.941 11.018 3.556 19.341-4.911-.863-2.671-14.048-2.313 13.174-4.69-.825 5.301-30.196 4.691.823-1.472 8.382 5.503-7.673 4.947.867zm-4.031-135.561l-10.531-4.833a1.377 1.377 0 0 0-1.934 1.038c-.294 1.794-.251 4.604 2.205 6.5 4.627 3.573 8.55 1.583 10.656-.481.685-.672.476-1.823-.396-2.224zm-57.172-24.046s1.506 12.655 6.814 15.587c3.583 1.979 12.341 1.789 19.988 2.376-8.469-3.285-20.942-12.249-26.799-17.963h-.003zm62.49 75.671l4.245 5.761h9.189l4.244-5.761zm80.167-75.671c-5.858 5.714-18.333 14.678-26.802 17.963 7.647-.587 16.404-.397 19.988-2.376 5.308-2.932 6.815-15.587 6.814-15.587zm-62.527 42.258l-4.079-13.37-4.722 2.291-4.721-2.292-4.08 13.37s-1.355 5.309-7.209 9.049l-2.493 10.989 6.132 8.275h6.51l-6.029-8.865.952-5.476A14.997 14.997 0 0 0 201 221.406a14.996 14.996 0 0 0 10.939-4.761l.951 5.476-6.029 8.865h6.51l6.132-8.275-2.491-10.989c-5.856-3.74-7.211-9.048-7.211-9.048zm15.888-23.045l-10.531 4.833a1.37 1.37 0 0 0-.396 2.224c2.105 2.064 6.028 4.055 10.655.481 2.457-1.896 2.499-4.707 2.205-6.5a1.377 1.377 0 0 0-1.933-1.038z"/></svg>