<svg xmlns="http://www.w3.org/2000/svg" width="400" height="400"><path fill="#8E9090" d="M163.452 250.423c19.709-3.021 39.385-2.134 56.604 5.139l2.101-4.618c-27.869-8.969-62.892-8.509-88.981 5.775l7.434-17.27c-32.793 8.865-54.856 27.355-77.041 46.406 16.173-38.2 51.333-69.607 91.097-81.007l-2.021 6.34c34.822-11.363 73.042-13.517 103.985-8.405l-7.248-9.429 17.755 4.523 11.414-17.054 4.515 21.089 17.46 5.662s-12.72 5.318-12.106 5.576c66.113 27.232 44.947 117.716-17.917 118.196-31.8.266-56.469-28.47-55.395-58.527-16.166-10.639-32.387-15.761-51.656-22.396"/><path fill="#8E9090" d="M123.242 128.625c-.017-7.09 2.056-13.527 6.346-18.256 4.278-4.742 10.473-7.438 17.505-8.067a560.186 560.186 0 0 1 40.646-2.282v.003l9.984-.221V214.6l-.156 9.887-9.957-.175c-1.748-.004-15.016.466-17.475.637-.146.008-.189.013-.293.022l-10.758.963v-.199l-6.723.306c-.912.031-16.922 1.654-17.708 1.804l-11.383 1.798-.028-101.018zm27.786 1.116l.021-.249c.129-2.023 1.226-4.612 3.251-6.099 1.986-1.498 4.078-1.896 6.077-2.045.004 0 1.797-.112 3.708-.234l5.686-.362v40.892l-4.978.343c-2.977.204-4.812.34-8.092.543l-5.674.355v-33.144zm218.65 121.467c-.015-.011-13.346-4.076-15.355-4.713-.125-.039-.138-.039-.237-.072-.013-.002-.022-.007-.03-.009a1131.516 1131.516 0 0 0-15.401-4.296l-7.173-1.776c-6.78-1.644-12.508-4.914-16.415-9.837-3.923-4.912-5.791-11.22-5.779-18.128v-74.621c-.042-7.332 2.188-14.004 7.474-18.137 3.386-2.695 7.672-3.947 12.062-3.925 2.355 0 4.765.333 7.156.915.894.211 3.508.95 7.637 2.104 4.044 1.138 9.256 2.61 14.407 4.07 10.302 2.918 20.37 5.787 20.37 5.787l3.882 1.102v50.708l-32.507-10.006-.521-3.298c-.005-.01-.926-5.893-1.785-11.354l.008 56.486v.127l-.008.135c.008.021.008.044.013.071.021.12.071.268.135.388.049.008-.147.082.89.415 0 0 2.115.55 3.512.933.869-3.845 1.764-7.781 1.764-7.785l1.273-5.573 27.215 8.169.096 45.932-12.683-3.812z"/><path fill="#8E9090" d="M15.518 144.315c0-5.758 2.675-10.464 5.796-13.7 3.175-3.277 6.768-5.36 10.067-6.442 14.931-4.773 36.041-8.068 37.091-8.245l5.703-.89a26.706 26.706 0 0 1 7.774-2.943c7.352-1.539 29.572-5.725 30.583-5.911v.003l11.581-2.158-.028 116.738-.188 8.69-8.621 1.008c-.722.045-16.899 2.791-17.646 2.995l-12.037 2.709v-18.856l-33.569 7.949v11.519l-.112 7.612-7.348 1.812c-.139.028-2.562.744-5.167 1.544-2.667.817-5.771 1.772-7.985 2.471-1.423.446-2.621.841-2.671.865l-13.223 4.851V144.315zm282.322 88.784l-.195-.042c-.153-.027-.374-.066-.641-.119-.524-.097-1.228-.222-2.038-.359-1.63-.286-3.695-.635-5.768-.975-4.062-.677-8.456-1.372-8.749-1.397l-4.033-.441-4.766-.52V105.25l10.62.837c1.104.114 3.466.504 6.793 1.039 3.227.526 6.979 1.153 9.67 1.622 1.861.326 2.956.513 3.806.707l7.395 1.881-.002 112.284-.143 12.128-11.949-2.649z"/><path fill="#8E9090" d="M260.18 227.581c-1.062-.221-7.758-.857-14.717-1.399-6.665-.527-13.982-1.04-18.63-1.328l-5.145-.191c-7.15-.267-13.498-2.54-17.933-7.121-4.453-4.572-6.508-10.99-6.486-18.091v-77.656c-.027-6.19 1.832-11.942 5.997-15.942h.005c5.312-5.036 11.826-5.499 15.829-5.528 1.104 0 2.054.046 2.686.076l.653.023c.258-.006.507-.008.76-.008 1.37.001 3.13.076 5.652.236l2.857.1-.049.085c2.798.196 6.334.462 10.88.809 15.187 1.176 19.185 1.587 21.503 2.063.761.136 1.772.53 2.105.707l5.664 2.739-.047 6.223v34.206l-32.155-4.152-.803-3.668c0-.007-.909-4.129-1.703-7.737-.402-.028-.901-.06-1.38-.09l.104 14.808-.004 3.184 1.968-.073c.043-.002.083-.004.12-.004h.017l.117-.008h.145c.941.012 2.125.11 4.095.258 1.905.152 4.312.36 6.825.584 5.035.45 10.439.973 13.113 1.282.83.107 1.18.128 1.943.282l7.685 1.7-.092 75.791-11.579-2.16z"/><path fill="#2E2A25" d="M126.451 128.626c-.174-13.079 7.97-22.106 20.939-23.13a556.024 556.024 0 0 1 40.408-2.269l6.715-.149v111.469l-.106 6.681-6.71-.135c-1.737-.007-16.978.541-18.141.668l-7.258.667V178.9c-1.339.089-2.502.17-3.792.26l-.004 37.147-.087 6.249-6.252.282c-1.212.049-16.836 1.635-18.01 1.835l-7.672 1.21-.03-97.257zm32.055 26.295c1.348-.087 2.5-.168 3.792-.256v-25.95c-.867.057-1.461.091-1.453.091-1.176.076-1.783.342-1.982.506-.175.162-.271.23-.358.819v24.79zm212.114 93.217c-.003-.007-11.789-3.61-14.846-4.555-.315-.1-.454-.14-.591-.184l-.07-.021a1046.284 1046.284 0 0 0-16.611-4.625l-.008.012-6.246-1.54c-12.602-2.949-19.88-12.067-19.741-24.847v-74.626c-.012-6.789 1.977-12.287 6.259-15.627 2.764-2.179 6.238-3.23 10.068-3.222 2.043 0 4.202.289 6.439.834 2.095.487 42.203 11.905 42.251 11.919l1.55.439v43.925l-26.445-8.132-.207-1.311s-2.023-12.869-2.863-18.238a501.826 501.826 0 0 0-3.633-1.063l-.058.021-.671-.187-.939-.267-.008-.002.01 65.412-.009.293c.011.243.096 1.079.481 1.813.49.947 1.283 1.621 2.92 2.083 0 0 3.554.92 6.745 1.844 1.002-4.448 2.504-11.084 2.504-11.084l.509-2.227 21.647 6.504.085 39.219-8.522-2.56zM18.729 144.313c.15-9.574 8.33-15.336 13.631-17.085 14.543-4.655 35.655-7.974 36.602-8.127l6.312-.986a23.349 23.349 0 0 1 7.332-2.88c7.262-1.515 29.545-5.716 30.515-5.893v.002l7.785-1.449-.038 112.854-.114 5.85-5.802.663c-1.19.124-16.855 2.778-18.02 3.064l-8.12 1.831v-91.312l-.179.03c-2.283.713-2.698 1.151-3.21 3.725v.093l-.007 67.674v1.685l-31.832 7.538v-72.773a9.648 9.648 0 0 0-.537.139c-1.144.336-2.342.875-3.104 1.526-.77.68-1.107 1.238-1.127 2.212v84.04l-.083 5.135-4.952 1.22c-1.086.267-15.132 4.583-16.144 4.98l-8.908 3.269V144.313zm279.869 85.655c-1.091-.278-16.614-2.833-17.798-2.952l-4.038-.442-1.901-.207V108.723l7.123.563c1.773.168 18.046 2.884 19.766 3.283l4.976 1.266-.005 109.749-.092 8.171-8.031-1.787zm-37.813-5.537c-3.108-.606-24.154-2.199-33.731-2.783l-5.238-.19c-6.587-.258-12.019-2.301-15.75-6.152-3.738-3.855-5.595-9.326-5.584-15.869v-77.638c-.012-5.622 1.621-10.371 5.028-13.639 4.297-4.113 9.889-4.616 13.61-4.627 1.011 0 1.894.041 2.577.076l.73.029c.254-.011.52-.013.812-.013 2.821.002 7.941.373 19.057 1.219 15.115 1.161 19.241 1.614 21.07 2.004a5.753 5.753 0 0 1 1.374.454l3.843 1.849-.019 4.229v30.552l-26.281-3.395-.325-1.461s-1.378-6.227-2.229-10.083c-.503-.039-.962-.075-1.397-.107-.201-.019-4.227-.271-4.253-.271a7.672 7.672 0 0 0-.578-.019 4.596 4.596 0 0 0-.962.077c-.006.053-.006.108-.006.159l-.031.888.007.695.114 16.327-.005 6.519 5.378-.199c.108-.01.16-.01.185-.005h.024c1.313.005 6.982.494 12.816 1.024 5.858.547 11.279 1.067 12.453 1.304l5.169 1.145-.078 69.342-7.78-1.441zm-28.177-28.742c-.019.065.055.944.312 1.348.167.266.467.607 2.03.745l1.63.112v-22.062c-1.359-.1-2.882-.216-2.902-.216l-1.065-.083-.005 20.156zm-4.343-66.941h-.002c.002-.007.002-.007.002 0"/><path fill="#FFF" d="M187.885 107.888l-.021-1.065a571.494 571.494 0 0 0-40.151 2.256c-11.326.948-17.767 8.066-17.658 19.552l.027 93.083 3.507-.623c.961-.156 17.432-1.828 18.413-1.856l1.856-.049 1.04-.031v-43.356c2.728-.195 8.067-.558 11.014-.758v43.498l3.312-.367c.899-.126 16.131-.693 18.374-.691h.124l.042.008 2.011.082 1.101.048.022-3.095v-107.76l-3.03.062.017 1.062zm-21.973 16.993v33.154c-2.751.187-8.056.544-11.014.732v-28.959c.291-1.988 1.007-4.179 5.708-4.61-.004.001 2.909-.176 5.306-.317m209.534 89.28l-15.387-4.625-.243 1.117c-.006.009-1.887 8.382-2.746 12.181-6.169-1.825-8.873-2.616-10.345-2.877v-.021c-3.156-.874-4.532-2.625-5.227-3.955-.786-1.546-.87-3.087-.87-3.507v-66.238c-.012-.339.11-1.745.651-2.462.343-.447.825-.71 1.842-.729.549 0 1.235.1 2.038.323l.146.039h.107l.057.011c.238.042 2.809.771 7.309 2.115.599 3.811 2.947 18.886 2.949 18.904l.101.656 19.619 6.047v-36.278l-.768-.22c-.032-.006-38.27-10.93-40.21-11.375-2.005-.501-3.895-.755-5.649-.755-3.062-.004-5.733.797-7.826 2.447-3.331 2.604-4.889 7.031-4.885 12.807v74.612c-.083 11.181 5.854 18.645 16.88 21.299l.21.103.425.007c1.279.21 11.835 3.069 22.461 6.133l15.582 4.759 3.859 1.173-.08-31.691zM83.354 118.772a20.081 20.081 0 0 0-10.394 5.735v-2.382l-3.441.545c-.911.14-21.84 3.435-36.066 8.002-4.618 1.525-11.042 6.499-11.123 13.638v101.936l4.055-1.581c.842-.31 15.619-4.857 16.549-5.084l1.436-.338.826-.191v-86.347c-.046-4.377 4.082-6.36 6.836-7.208.916-.277 3.129-.693 5.147-1.039v72.558l24.629-5.809v-2.36c0-6.231.017-57.934.017-64.216v-.355c.555-3.97 2.303-5.969 6.003-6.93.044-.001.007-.001.122-.017.576-.093 2.61-.416 4.475-.709v91.113l3.703-.942c.945-.242 17.453-3.026 18.456-3.134l1.676-.137.961-.084.048-2.713.021-108.479-3.506.643c0 .001-23.232 4.357-30.43 5.885m198.334-5.884l-2.064-.153-1.144-.089v110.543l.97.088 1.743.154c.928.06 17.329 2.778 18.229 3.013l3.674.908.018-3.794V116.634l-2.248-.562c-1.414-.344-17.723-3.048-19.178-3.184m-43.4 43.774h-.032a.629.629 0 0 0-.144.011l-1.78.055-1.031.036v15.347l.987.073c.005 0 2.273.169 3.884.296v29.275c-2.384-.154-5.467-.361-5.471-.361-2.529-.194-4.023-1.054-4.901-2.534-.72-1.233-.808-2.642-.804-3.168l.005-48.953-.104-16.299-.013-.667v-.183l.044-.784c-.004-.864.16-1.885.804-2.604.639-.73 1.824-1.223 3.788-1.223.258 0 .523.004.799.028l.025.002.062.008.285-.01c.497-.004 3.288.2 7.983.598.673 3.062 2.413 10.938 2.413 10.941l.161.729 19.704 2.551V113.36l.013-1.212.009-.648-1.699-.913c-.83-.309-1.583-.636-21.267-2.135-11.88-.91-16.749-1.223-18.998-1.223-.23 0-.435.004-.624.01l-.854-.039c-.698-.033-1.554-.076-2.501-.076-3.262.006-7.722.464-11.013 3.635v-.007c-2.663 2.557-3.93 6.351-3.926 11.031v77.653c-.127 11.332 6.442 18.087 17.857 18.407h.206l.258-.029h.053c2.952-.01 34.525 2.218 38.967 3.056l3.52.654.072-62.105-2.344-.526c-1.595-.318-22.208-2.212-24.393-2.231"/><path fill="#0055B8" d="M238.283 169.362c.967.062 4.873.341 4.873.341v35.245a804.825 804.825 0 0 0-8.646-.603c-4.223-.272-6.287-2.32-7.273-3.995-1.1-1.895-1.211-3.896-1.211-4.661 0-.779.018-29.663.018-48.949 0-9.365-.129-16.407-.129-16.88-.018-.138.022-.535.022-1.11 0-1.169.263-3.019 1.558-4.507 1.461-1.654 3.828-2.384 7.016-2.195 0-.079 4.929.301 10.593.778l2.601 11.768 14.273 1.866v-23.181c-1.196-.551-39.87-3.467-39.899-3.067l-.665-.049c-3.063-.138-8.168-.321-11.337 2.734-2.003 1.913-3.01 4.913-3.01 8.899v77.64c0 9.992 5.05 15.039 15.012 15.451.017-.32 34.869 2.136 39.899 3.066 0-1.217.077-54.927.077-56.151-1.169-.243-22.572-2.222-23.771-2.181v9.741zm-86.352-39.665c.168-2.045 1.33-6.936 8.477-7.464 2.821-.186 5.635-.369 8.469-.517v39.107c-5.635.285-11.299.667-16.945 1.125v-32.251zm-18.9-1.069l.04 89.542c1.156-.217 17.698-1.863 18.859-1.894V173.03c5.646-.481 11.31-.865 16.945-1.17v43.342c1.172-.132 17.901-.748 19.062-.684V109.792a570.184 570.184 0 0 0-39.942 2.241c-9.94.925-14.964 6.63-14.964 16.595m148.409 91.838c1.159.1 17.564 2.812 18.712 3.092V118.966c-1.147-.303-17.553-3.015-18.712-3.109v104.609zM69.975 136.643v-11.042s-21.488 3.376-35.601 7.903c-3.72 1.191-9.07 5.441-9.07 10.812v97.591c1.096-.425 15.807-4.943 16.934-5.205v-83.995c0-5.88 4.818-8.81 8.925-10.044 2.264-.688 8.998-1.705 8.998-1.705v72.306l18.663-4.416.017-64.812c.612-5.066 3.314-8.39 8.346-9.584a533.412 533.412 0 0 1 8.195-1.332l.017 5.651v85.153c1.145-.291 17.741-3.117 18.892-3.217 0-20.945.042-104.892.042-104.892s-23.136 4.348-30.382 5.856c-6.946 1.475-12.459 7.064-13.976 14.972m302.518 79.725l-10.227-3.055-2.985 13.289c-6.641-1.973-13.313-3.888-13.33-3.803-4.124-1.123-6.125-3.586-7.084-5.467-1.096-2.113-1.218-4.129-1.208-4.897 0-.066 0-.166.024-.253h-.024l-.01-65.937c0-.767.122-2.708 1.232-4.204.959-1.302 2.973-2.663 7.049-1.551.037-.073 4.359 1.192 9.494 2.734l3.06 19.572 14.009 4.311v-29.896s-36.911-10.643-38.684-11.054c-9.745-2.398-14.727 1.636-14.727 11.609v74.615c0 9.995 4.981 16.071 14.727 18.445.037-.218 12.366 3.166 23.108 6.236l15.62 4.769-.044-25.463z"/><path fill="#0055B8" d="M238.283 169.356c.967.067 4.873.347 4.873.347v35.243c-2.888-.22-5.784-.412-8.65-.599-4.221-.274-6.283-2.322-7.282-4.008-1.086-1.884-1.198-3.885-1.198-4.653 0-.777.018-29.662.018-48.948 0-9.362-.129-16.404-.129-16.878-.018-.14.041-.535.041-1.11 0-1.179.244-3.019 1.539-4.51 1.461-1.653 3.828-2.401 7.012-2.192 0-.079 4.931.3 10.597.777l2.601 11.768 14.273 1.864V113.28c-1.199-.552-39.87-3.47-39.907-3.067l-.666-.052c-3.058-.138-8.162-.318-11.326 2.735-2.005 1.912-3.02 4.913-3.02 8.888v77.651c0 9.988 5.055 15.034 15.012 15.449.024-.318 34.879 2.14 39.907 3.068 0-1.215.077-54.926.077-56.151-1.177-.247-22.57-2.222-23.771-2.179v9.734zm43.16 51.11c1.156.1 17.566 2.805 18.697 3.093v-104.61c-1.131-.286-17.541-2.998-18.697-3.092v104.609zM69.974 136.644V125.6s-21.482 3.375-35.598 7.906c-3.722 1.178-9.072 5.44-9.072 10.81v97.591c1.094-.425 15.804-4.958 16.934-5.207v-84.003c0-5.869 4.82-8.8 8.925-10.046 2.259-.675 9-1.694 9-1.694v72.305l18.663-4.414.017-64.831c.61-5.047 3.314-8.371 8.347-9.567 4.741-.806 8.19-1.33 8.19-1.33l.021 5.652v85.152c1.136-.291 17.727-3.117 18.89-3.217 0-20.943.05-104.892.05-104.892s-23.151 4.346-30.39 5.856c-6.946 1.472-12.461 7.064-13.977 14.973"/><path fill="#2E2A25" d="M141.539 72.179c-.487-.616-1.19-1.065-2.003-1.278h.001a6.317 6.317 0 0 0-1.686-.209c-.868 0-1.7.129-2.376.247-2.008.364-4.022.754-6.021 1.148-1.529.311-2.794.761-3.828 1.442-.739.483-1.357 1.087-1.804 1.796a5.496 5.496 0 0 0-.806 2.939v19.507c0 1.05.245 2.023.842 2.786.513.642 1.233 1.047 2.016 1.234.487.117.96.153 1.432.153.944 0 1.851-.161 2.583-.304a399.35 399.35 0 0 1 5.987-1.142c1.536-.282 2.809-.697 3.855-1.344a5.744 5.744 0 0 0 1.829-1.715c.566-.876.84-1.886.837-2.947V74.995c-.001-1.06-.251-2.045-.858-2.816m-6.494 22.661s.027.225-.271.497l-.003.005h-.004c-.227.212-.629.421-1.25.53-.475.1-1.564.308-2.406.47-.161.032-.29.042-.402.042-.32-.01-.337-.067-.341-.067h-.004c-.035-.026-.042-.177-.054-.177V77.731c.004-.028-.033-.213.246-.49.241-.224.649-.437 1.307-.571.672-.128 1.373-.26 2.081-.4.199-.041.386-.051.537-.051.262 0 .411.046.48.083.083.014.069.153.087.153V94.84zm98.116-26.413a5.166 5.166 0 0 0-1.938-1.616c-1.423-.699-2.945-.857-3.959-.928a366.995 366.995 0 0 0-11.984-.604l-1.172-.039v29.535l1.095.039c1.729.061 3.467.14 5.211.224l1.182.051V70.468l2.426.137c2.854.323 2.393 1.198 2.544 1.525v23.231l1.051.077c1.719.125 3.44.249 5.15.396l1.23.104v-1.234l.002-23.387c.003-1.06-.264-2.067-.838-2.89m23.723 2.73c-.455-.699-1.101-1.265-1.857-1.712l-.007-.005h-.003c-1.068-.617-2.354-.991-3.917-1.194-1.641-.256-9.725-1.203-11.909-1.396l-1.231-.106.019 29.595 1.021.104c3.944.394 7.889.854 11.805 1.386a14.69 14.69 0 0 0 1.852.132c.768 0 1.464-.085 2.105-.266.815-.232 1.539-.655 2.053-1.289.634-.775.905-1.773.9-2.828V74.08c.004-1.061-.268-2.073-.831-2.923m-6.83 21.173c-.174.119-.614.217-1.086.209-.323 0-.661-.033-.936-.063l-2.684-.333V72.502l2.403.291c.817.1 1.549.315 1.961.61.408.311.589.533.611 1.231 0 2.065 0 16.567.008 17.016-.029.543-.115.543-.277.68m-84.126 2.942c-.012-3.332-.012-6.645-.012-9.966.021-1.055-.577-2.049-1.454-2.621v-.004a6.128 6.128 0 0 0-.355-.222c.82-.591 1.656-1.544 1.747-3.063v-7.524c0-1.05-.258-2.061-.902-2.849-.497-.623-1.208-1.095-2.04-1.351-.702-.234-1.502-.339-2.384-.339-.5 0-1.037.035-1.61.105-3.923.454-7.849.962-11.749 1.537l-.967.149v29.638l1.3-.193a293.74 293.74 0 0 1 5.125-.726l.986-.128V86.319c.87-.11 1.728-.222 2.582-.334.048-.002.095-.01.135-.014l.132-.012c.247-.022.465-.035.663-.035.666-.002 1.015.124 1.153.224.165.107.217.277.224.703v10.241l1.258-.138c1.717-.19 3.435-.377 5.146-.553l1.026-.102-.004-1.027zm-7.486-15.919v.073c-.01.116.005.445-.445.837l-.014.015c-.373.336-1.078.639-2.146.769-.744.093-1.487.192-2.226.286V73.08c.83-.108 1.668-.216 2.501-.315a8.908 8.908 0 0 1 1.106-.083c.664-.004 1.021.128 1.128.208.067.068.034-.039.085.331.004.027.004.053.007.073v4.832c.001.666-.001 1.08.004 1.227m28.107 9.219v-3.826l-1.208.076-4.514.29-1.704 5.177-1.989.128V65.801l-1.215.083c-1.737.117-3.475.254-5.207.395l-1.041.086v29.588l1.228-.102c4.836-.398 9.697-.707 14.566-.922l1.084-.049v-1.082c0-.892.004-1.798.004-2.708v-2.524l-.004.006zm22.499-23.52c-1.449-.047-5.465-.077-8.537-.077-1.605 0-2.928.01-3.521.026-1.566.028-2.869.25-3.967.74-.803.354-1.484.878-1.964 1.546-.599.81-.882 1.817-.877 2.886 0 1.943.016 20.603.016 23.389v1.162l1.172-.03c1.712-.049 3.442-.089 5.152-.108l1.119-.012V83.617c1.46-.017 2.921-.023 4.383-.023h.616v10.979l1.126.004c1.742.011 3.482.032 5.217.069l1.161.03V65.091l-1.096-.039zm-6.407 13.615l-1.321-.002c-1.228 0-2.451.004-3.678.017v-7.629l.009-.078c.021-.115.041-.288.329-.52.31-.255 1.042-.505 2.172-.505.6-.002 1.203-.006 1.805-.006l.686.001v8.722zm77.167-3.309v-.004c-.43-.724-1.038-1.315-1.737-1.793-1.35-.88-2.831-1.235-3.954-1.469a381.805 381.805 0 0 0-6.007-1.163 12.293 12.293 0 0 0-2.222-.225c-.624 0-1.208.066-1.755.215-.798.197-1.525.628-2.042 1.244-.65.787-.9 1.783-.9 2.821v19.515c0 1.051.243 2.053.773 2.902.432.708 1.056 1.287 1.781 1.738 1.347.827 2.842 1.142 3.959 1.351 1.991.369 3.986.752 5.963 1.161.917.177 1.729.276 2.471.276.51 0 .986-.049 1.432-.146.84-.191 1.57-.596 2.095-1.21.644-.765.89-1.751.89-2.799V78.269c.004-1.04-.232-2.043-.747-2.911m-6.538 20.771c0 .014-.005.047-.005.093-.008.004.009.028-.016.049v-.002h-.005c-.057.032-.193.077-.455.077-.164 0-.388-.024-.641-.066-.458-.087-1.534-.294-2.389-.452-.621-.117-.979-.407-1.111-.656-.114-.207-.114-.373-.114-.373V76.311c0-.005.008-.009.027-.02.068-.036.207-.085.475-.085.159 0 .354.02.588.066.718.134 1.418.269 2.109.405.576.11.959.309 1.205.537.366.339.306.583.331.583v18.332z"/><path fill="#FFF" d="M157.151 236.19l3.709-1.836 3.079 2.755-.599-4.086 3.566-2.081-4.073-.701-.88-4.025-1.916 3.649-4.111-.406 2.891 2.949z"/><path fill="#2E2A25" d="M281.876 213.175c3.636-1.586 10.426-4.551 10.426-4.551l.51-.222-.527-.172s-10.925-3.593-13.271-4.358c-.354-2.471-2.08-14.348-2.08-14.348l-.084-.575-3.973 6.461s-2.276 3.669-3.506 5.667l-13.878-3.534-.593-.149.374.487c.012.008 4.596 5.911 7.379 9.507-11.363-2.47-24.474-3.85-39.502-3.85-4.93 0-10.068.151-15.415.459-20.489 1.169-40.64 4.984-59.975 11.97l2.209-6.578-.393.125c-30.261 9.456-63.356 37.821-77.985 65.873l.328.25c20.684-19.403 48.679-34.893 73.774-40.532l-6.591 15.363.509-.248c11.679-5.635 27.011-8.127 42.476-8.127 15.831 0 31.802 2.607 44.142 7.106l-4.73 10.316c-11.255-5.165-27.536-8.64-41.042-8.64-2.406 0-4.722.109-6.907.341l-.035.414c15.951 4.504 32.466 9.591 45.554 20.082a47.183 47.183 0 0 0-.119 3.335c.007 27.617 23.844 52.61 51.822 52.614.189 0 .377 0 .563-.004 30.832-.361 53.681-28.634 53.683-58.103.004-21.706-12.422-44.079-43.143-56.379"/><path fill="#8E9090" d="M265.058 263.756c-11.383 0-22.775-4.175-34.214-8.378-3.021 6.375-4.552 13.06-4.552 19.86 0 3.615.435 7.269 1.312 10.922.944.021 1.894.033 2.844.033 22.089 0 45.528-6.137 64.464-17.365-2.185-4.062-4.891-7.854-7.697-11.507-7.374 4.669-14.764 6.438-22.157 6.435"/><path fill="#8E9090" d="M229.652 290.48c-.247 0-.498 0-.744-.002 6.907 17.864 22.746 29.704 42.067 29.971 6.181-15.23 13.043-31.877 28.729-39.654-.821-2.746-1.825-5.415-2.934-8.052-20.193 11.805-43.774 17.737-67.118 17.737m47.743-56.063c-6.869-2.623-11.243-3.438-11.654-3.512-1.92.264-4.525.521-6.635.94 11.674 4.648 20.295 10.29 28.953 19.942 4.452-3.516 8.359-7.5 11.073-12.396-7.94-7.721-22.897-17.188-60.197-20.121 15.75 3.75 30.229 8.799 38.655 14.775l-.195.372zm-104.576-5.176c2.312-.052 4.81-.083 7.449-.083 26.5.012 67.398 3.126 83.258 21.955l-.266.323c-5.488-3.057-16.465-8.123-23.31-8.115-.22 0-.436.003-.648.017-2.353 2.598-4.432 5.471-6.296 8.45 10.601 3.909 21.333 7.785 31.968 7.785 6.679 0 13.319-1.523 19.893-5.536-18.378-20.028-49.487-28.766-78.834-28.764-11.658 0-23.033 1.379-33.214 3.968m125.396 37.49c5.124-3.489 9.553-7.134 13.576-11.816-2.527-4.807-6.906-10.214-10.044-12.99-2.916 5.149-6.657 9.401-11.205 13.14 2.675 3.572 5.505 7.734 7.673 11.666"/><path fill="#8E9090" d="M275.469 320.266c9.311-1.136 17.869-4.315 25.067-10.425 1.103-4.117 1.58-8.382 1.58-12.659 0-4.081-.433-8.176-1.166-12.161-14.04 6.75-19.873 21.564-25.481 35.245m30.795-20.338c0 1.406-.035 2.817-.104 4.231 5.46-7.39 8.386-13.808 10.013-23.25-3.986.354-7.939 1.02-11.698 2.268 1.228 5.562 1.789 11.138 1.789 16.751m-6.114-29.287a93.462 93.462 0 0 1 3.275 8.604c4.382-1.428 8.607-2.16 13.173-2.437.003-.326.005-.646.005-.967-.002-6.044-.891-10.693-2.858-16.478-4.187 4.289-8.611 7.939-13.595 11.278"/><path fill="#8E9090" d="M316.597 276.809c-4.561.274-8.791 1.009-13.171 2.437a92.518 92.518 0 0 0-3.278-8.604c4.986-3.339 9.41-6.99 13.595-11.276 1.973 5.784 2.863 10.434 2.863 16.478-.001.318-.001.638-.009.965"/><path fill="#8E9090" d="M316.597 276.809c-4.561.274-8.791 1.009-13.171 2.437a92.518 92.518 0 0 0-3.278-8.604c4.986-3.339 9.41-6.99 13.595-11.276 1.973 5.784 2.863 10.434 2.863 16.478-.001.318-.001.638-.009.965m-14.85-34.884c3.138 2.776 7.517 8.184 10.044 12.99-4.023 4.681-8.452 8.326-13.576 11.818-2.168-3.935-4.998-8.097-7.673-11.669 4.548-3.735 8.286-7.99 11.205-13.139"/><path fill="#8E9090" d="M301.747 241.925c3.138 2.776 7.517 8.184 10.044 12.99-4.023 4.681-8.452 8.326-13.576 11.818-2.168-3.935-4.998-8.097-7.673-11.669 4.548-3.735 8.286-7.99 11.205-13.139m-62.814-22.654c37.304 2.933 52.259 12.398 60.199 20.121-2.714 4.894-6.624 8.88-11.072 12.398-8.659-9.658-17.28-15.297-28.954-19.947 2.107-.414 4.715-.676 6.635-.938.411.075 4.785.887 11.654 3.509l.197-.367c-8.428-5.976-22.907-11.026-38.659-14.776"/><path fill="#8E9090" d="M238.933 219.271c37.304 2.933 52.259 12.398 60.199 20.121-2.714 4.894-6.624 8.88-11.072 12.398-8.659-9.658-17.28-15.297-28.954-19.947 2.107-.414 4.715-.676 6.635-.938.411.075 4.785.887 11.654 3.509l.197-.367c-8.428-5.976-22.907-11.026-38.659-14.776m-8.489 66.922c-.947 0-1.896-.013-2.844-.033a46.79 46.79 0 0 1-1.309-10.924c0-6.798 1.531-13.483 4.548-19.861 11.442 4.206 22.835 8.379 34.216 8.379 7.396.005 14.787-1.764 22.156-6.43 2.811 3.65 5.515 7.443 7.699 11.504-18.934 11.227-42.371 17.365-64.466 17.365"/><path fill="#8E9090" d="M230.444 286.193c-.947 0-1.896-.013-2.844-.033a46.79 46.79 0 0 1-1.309-10.924c0-6.798 1.531-13.483 4.548-19.861 11.442 4.206 22.835 8.379 34.216 8.379 7.396.005 14.787-1.764 22.156-6.43 2.811 3.65 5.515 7.443 7.699 11.504-18.934 11.227-42.371 17.365-64.466 17.365"/><path fill="#8E9090" d="M270.975 320.451c-19.322-.269-35.159-12.106-42.069-29.973.249.005.497.005.747.005 23.346 0 46.922-5.938 67.118-17.738 1.107 2.632 2.114 5.306 2.936 8.052-15.688 7.778-22.551 24.424-28.732 39.654"/><path fill="#8E9090" d="M270.975 320.451c-19.322-.269-35.159-12.106-42.069-29.973.249.005.497.005.747.005 23.346 0 46.922-5.938 67.118-17.738 1.107 2.632 2.114 5.306 2.936 8.052-15.688 7.778-22.551 24.424-28.732 39.654m35.185-16.292c.068-1.413.104-2.823.104-4.231 0-5.612-.561-11.188-1.789-16.751 3.764-1.248 7.715-1.914 11.698-2.27-1.627 9.447-4.553 15.863-10.013 23.252"/><path fill="#8E9090" d="M306.16 304.159c.068-1.413.104-2.823.104-4.231 0-5.612-.561-11.188-1.789-16.751 3.764-1.248 7.715-1.914 11.698-2.27-1.627 9.447-4.553 15.863-10.013 23.252m-21.293-50.119c-6.573 4.007-13.214 5.533-19.895 5.533-10.633.002-21.368-3.878-31.966-7.787 1.864-2.978 3.941-5.851 6.296-8.448.213-.014.429-.017.648-.017 6.845-.008 17.821 5.059 23.31 8.115l.264-.323c-15.858-18.83-56.755-21.943-83.256-21.955-2.64 0-5.138.033-7.452.083 10.183-2.591 21.561-3.966 33.217-3.966 29.347-.004 60.456 8.734 78.834 28.765"/><path fill="#8E9090" d="M284.867 254.04c-6.573 4.007-13.214 5.533-19.895 5.533-10.633.002-21.368-3.878-31.966-7.787 1.864-2.978 3.941-5.851 6.296-8.448.213-.014.429-.017.648-.017 6.845-.008 17.821 5.059 23.31 8.115l.264-.323c-15.858-18.83-56.755-21.943-83.256-21.955-2.64 0-5.138.033-7.452.083 10.183-2.591 21.561-3.966 33.217-3.966 29.347-.004 60.456 8.734 78.834 28.765m15.669 55.801c-7.198 6.109-15.757 9.291-25.067 10.425 5.606-13.681 11.439-28.497 25.481-35.245.734 3.985 1.168 8.08 1.168 12.161 0 4.277-.476 8.54-1.582 12.659"/><path fill="#8E9090" d="M300.536 309.841c-7.198 6.109-15.757 9.291-25.067 10.425 5.606-13.681 11.439-28.497 25.481-35.245.734 3.985 1.168 8.08 1.168 12.161 0 4.277-.476 8.54-1.582 12.659m-36.848-92.678l8.106-2.838 6.162 6.987-.72-9.122 7.854-3.419-8.547-2.809-1.325-9.099-4.564 7.389-8.654-2.21 5.737 7.377z"/><path fill="#FFF" d="M220.471 223.729l5.636-2.776 4.693 4.173-.917-6.208 5.428-3.153-6.196-1.06-1.333-6.119-2.907 5.56-6.251-.636 4.387 4.486zm-63.339 12.461l3.711-1.831 3.076 2.75-.596-4.082 3.562-2.083-4.072-.7-.879-4.028-1.914 3.65-4.111-.407 2.89 2.952z"/><path fill="#0055B8" d="M297.37 292.21l-.006-.755-5.229 8.76 1.5-7.714-.37-.174c-7.66 9.29-10.587 15.971-12.971 24.202l-.112.393.384-.135c8.602-2.981 13.043-6.429 14.861-7.876l.038-.029.021-.046c1.279-2.779 1.887-8.401 1.892-15.291.001-.441-.004-.887-.008-1.335m-17.483-20.28c-8.369 1.702-18.133 2.697-27.082 2.697-1.342 0-2.667-.021-3.966-.067l19.198-5.679-.05-.412c-12.675-.595-22.46-.835-34.844-6.641l-.182-.088-.095.175c-1.844 3.308-2.888 7.94-2.888 12.632 0 2.667.336 5.354 1.064 7.824l.046.145.149.008c.005 0 .445.012 1.261.012 5.534-.001 28.28-.608 47.524-10.21l-.135-.396zm4.231 15.568c-9.678 7.193-16.963 13.011-31.239 15.694 13.22-6.868 22.086-11.594 30.419-20.033l-.257-.328c-14.777 8.604-34.026 12.289-47.608 12.801l-.363.014.193.309c11.18 17.694 25.326 19.277 29.929 19.277h.025c.952 0 1.488-.063 1.496-.063l.102-.013.053-.085c5.994-9.488 9.812-18.619 17.536-27.264l-.286-.309z"/><path fill-rule="evenodd" clip-rule="evenodd" fill="#FFF" d="M309.104 253.737a60.841 60.841 0 0 1-3.749 3.708c-1.386-2.982-3-5.84-4.876-8.537a52.93 52.93 0 0 0 2.802-3.67c2.394 2.648 4.464 5.739 5.823 8.499m5.094 18.772c-1.489.199-2.869.411-4.238.707a56.513 56.513 0 0 0-1.306-6.553 104.69 104.69 0 0 0 4.34-3.866c.823 3.182 1.173 6.163 1.204 9.712m-4.77 20.05l-.041-.742a56.78 56.78 0 0 0 1.073-9.209 33.562 33.562 0 0 1 2.468-.539c-.887 3.786-1.993 7.224-3.5 10.49m-35.217-64.008a39.173 39.173 0 0 0-2.159-1.049c11.43 3.386 19.136 7.802 23.444 11.154-.664.984-1.4 1.932-2.162 2.854a55.732 55.732 0 0 0-19.123-12.959"/></svg>