<svg xmlns="http://www.w3.org/2000/svg" width="400" height="400"><path fill="#FFF" d="M365 201c0 90.575-73.425 164-164 164-90.574 0-164-73.425-164-164 0-90.574 73.426-164 164-164 90.575 0 164 73.426 164 164"/><path fill="#006BB5" d="M358.95 201c0 87.232-70.716 157.951-157.951 157.951-87.233 0-157.949-70.719-157.949-157.951 0-87.233 70.716-157.952 157.949-157.952 87.235 0 157.951 70.719 157.951 157.952"/><path d="M67.419 227.916l3.235 10.304h10.954l-8.868 6.471 3.236 10.117-8.557-6.199-8.645 6.199 3.252-10.153-8.883-6.435h10.921zm267.249 0l3.234 10.304h10.955l-8.868 6.471 3.235 10.117-8.556-6.199-8.646 6.199 3.253-10.153-8.883-6.435h10.921zm-228.892 55.229l3.236 10.302h10.954l-8.868 6.473 3.235 10.115-8.557-6.198-8.645 6.198 3.253-10.15-8.884-6.438h10.922zm194.096 0l3.234 10.302h10.956l-8.869 6.473 3.236 10.115-8.557-6.198-8.645 6.198 3.252-10.15-8.883-6.438h10.922zM165.62 319.082l3.234 10.304h10.955l-8.868 6.472 3.235 10.116-8.556-6.199-8.645 6.199 3.253-10.152-8.884-6.436h10.922zm72.733 0l3.236 10.304h10.954l-8.868 6.472 3.235 10.116-8.557-6.199-8.644 6.199 3.252-10.152-8.884-6.436h10.922z" fill="#FFF"/><path fill="#FFF" d="M319.427 201.751c0 65.405-53.023 118.425-118.425 118.425-65.406 0-118.428-53.02-118.428-118.425 0-65.406 53.022-118.425 118.428-118.425 65.401 0 118.425 53.019 118.425 118.425"/><path fill="#006BB5" d="M89.612 225.017c6.213 29.75 23.65 55.302 49.077 71.949 25.437 16.638 55.825 22.382 85.58 16.165 29.743-6.21 55.553-23.476 71.948-49.064 16.317-25.466 22.082-55.852 16.169-85.58-5.919-29.757-23.645-55.24-49.1-71.9-25.472-16.671-55.85-22.431-85.549-16.226-29.749 6.213-55.307 23.65-71.951 49.081-16.634 25.428-22.384 55.82-16.174 85.575"/><g fill="#FFF"><path d="M239.749 113.076c.377 4.425-1.693 8.75-6.14 12.884-21.344-15.654-41.673-23.366-61.621-23.439a78.942 78.942 0 0 0-12.498.961 107.455 107.455 0 0 1 19.702-6.125c17.813-3.721 35.886-2.843 52.836 2.361 3.685 3.512 7.271 8.199 7.721 13.358m-22.27 183.815c22.434-20.588 32.832-64.74 39.042-91.116l.972-4.127c3.195-13.434 8.85-23.442 14.916-29.455 22.507 34.953 19.456 71.069 13.767 93.729-15.553 20.695-37.804 34.877-63.371 40.222a107.48 107.48 0 0 1-21.864 2.277c5.322-2.651 10.893-6.358 16.538-11.53m40.758-149.765c9.097-7.635 16.418-13.456 21.556-17.238 11.245 12.261 19.439 27.008 23.95 43.285-4.208-5.623-9.581-10.974-15.395-12.168-5.017-1.032-10.163.412-14.988 3.808-4.248-5.952-9.255-11.878-15.123-17.687M96.413 196.934c10.354-27.813 48.333-39.161 62.629-43.432l.636-.192c4.693-1.405 11.424-2.549 19.223-3.869 18.421-3.118 41.125-6.996 54.818-17.232 5.554 4.239 11.268 9.096 17.149 14.631-31.04 26.356-79.009 70.646-130.232 125.079-11.936-13.618-20.223-30.151-24.024-48.368a107.042 107.042 0 0 1-2.285-21.752c1.215-2.823 2.073-4.83 2.086-4.865"/><path d="M254.646 143.649c-5.77-5.443-11.456-10.341-17.069-14.692 5.191-5.061 7.565-10.54 7.058-16.322-.308-3.514-1.671-6.772-3.537-9.683a108.414 108.414 0 0 1 35.253 23.357c-5.383 3.967-12.731 9.817-21.705 17.34m-25.048-14.495c-12.881 8.891-34.17 12.508-51.515 15.45-7.958 1.352-14.827 2.511-19.813 4.007l-.632.191c-13.708 4.093-48.228 14.425-62.45 39.267 2.026-15.778 7.607-31.018 16.58-44.719 7.556-11.549 17.597-22.21 28.58-29.89 25.25-10.662 53.59-9.934 89.25 15.694m57.761 36.662c7.449 1.534 15.459 14.041 19.271 21.261 3.28 23.388-1.225 46.885-12.951 67.418a136.76 136.76 0 0 0 1.341-11.405c1.492-19.961-1.23-47.164-18.826-74.114 3.894-2.754 7.796-3.853 11.165-3.16"/></g><path fill="#FFF" d="M254.474 150.304c5.875 5.789 10.868 11.696 15.076 17.657-7.28 6.955-13.479 18.446-16.829 32.547l-.978 4.141c-6.083 25.829-16.259 69.063-37.583 88.624-8.809 8.074-17.446 12.294-25.123 14.498-16.389-1.831-32.238-7.498-46.438-16.785a107.682 107.682 0 0 1-18.635-15.437c51.69-54.951 99.873-99.231 130.51-125.245"/><path fill="#FFF" d="M230.428 233.429l2.886-.789c1.738-.458 2.926-1.052 2.926-3.586 0-2.096-.592-5.926-3.106-5.926-2.705 0-2.705 4.545-2.705 7.013v3.288zm-34.692-1.63c0-9.114-.331-16.989-6.519-16.989-5.039 0-5.903 7.875-5.903 16.989 0 9.109-.262 17.006 5.903 17.006 5.249 0 6.519-7.897 6.519-17.006"/><path fill="#FFF" d="M230.428 233.429l2.886-.789c1.738-.458 2.926-1.052 2.926-3.586 0-2.096-.592-5.926-3.106-5.926-2.705 0-2.705 4.545-2.705 7.013v3.288zm-47.796-22.492h-.119.223c2.973-4.62 8.62-6.823 14.134-6.823 12.529 0 20.221 10.795 20.221 25.33 0 17.206-11.672 27.443-26.068 27.443-22.172 0-30.22-17.88-30.22-38.591 0-23.854 10.362-43.554 36.178-43.554 10.051 0 18.334 6.502 18.334 16.407 0 6.423-4.973 9.566-9.717 9.566-6.963 0-9.18-5.831-10.172-10.916-.406-2.17.403-6.951-3.199-6.951-7.494 0-8.722 14.691-9.043 20.094l-.552 7.995z"/><path fill="#FFF" d="M195.736 231.799c0-9.114-.331-16.989-6.519-16.989-5.039 0-5.903 7.875-5.903 16.989 0 9.109-.262 17.006 5.903 17.006 5.249 0 6.519-7.897 6.519-17.006M61.449 175.586c4.201.498 5.948 3.457 5.296 8.951l-.471 3.975 2.262.268c2.91.345 3.998.278 4.341-2.074l2.683.318-1.278 10.792-2.683-.317c.214-2.366-.829-2.688-3.737-3.032l-8.4-.996c-2.908-.346-3.998-.277-4.343 2.074l-2.681-.317 1.407-11.859c.672-5.689 3.275-8.296 7.604-7.783zm2.238 11.537c.423-3.586-.627-5.513-3.178-5.816-2.229-.263-3.834 1.118-4.154 3.801-.227 1.906.449 2.281 2.486 2.523l4.685.556c.076-.353.118-.709.161-1.064zm13.564-23.452c.859-2.217-.056-2.811-2.757-3.941l-7.805-3.268c-2.701-1.13-3.767-1.365-4.744.8l-2.49-1.042 4.196-10.025 2.431 1.018c-.857 2.217.058 2.812 2.76 3.942l2.01.842 3.141-7.505-2.011-.842c-2.702-1.129-3.765-1.364-4.745.801l-2.431-1.017 4.197-10.027 2.493 1.043c-.859 2.217.058 2.812 2.759 3.942l7.803 3.268c2.701 1.131 3.769 1.365 4.746-.8l2.491 1.042-4.196 10.025-2.433-1.019c.856-2.216-.056-2.811-2.76-3.943l-3.389-1.418-3.143 7.503 3.392 1.421c2.701 1.129 3.769 1.364 4.742-.802l2.435 1.019-4.198 10.024-2.494-1.041zm10.503-53.296c-1.37 1.942-.627 2.741 1.716 4.497l6.777 5.073c2.347 1.756 3.321 2.243 4.798.38l2.162 1.62-6.494 8.677-2.163-1.618c1.372-1.943.607-2.717-1.738-4.473l-6.774-5.072c-2.346-1.754-3.303-2.269-4.78-.406l-2.163-1.618 6.498-8.678 2.161 1.618zm24.458 1.279l-1.735-2.069c1.775-1.578 1.212-2.505-.67-4.748l-5.443-6.484c-1.882-2.244-2.697-2.962-4.56-1.484l-1.736-2.07 8.305-6.967 1.736 2.069c-1.778 1.576-1.238 2.525.646 4.769l6.066 7.232c1.403 1.671 2.047 1.936 3.771.49 2.292-1.924 3.263-5.374 2.437-9.653l2.377-.507 2.445 7.977-13.639 11.445zm25.808-19.846l-1.12-2.458c2.039-1.253 1.943-2.64 1.867-5.004l-.586-16.801 4.534-2.068 12.517 12.214c1.421 1.389 2.195 2.073 4.058 1.439l1.119 2.458-9.89 4.515-1.094-2.398c.056-.027.147-.067.205-.095 1.363-.622 1.881-1.215 1.487-2.073a2.64 2.64 0 0 0-.582-.808l-2.294-2.281-6.397 2.92.398 3.145c.034.235.085.5.179.706.433.947 1.36 1.024 2.914.351l1.098 2.398-8.413 3.84zm8.061-15.345l-4.687-5.017.394 6.977 4.293-1.96zm25.443-.885c2.342-.399 2.386-1.491 1.975-4.392l-1.19-8.382c-.413-2.902-.756-3.937-3.121-3.667l-.379-2.676 10.959-1.558c8.415-1.195 13.457 2.101 14.444 9.065.994 6.995-2.9 11.528-11.345 12.728l-10.962 1.557-.381-2.675zm7.835-3.876c.309 2.159.684 2.732 2.942 2.411 4.351-.619 6.693-4.042 5.946-9.298-.744-5.255-3.943-7.859-8.296-7.241-2.258.32-2.458.974-2.151 3.134l1.559 10.994zm30.339.665c2.361.279 2.71-.754 3.133-3.652l1.223-8.371c.424-2.898.388-3.989-1.955-4.397l.392-2.671 18.063 2.64 2.001 7.002-2.185.765c-1.767-3.644-4.292-5.724-7.609-6.209-2.157-.315-2.539.287-2.849 2.413l-.457 3.123 1.032.15c2.284.334 2.966-.29 3.485-2.942l2.288.333-1.438 9.82-2.285-.333c.076-2.554-.656-3.845-2.458-4.109l-1.029-.15-.743 5.086c-.311 2.125-.112 2.779 2.079 3.1 3.217.47 6.965-1.087 9.915-4.633l1.896 1.427-4.375 6.99-18.512-2.706.388-2.676zm34.089 9.614l1.083-2.474c2.204.896 2.781-.024 3.957-2.705l3.398-7.749c1.173-2.682 1.456-3.73-.693-4.743l1.084-2.473 9.922 4.349-1.083 2.473c-2.202-.894-2.81.012-3.986 2.692l-3.789 8.643c-.873 1.996-.824 2.692 1.232 3.594 2.739 1.201 6.263.542 9.726-2.095l1.511 1.906-6.063 5.727-16.299-7.145zm55.718 16.108c-2.661 3.29-6.095 3.192-10.397-.285l-3.114-2.517-1.433 1.772c-1.839 2.277-2.363 3.235-.557 4.779l-1.698 2.101-8.453-6.831 1.698-2.102c1.889 1.443 2.715.73 4.556-1.547l5.32-6.582c1.84-2.278 2.362-3.236.556-4.779l1.698-2.102 9.289 7.508c4.453 3.6 5.276 7.193 2.535 10.585zm-10.957-4.252c2.81 2.27 4.997 2.408 6.616.408 1.408-1.747 1.096-3.842-1.008-5.54-1.49-1.206-2.169-.834-3.458.761l-2.967 3.67c.26.25.538.475.817.701zm12.615 24.002c1.414 1.908 2.406 1.453 4.806-.226l6.938-4.852c2.399-1.679 3.168-2.454 1.859-4.439l2.213-1.549 6.233 8.911-2.161 1.51c-1.416-1.91-2.408-1.454-4.809.226l-1.787 1.25 4.665 6.668 1.787-1.25c2.399-1.679 3.168-2.455 1.861-4.44l2.159-1.511 6.232 8.908-2.215 1.549c-1.414-1.91-2.407-1.454-4.808.226l-6.936 4.853c-2.4 1.677-3.169 2.454-1.859 4.439l-2.215 1.548-6.229-8.91 2.159-1.511c1.414 1.911 2.408 1.455 4.807-.225l3.017-2.108-4.666-6.668-3.017 2.108c-2.397 1.679-3.167 2.455-1.858 4.44l-2.161 1.511-6.231-8.908 2.216-1.55zm39.475 37.307c-.915-2.195-1.986-1.993-4.722-.941l-7.901 3.037c-2.737 1.052-3.669 1.619-2.878 3.861l-2.522.97-3.89-10.12 2.522-.97c.915 2.195 1.976 1.962 4.711.91l7.901-3.036c2.736-1.052 3.681-1.59 2.888-3.832l2.524-.969 3.89 10.12-2.523.97zm-14.18 18.792l2.681-.35c.596 2.318 1.951 2.633 4.232 3.255l16.231 4.381.645 4.938-15.354 8.374c-1.746.95-2.625 1.493-2.568 3.454l-2.681.351-1.406-10.781 2.615-.342c.009.066.021.162.027.226.196 1.485.611 2.153 1.547 2.031.324-.042.638-.149.944-.321l2.854-1.521-.91-6.972-3.126-.544c-.232-.035-.5-.066-.727-.036-1.032.134-1.379 1-1.194 2.683l-2.614.341-1.196-9.167zm12.298 12.215l6.174-3.006-6.785-1.674.611 4.68z"/><g fill="#FFF"><path d="M267.548 215.605c-2.459 0-4.282 1.068-5.668 2.603a18.224 18.224 0 0 0-.47-.99l-1.188-2.311-17.037 4.99v9.319h3.144c.304 0 .479.037.512.017.147.264.416 1.137.416 3.997v10.836l-3.113.438v10.242h23.594v-10.24l-3.098-.438v-3.177c0-1.838.381-5.301.86-7.333.872.258 1.921.473 3.083.473 4.229 0 7.185-3.803 7.185-9.247-.001-5.49-3.304-9.179-8.22-9.179z"/><path d="M297.099 226.468c-.202-.776-.274-1.066-.274-1.486 0-2.791-1.113-9.282-11.434-9.282-5.71 0-16.906 4.395-16.906 14.554 0 3.774 1.123 6.52 2.739 8.568-2.241 1.322-3.626 3.86-3.626 7.043 0 3.664 1.845 9.811 14.204 9.811 10.568 0 16.631-5.479 16.631-15.033 0-9.106-.803-12.156-1.334-14.175zM172.52 171.673a3.393 3.393 0 0 0-2.577-1.179c-1.557 0-2.797.98-4.293 2.561-5.032 5.313-11.833 8.122-19.668 8.122-10.273 0-21.085-4.723-29.663-12.952a3.625 3.625 0 0 0-2.525-1.036c-4.189 0-5.299 6.742-5.306 6.809l-.017 33.779 2.686.397c10.213 1.507 18.971 1.203 26.976-.958-8.646 7.744-28.112 28.792-27.825 48.874.048 3.702 2.339 4.101 3.321 4.101 1.226 0 2.028-.652 2.56-1.085.144-.116.321-.262.539-.424 2.765-2.051 7.268-3.228 12.354-3.228 4.204 0 8.371.842 11.461 2.322.583.271 1.276.562 2.117.562.976 0 1.87-.391 2.517-1.1 1.095-1.198.962-2.673.872-3.671-1.427-14.556 1.78-30.488 7.988-39.658l.929-1.379c5.28-7.813 16.268-24.075 18.341-37.502.211-1.373-.054-2.501-.787-3.355zm78.394 64.528l-.153-2.56a25.163 25.163 0 0 0-.741-4.777l-.113-2.935-.542.84c-2.549-6.883-8.264-11.166-15.563-11.166-10.931 0-18.565 8.642-18.565 21.015 0 9.485 5.554 19.056 17.96 19.056 7.103 0 13.617-3.576 16.999-9.334l.468-.794-.354-9.183.604-.162zm-13.236 5.918c-1.185 0-1.997-.75-2.527-1.674l6.052-1.629c-1.717 2.054-3.036 3.165-3.525 3.303z"/><path d="M210.252 206.318c-.622-.88-1.315-1.864-1.892-2.732 5.368-1.074 10.1-5.301 10.1-12.438 0-11.146-9.234-19.551-21.479-19.551-24.622 0-39.322 17.458-39.322 46.699 0 26.523 12.161 41.736 33.364 41.736 17.2 0 29.213-12.578 29.213-30.589 0-8.964-6.009-17.486-9.984-23.125z"/></g><path fill="#006BB5" d="M237.744 245.295c-3.823 0-6.073-3.486-6.46-7.016l16.403-4.416c-.481-8.003-5.111-15.084-13.82-15.084-9.268 0-15.42 7.226-15.42 17.869 0 8.316 4.77 15.912 14.814 15.912 5.743 0 11.312-2.718 14.288-7.782l-3.244-3.854c-1.584 2.453-3.43 4.371-6.561 4.371zm-7.25-15.123c0-2.469 0-7.013 2.705-7.013 2.514 0 3.106 3.831 3.106 5.927 0 2.534-1.188 3.126-2.927 3.584l-2.885.789v-3.287z"/><path fill="#006BB5" d="M264.657 251.633h-17.303v-4.364l3.113-.438v-13.567c0-4.843-.636-7.161-4.073-7.161v-3.816l12.284-3.599c1.404 2.73 1.84 5.867 2.039 8.964h.122c1.228-3.687 2.763-8.869 6.773-8.869 3.516 0 5.075 2.718 5.075 6.034 0 3.358-1.47 6.103-4.041 6.103-1.767 0-3.273-.746-4.118-1.031-2.246-.763-2.97 9.011-2.97 11.037v5.906l3.098.438v4.363z"/><path fill="#006BB5" d="M293.746 225.014c0 2.688-2.318 4.026-4.764 4.026-2.98 0-5.075-2.412-5.621-5.316-1.268 0-2.168.651-2.168 2.806 0 5.023 14.163 1.444 14.163 14.145 0 9.517-6.875 11.888-13.488 11.888-4.024 0-11.061-.53-11.061-6.667 0-2.775 1.546-4.897 4.31-4.897 4.299 0 5.038 3.936 5.763 6.728.206.738.841.855 1.438.855 2.271 0 3.914-.937 3.914-2.433 0-5.7-14.537-3.49-14.537-15.862 0-7.861 9.292-11.411 13.762-11.411 5.091-.002 8.289 1.705 8.289 6.138m-96.809-20.869c-5.514 0-11.162 2.204-14.134 6.822h-.223.118l.554-7.995c.32-5.401 1.548-20.092 9.042-20.092 3.602 0 2.792 4.78 3.199 6.951.992 5.085 3.208 10.916 10.172 10.916 4.743 0 9.717-3.143 9.717-9.566 0-9.904-8.283-16.407-18.334-16.407-25.815 0-36.178 19.7-36.178 43.555 0 20.711 8.048 38.59 30.219 38.59 14.396 0 26.067-10.237 26.067-27.442 0-14.539-7.69-25.332-20.219-25.332zm-7.653 44.691c-6.165 0-5.903-7.897-5.903-17.005 0-9.115.864-16.989 5.903-16.989 6.188 0 6.518 7.874 6.518 16.989 0 9.107-1.27 17.005-6.518 17.005z"/><path fill="#EC174C" d="M111.683 174.351v30.743c17.222 2.541 37.775.854 52.305-20.397.609-.904.969-.269.577.521-4.06 8.263-13.659 15.901-21.959 22.417-7.979 6.256-29.368 28.706-29.086 48.445.02 1.516.069 1.1 1.401.108 6.496-4.82 19.208-4.975 27.017-1.231 1.097.511 1.176.357 1.048-1.051-1.5-15.303 1.942-32.021 8.506-41.718 4.515-6.728 16.677-24.028 18.773-37.605.216-1.408-.507-1.189-2.266.664-13.781 14.553-38.689 14.199-54.761-1.221-1.015-.979-1.467-.54-1.555.325"/><circle fill="#FFF" cx="141.563" cy="155.892" r="29.471"/><path d="M141.538 127.463l.983 3.14h3.33l-2.708 1.962.992 3.084-2.597-1.889-2.64 1.889.984-3.097-2.692-1.949h3.33zm19.616 11.447l1.01 3.114h3.339l-2.71 1.976.993 3.079-2.622-1.902-2.631 1.902L159.55 144l-2.743-1.976h3.347zm-8.419-8.834l1.002 3.128h3.346l-2.708 1.976.982 3.091-2.613-1.918-2.614 1.918.983-3.104-2.708-1.963h3.33zm11.629 19.644l1 3.126h3.33l-2.692 1.963.977 3.088-2.598-1.911-2.622 1.911 1.001-3.088-2.727-1.963h3.313zm-1.406 11.425l1.001 3.118h3.338l-2.708 1.989.992 3.084-2.614-1.906-2.605 1.906.974-3.101-2.7-1.972h3.33zm-6.306 9.122l.983 3.129h3.347l-2.709 1.974.984 3.076-2.587-1.898-2.632 1.898.992-3.076-2.726-1.974h3.347zm-9.92 5.103l1.009 3.128h3.312l-2.7 1.98 1.001 3.092-2.613-1.903-2.624 1.903.984-3.097-2.708-1.975h3.33zm-25.19-37.474l-1.009 3.115h-3.322l2.692 1.984-.984 3.08 2.606-1.911 2.639 1.911-1-3.08 2.725-1.984h-3.347zm8.212-7.82l-1.001 3.128h-3.329l2.709 1.976-1.001 3.091 2.622-1.918 2.623 1.918-.983-3.104 2.708-1.963h-3.338zm-12.043 18.246l-.982 3.114h-3.34l2.718 1.962-.992 3.102 2.596-1.898 2.623 1.898-.983-3.102 2.726-1.962h-3.33zm1.036 11.408l-1.018 3.136h-3.33l2.709 1.98-.983 3.088 2.604-1.911 2.624 1.911-1.001-3.096 2.708-1.972h-3.33zm6.297 9.33l-.992 3.131h-3.338l2.708 1.972-1 3.079 2.622-1.91 2.641 1.91-1.01-3.088 2.708-1.963h-3.329zm9.921 5.918l-.992 3.136h-3.338l2.708 1.97-.983 3.076 2.587-1.881 2.648 1.881-1.01-3.097 2.728-1.949h-3.338z" fill="#006BB5"/></svg>