<svg xmlns="http://www.w3.org/2000/svg" width="400" height="400"><path fill="#CD1141" d="M362 200c0 88.923-72.084 161-161 161-88.924 0-161-72.077-161-161 0-88.918 72.076-161 161-161 88.916 0 161 72.082 161 161"/><path fill="#070B0C" d="M200.968 352.632c-40.415 0-78.512-15.651-107.266-44.075-28.784-28.446-44.875-66.402-45.325-106.87-.449-40.763 15-79.268 43.509-108.413 28.51-29.141 66.659-45.442 107.423-45.891.573-.006 1.151-.015 1.724-.015 40.414 0 78.505 15.657 107.266 44.081 28.783 28.445 44.875 66.397 45.325 106.865.448 40.768-15.005 79.271-43.51 108.418-28.508 29.147-66.659 45.441-107.433 45.892-.568.004-1.145.008-1.713.008"/><path d="M215.994 95.2l-5.291 5.342h-14.881l-5.346-5.342V65.722l5.346-5.347h14.829l5.343 5.347V95.2zm-15.472-26.101l-1.599 1.601v19.452l1.599 1.6h5.424l1.601-1.6V70.7l-1.601-1.601h-5.424zm101.632 95.625l-7.098-2.458-6.423-13.425 2.515-7.125 26.588-12.722 7.125 2.514 6.397 13.366-2.517 7.136-26.587 12.714zm16.872-25.213l-2.136-.749-17.547 8.393-.755 2.136 2.34 4.887 2.135.749 17.553-8.392.75-2.136-2.34-4.888zm-181.898-22.032l.15 7.515-10.368 10.673-7.564.102-21.133-20.544-.108-7.558 10.337-10.625 7.553-.108 21.133 20.545zm-29.494-7.103l.032 2.257 13.951 13.565 2.259-.032 3.784-3.892-.032-2.259-13.949-13.558-2.259.032-3.786 3.887zm163.071-32.991l-15.652 36.92-6.417-2.741-1.697-26.196-9.143 21.597-7.013-2.954 15.664-36.907 8.67 3.675.109 22.987 8.248-19.458zM167.501 85.8l-1.783 6.242 11.193 11.049-7.799 3.393-10.39-9.967-3.791 1.681 5.284 12.156-7.146 3.105-15.973-36.849 17.178-7.474 7.259 2.943 5.968 13.721zm-16.375 3.656l6.333-2.757c.055-.021.834-2.091.834-2.091l-2.183-5.016-2.104-.83-6.333 2.75 3.453 7.944zM302.11 113.33l-5.218-5.127-22.108 22.486-5.995-5.892 22.107-22.488-5.223-5.134 6.058-6.161 16.441 16.155zM88.032 136.225l-2.988 6.675 28.784 12.885-3.437 7.67-28.783-12.873-2.987 6.675-7.885-3.528 9.417-21.032zm219.999 102.454l-3.968 7.543-2.782-1.46-.781 1.476-2.511 4.771.69 2.136 3.94 2.083-.498-.273 2.157-.647 4.716-8.972 7.403-2.223 12.053 6.338 2.244 7.222-6.92 13.174s-7.276 2.221-7.323 2.195l-6.032-3.175 3.928-7.479 3.052 1.606 3.27-6.231-.674-2.162-3.169-1.677-2.194.665-4.626 8.806-7.471 2.27-.027.049-12.061-6.338-2.354-7.355 6.92-13.174 7.338-2.113 5.68 2.945zm-206.259 27.638l-6.344-1.343L85.19 276.91l-3.924-7.54 9.207-11.066-1.937-3.663-11.756 6.119-3.602-6.909 35.649-18.505 8.651 16.615-2.43 7.445-13.276 6.911zm-4.786-16.081l3.19 6.125c.028.053 2.153.685 2.153.685l4.849-2.525.68-2.153-3.191-6.13-7.681 3.998zm57.352 64.594l-5.787 13.854-6.974-2.896 15.416-37.09 16.963 7.05 2.816 7.275-5.615 13.51-5.604 2.978-11.215-4.681zm2.983-7.178l5.672 2.354c.048.022 2.067-.861 2.067-.861l2.097-5.054-.84-2.081-5.673-2.355-3.323 7.997zm57.885.267l-7.317.086.353 31.53-8.41.09-.353-31.528-7.312.074-.096-8.634 23.044-.256zm46.647 13.122l-3.041 6.872-13.912 5.278-6.896-3.105-10.459-27.552 3.104-6.894 13.854-5.262 6.895 3.099 10.455 27.564zm-23.721-18.92l-.924 2.063 6.903 18.194 2.056.926 5.076-1.927.926-2.06-6.9-18.19-2.062-.932-5.075 1.926zm53.139-19.938l.107 6.483 13.911 7.327-6.477 5.515-12.835-6.521-3.144 2.702 8.585 10.098-5.935 5.047-25.973-30.635 14.266-12.13 7.805.712 9.69 11.402zm-14.608 8.243l5.262-4.475c.043-.037.187-2.243.187-2.243l-3.543-4.169-2.247-.182-5.262 4.469 5.603 6.6zm-155.481 24.699l-6.277-5.78 2.911-5.921-8.592-7.907-5.669 3.389-6.279-5.781 36.299-21.755 6.278 5.777-18.671 37.978zm.224-19.046l5.498-11.123-10.663 6.366 5.165 4.757z" fill="#FFF"/><g fill="#A0A0A3"><path d="M232.287 280.668c.134.165.23.374.317.37.448-.026 1.343-.167 1.343-.167l.899-.386 2.525-.984s6.307-3.003 6.327-3.023c.027-.021 1.11-.589 1.11-.589l.572-.252.678-.46 1.12-.697 1.332-.731 1.713-1.119 2.977-2.095 1.456-1.148 2.093-1.517 1.907-1.417.898-.661 1.257-1.17 1.313-1.302 2.104-2.253 2.456-2.361 2.837-3.271 1.553-2.083.546-.744 1.666-2.06 3.252-4.674.91-1.53 2.189-4.303 1.232-2.346 2.109-4.271 1.14-2.598 1.236-3.981s1.461-5.258 2.254-8.008c.09-.316.127-.6-.075-.883-.45-.634-.782-1.435-1.204-2.147-.22-.374-.536-.744-.74-1.056-.207-.304-.76-.999-.973-1.252a5.078 5.078 0 0 0-.793-.712c-.679-.637-1.273-1.272-1.847-1.69-.269-.146-.514-.343-.761-.53-1.771-1.36-3.569-2.456-5.587-3.334a34.06 34.06 0 0 0-2.591-.975 17.221 17.221 0 0 0-2.249-.558c-.369-.064-.668-.074-.948.118-.276.188-.289.615-.337 1.033-.117 1.093-.16 2.303-.252 3.398-.101 1.141-.182 2.28-.272 3.421-.085 1.028-.134 2.065-.268 3.088a57.33 57.33 0 0 1-.604 4.054c-.476 2.511-1.013 5.009-1.536 7.515-.145.686-.242 1.402-.514 2.044a15.49 15.49 0 0 0-1.002 3.282c-.46 2.377-1.333 4.615-2.142 6.867-.663 1.837-1.316 3.7-2.359 5.375-.076.106-.113.242-.16.358-.492 1.158-.96 2.323-1.489 3.469-.332.743-.808 1.424-1.124 2.168-.396.947-.926 1.804-1.472 2.66-.878 1.35-1.799 2.672-2.553 4.097-.53.993-1.13 1.932-1.789 2.842-.171.234-.321.476-.481.712-.525.766-1.012 1.563-1.584 2.285a129.56 129.56 0 0 1-3.403 4.139c-.729.849-1.532 1.632-2.298 2.446-.696.733-1.391 1.473-2.094 2.209-.148.156-.336.278-.501.418-.419.359-.863.691-1.248 1.082-.911.905-1.843 1.776-2.912 2.488-.461.307-.925.615-1.345.964-1.12.97-2.396 1.703-3.814 2.436m56.366-67.494c.044 0 .063-.081.074-.183.028-.22.061-.6.061-.6l.617-5.486.367-5.145.017-5.096-.011-.798-.606-5.78s-.705-5.209-1.246-7.886c-.197-.958-.782-1.439-1.558-1.814-.251-.124-.535-.263-.813-.342-.567-.178-1.194-.45-1.767-.601-1.3-.325-2.537-.753-3.86-.979-1.557-.267-3.143-.434-4.719-.573a49.53 49.53 0 0 0-3.894-.181c-1.038-.017-1.658-.033-2.698-.033-.556 0-1.146.022-1.396.357-.254.349-.071.969.02 1.586.194 1.263.414 1.894.622 3.146.621 3.717 1.29 7.424 1.429 11.199.065 1.691.166 3.389.235 5.08.022.482.017.798.026 1.285.013.29.076.609.21.817.15.235.386.274.663.359.321.103.633.133.954.208.319.081.925.204 1.337.333 1.505.487 3.104 1.022 4.562 1.615 1.038.413 2.001 1.013 2.996 1.532.119.065.226.14.334.221.576.433 1.16.865 1.739 1.295 1.359 1.001 2.766 1.975 3.815 3.351.199.262.434.503.681.723.412.364 1.103 1.665 1.6 2.254.087.104.167.136.209.136m-38.68-61.661c.514-.038.98-.048 1.376-.096.296-.038.574-.048.708-.354.121-.305-.114-.638-.178-.781-.112-.251-1.103-2.002-1.103-2.002l-.962-1.503-4.069-5.873-.846-.995-.788-1.066-1.333-1.472-3.297-3.613-1.412-1.391-5.103-4.722-4.19-3.229-1.503-.797-4.911-2.999-3.436-1.861-.669-.274-2.794-1.022-4.154-1.552-.327-.075-1.332-.332-.358-.059-1.168-.301-2.473-.455-1.179-.043-2.205-.406-2.638-.17-.92-.113-1.655-.027-2.767.08-2.735.306-2.114.049-1.875.208-1.92.386-1.451.45-2.366.454-.531-.009-2.205.787-1.301.364-.796.481-1.922.525-.926.535-1.161.443-2.854 1.195-3.63 1.414-1.193.572-2.542 1.37-2.206 1.45-2.06 1.065-.75.434-2.259 1.2-.363.236-2.564 2.012-2.125 1.44-.419.273-2.408 1.9-.878.728s-1.29 1.108-1.327 1.264l.91-.269s1.654-.61 1.687-.599c.032.01.32.021.32.021l2.389-.963h.347l2.612-1.034s1.366-.449 1.366-.417 1.392-.515 1.392-.515l1.942-.69 4.695-1.804.428-.021 2.408-.834 1.906-.787.267.202 3.689.087 2.351.182.074.048 4.738.369.048-.036 6.551.342.033.159 2.323 1.994.17-.006 2.367 2.286.219-.107 3.26.097.16-.119 8.185.478.049.187 3.646 2.114.158-.027 6.441 3.137.047.342 3.652-1.422 5.353 1.803.909 1.482 1.96.129 1.89 2.135.198.012 1.52 1.734.022.113h.212l4.225.963 1.556 2.398 3.909 1.424s4.187 1.066 6.331 1.338c1.906.238 4.169.136 5.652.045m36.427 24.779c-.123-.621-.567-1.889-.567-1.889l-.242-.675-.219-.824-.696-2.06-.635-1.805-2.009-4.469-.91-2.195-1.146-2.538-1.369-2.249-.321-.647-.915-1.843-.852-1.385-.355-.478-5.849-7.921-.852-1.006c-.135-.172-.183-.306-.365-.306-.015 0-.026.006-.043.006 0 0-1.798 2.949-2.553 3.783-.748.825-2.253 2.206-2.253 2.206s-1.27 1.044-1.483 1.204c-.213.167-1.183.804-1.183.804l-1.333.765s-1.011.471-1.177.53c-.167.064-.354.138-.454.267-.104.135-.141.237-.099.461.044.176.103.348.172.503.541 1.134 1.032 2.291 1.622 3.393.889 1.638 1.456 3.405 2.19 5.108.244.56.492 1.134.684 1.712.499 1.51.964 3.024 1.445 4.539.208.671.434 1.34.628 2.014.192.679.347 1.359.528 2.045.119.449.418.653.874.647.438-.005.882-.027 1.32-.043 1.568-.042 3.133-.097 4.701-.117.448-.012 3.582.277 3.582.277s1.122.113 1.658.205c1.194.219 2.377.486 3.565.733.99.204 2.018.551 2.95.974.448.203.937.336 1.434.482.155.042.401.074.438.058.043-.015.105-.191.089-.266"/><path d="M265.937 141.353c-.043-.23-.461-.862-.461-.862l-.299-.531-.848-.973-.571-.824-1.065-1.049s-.235-.204-.357-.295c-1.865-1.52-5.594-4.534-5.6-4.544 0-.012-1.033-.826-1.033-.826l-1.934-1.691-9.694-5.813-7.644-3.625s-4.058-1.59-4.063-1.578c-.006.005-1.472-.53-1.488-.52-.027.006-4.994-1.718-4.994-1.718l-3.527-.895-3.421-.74-.535-.046-.306.299.135.149s.348.172.509.241c1.06.417 2.136.81 3.189 1.237.697.272 1.353.647 2.065.856.504.139.965.321 1.393.573 1.628.941 3.245 1.883 4.855 2.847a15.683 15.683 0 0 1 2.683 2.024c.625.577 1.284 1.134 2.038 1.546.342.188.621.498.927.75.165.135.331.278.503.418.946.781 1.975 1.456 2.821 2.371.898.969 1.846 1.889 2.794 2.81.899.878 1.809 1.74 2.579 2.741.628.825 1.286 1.633 2.013 2.367 1.407 1.392 2.479 3.045 3.76 4.527.154.183.256.413.39.617.824 1.305 1.564 2.661 2.559 3.854.696.829 1.316 1.702 1.787 2.696.274.59.686 1.131 1.056 1.671.215.322.577.471.77.46.188-.016.548-.176.548-.176l.684-.273s.906-.407 1.211-.541c.31-.146.908-.481 1.129-.679.219-.199 1.129-.825 1.643-1.296.515-.471 1.554-1.692 1.554-1.692l.744-1.001 1.296-2.151c-.003.003.247-.485.205-.715m-4.042 32.272c-.524-1.616-.938-3.142-1.509-4.737-.471-1.295-.836-2.638-1.441-3.896-.363-.744-.562-1.574-.838-2.354-.151-.397-.35-.768-.482-1.162-.707-2.035-1.682-3.684-2.651-5.594a5.978 5.978 0 0 0-.186-.363c-.093-.178-.172-.343-.414-.477-.24-.14-.443-.049-.877.01-.835.096-1.875.209-2.307.209-.386 0-2.023.123-3.319.229l-.306-.091h-1.584l-4.181-.541c-1.525-.225-5.031-1.108-5.031-1.108l-2.564-.878-3.164-1.086-.246.134-4.92-.391-.159.091-2.768-2.115-.32-.016-1.73-1.557-.064-.311-1.921-.295-.182.081-1.58-.541-.176-.166-3.619.262-3.281-1.333-11.375.6-.182-.117-2.146.161-.226.171-5.598.423-.155-.139-7.986 4.608-.091.342-.37.328-.182-.134-4.008-.375-.219.097-7.099.042-.151-.074-2.021-.065-.617-.359-7.44 5.755-.026.138-2.608 2.056-2.918-1.38-.17.085-1.081-.326s-5.358 1.365-5.305 1.402c.047.038-5.011-.792-5.011-.792l-.348-.284-.948.975-2.002.957-.053.172-3.999 3.051-5.68 4.094-6.39 4.755-2.88 2.093-.145 1.23-1.209 2.806-.524 2.413-.804 4.882-.471 2.109-.176 2.532-.695 5.273-.3 11.541.311.679.208 3.175s.048.552.177.576c.005.007.01 0 .01.007l14.147-14.628 4.641-1.869 3.903-.203 2.356-2.704.225-.509.288.134 6.365-.716.278-.205h2.376l.359.146.76-1.013 2.853-1.761 3.057-2.092 8.575.112.06.187 3.361.305 2.623-.518 4.808-4.903.091.004 3.822-3.634 5.737-.734.225-.156.252.247 2.981 1.407.214-.197 2.644-.315.128-.15 2.474-.413.226-.138 2.697 2.301.149-.177 5.53-.102.465-.347 4.449.214.24.095.686-.171.118-.203 1.771-.798.209.021 2.044-.926.172-.177 2.185-.829.159-.251 6.055-2.319.05-.09 1.063-.333.236-.235.305.327 1.755.861.542.016 1.97 1.104.129-.189.605-.282.063.026.982-.46.045-.07 1.412-.336 3.626.941.766-.17.662.439 2.66.4 2.602 1.008s1.506-.112 1.52-.112c.022 0 .488.331.488.331l.381-.225s5.121-.636 7.697-.845c1.67-.134 3.328-.312 5-.477.941-.092 1.885-.177 2.827-.29.504-.064.762-.256.579-.841"/><path d="M265.637 199.904c0-.354-.064-.585-.087-.933-.058-.991-.101-1.974-.154-2.971-.016-.326-.06-.652-.08-.985-.08-1.23-.106-2.467-.23-3.693-.16-1.558-.385-3.105-.616-4.646-.181-1.2-.411-2.393-.626-3.582-.23-1.251-.434-2.393-.701-3.634-.272-1.262-.541-1.429-1.835-1.279-.107.021-.221.037-.328.06-.477.096-1.145.16-1.627.224-2.511.326-4.882.465-7.397.759l-7.21 2.511-10.428-.273-1.13-.369-.005.182-3.073 2.27-.428.038-2.43 2.258-.134.311-6.241.836-5.696 4.393-.593-.016-3.037 1.788-1.193.135-1.193 1.005-.311-.245-5.807-.392-1.009 1.134.022.184-5.02 5.48-.065.317-.192.042-6.404 7.307-1.755.017-.144.182-5.252.91-.407-.022s-.106.24-.133.257c-.026.017-8.656 4.807-8.656 4.807l-3.886-.459-.818.293-3.876-.234-3.838 4.147-2.296.467-1.296-.058-1.359.572-.813-.086.042.16-4.774 3.699-.455.091-7.451 5.791.063.349-4.608 11.155.187.47-7.605.69-2.5 2.153-.235.809 3.383 4.699 2.504 3.834 2.159 2.751 3.51 3.822s.022.267.098.282c.064.022.465.049.481.07.022.011 2.104.706 2.12.717.01.011 2.586.81 2.586.81s.025.128.059.128c.021 0 .257-.039.257-.039l4.299 1.665.325-.014.236.283s.364 0 .386.004c.027.005 1.012.67 1.012.67l1.797-.985.086.006.809-.521 6.52 1.649 4.779-2.446 10.622-1.055 4.351-7.001c.69-.691 1.927-1.944 1.927-1.944l.165-.016s1.499-1.375 1.526-1.402c.021-.031 0-.192 0-.192l2.736-2.489 1.278-1.339s.284-.165.321-.171c.038-.005 1.473-1.525 1.473-1.525l1.182-1.22.312-.069-.305-1.082 1.231-4.49 2.376-.712.091-.091.712-.161.011-.392 3.191-5.182.299-.128 1.305-2.553 2.175-1.226.288-.354.427.058s1.266-.743 1.302-.732h.15l2.344-1.033.192-.278 7.802-3.575.47-.049.086-.429.306-.229.802-2.725 2.467-1.061 2.848-.348 2.593-1.794 3.693.155.369.307.176-.231 5.16-2.307-.027-.664 1.238-2.366 2.532-.674.127-.161 3.476-.733 1.332-1.578.172-.038s.803-.782.825-.799c.03-.005 2.386.328 2.386.328l.122.086 1.302.187.81.092s3.506-1.645 4.972-2.201c.622-.241 1.226-.396 1.804-.605.809-.289 1.617-.572 2.438-.845.41-.134.807-.241 1.213-.359l1.634-.299 1.9-.321 1.155-.07s.563-.069.771-.106c.216-.032.536-.032.787-.256.251-.225.241-.462.268-.67.02-.222.026-.329.026-.644"/><path d="M265.556 206.728c.012-.271.048-.731-.176-.979a.891.891 0 0 0-.696-.272c-.182 0-1.082.117-1.082.117l-1.508.229a5.408 5.408 0 0 0-.504.096c-.905.221-1.81.402-2.698.653-.996.285-2.012.547-2.949.965-.996.442-2.109.791-3.104 1.269-.358.166-3.704 1.803-5.236 2.563l-1.954 2.082-.074.45-.258-.113-1.227.07-.057.096-3.987 1.322.048.44-.418.406-.005.257-1.863 3.265-.251.018-.049.341s-.38.62-.797 1.324l-8.389 5.384-.184-.015-1.268 1.063-.889 3.534-.819.788-3.271 12.108.438 1.362-4.849 2.324h-.78l-.926 4.218-.157.145-1.197 3.827.069.198-.498 3.305-.176.229.16.3-4.652 7.392-.353.108-1.142 1.788-.026.357s-3.971 5.61-3.977 5.594c-.005-.021-4.196 2.484-4.196 2.484l.229.357c0 .037-.219 1.691-.219 1.691l.364.628-.604.186-3.025 1.794-.331-.069-4.454 2.633-.525.83c0 .074 1.74.264 1.74.264l2.89.229 1.964.102 2.287.037 1.059.042 1.724.044 1.719-.044 6.231-.75 3.703-.652 2.8-.759 3.04-.89 3.864-1.53.284-.171 1.093-.611s3.12-1.653 4.528-2.714c2.414-1.819 4.849-3.625 7.044-5.713.755-.715 1.499-1.434 2.237-2.166.707-.696 1.402-1.402 2.104-2.104.124-.123.282-.246.342-.401.237-.567.691-.952 1.109-1.387.283-.306.594-.593.819-.947.48-.754 1.184-1.301 1.804-1.922.492-.491.952-1.037 1.354-1.611.737-1.044 1.425-2.124 2.125-3.188.933-1.424 1.954-2.8 2.751-4.288.857-1.591 1.702-3.191 2.602-4.759.767-1.339 1.547-2.688 2.137-4.106.969-2.339 1.986-4.662 2.885-7.033.958-2.522 1.724-5.09 2.409-7.692.52-1.942.818-3.935 1.525-5.818.091-.248.133-.514.176-.771.269-1.583.541-3.169.788-4.757.235-1.507.449-3.011.663-4.514.151-1.021.316-2.05.402-3.078.116-1.43.188-2.859.247-4.288.003-.161.019-.465.019-.465l.024-.731"/></g></svg>